<?xml version="1.0" encoding="UTF-8"?>
<svg width="640" height="400" version="1.1" viewBox="0 0 480 300" xmlns="http://www.w3.org/2000/svg" xmlns:xlink="http://www.w3.org/1999/xlink"><defs stroke-linejoin="round"><style type="text/css">*{stroke-linecap:butt;stroke-linejoin:round;}</style><style type="text/css">*{stroke-linecap:butt;stroke-linejoin:round;}</style><path id="ma7dd23e37a" d="m0 0v3.5" stroke="#263238" stroke-linejoin="round" stroke-width=".8"/><path id="FiraCode-Regular-50" d="m27.641 71.75c-9.5312 0-16-3.2812-21.594-10.109l5.9531-4.6094c4.4688 5.2812 8.25 7.5312 15.234 7.5312 7.8906 0 12.609-4.875 12.609-12.812 0-11.5-5.7344-19.188-32.359-44.719v-7.0312h42l1.0781 7.3281h-33.281c23.281 21.234 31.641 31.75 31.641 44.719 0 11.234-7.9531 19.703-21.281 19.703z" stroke-linejoin="round"/><path id="FiraCode-Regular-52" d="m54.203 24.047h-9.125v20.062h-7.1875l-1.0625-20.062h-20.312l18.766 44.672-7.1719 3.0312-20.719-48.312v-6.2656h29.328l0.046875-17.172h8.3125v17.172h9.125z" stroke-linejoin="round"/><path id="FiraCode-Regular-54" d="m33.797 46c-6.9219 0-12.516-2.8281-17.031-9.5312 0.42188 17.219 6.625 28.297 17.484 28.297 3.8594 0 7.5469-1.0156 10.719-2.9688l3.3906 5.8438c-4 2.6719-8.5156 4.1094-13.953 4.1094-16.516 0-26.25-14.984-26.25-38.359 0-21.031 6.25-34.562 23.438-34.562 12.25 0 22.203 9.3281 22.203 24.922 0 15.078-9.125 22.25-20 22.25zm-2.25-40.203c-10.062 0-14.312 7.1719-14.672 23.125 3.5312 5.9531 8.8125 10 15.594 10 7.4844 0 12.5-3.7969 12.5-15.391 0-10.969-4.5-17.734-13.422-17.734z" stroke-linejoin="round"/><path id="FiraCode-Regular-56" d="m51.953 53.797c0 12.516-10.922 17.953-21.188 17.953-9.2812 0-21.172-5.5-21.172-18.422 0-7.8906 3.7969-12.562 11.281-16.156-8.5625-3.9375-14.156-9.7344-14.156-18.406 0-11.234 8.7188-19.938 23.844-19.938 14.922 0 24.266 8.5625 24.266 20.094 0 8.7188-5.9531 15.188-15.141 18.969 7.8594 4.3125 12.266 9.0312 12.266 15.906zm-33.844-0.5625c0 7.4844 4.6562 11.844 12.656 11.844 8.0625 0 12.672-4.5156 12.672-11.594 0-6.4531-3.2812-9.7344-9.8438-13.438-9.5938 3.0781-15.484 5.0312-15.484 13.188zm27.641-34.406c0-7.4375-5.3906-13.031-15.234-13.031-9.75 0-14.719 4.9219-14.719 12.922 0 8.9219 5.1719 13.328 11.031 16 11.125-3.8438 18.922-6.4062 18.922-15.891z" stroke-linejoin="round"/><path id="FiraCode-Regular-49" d="m38.312 7.0312v63.578h-7.5469l-21.016-13.016 3.7344-6.1562 16.203 9.8438v-54.25h-17.375v-7.0312h40.766v7.0312z" stroke-linejoin="round"/><path id="FiraCode-Regular-48" d="m30.766 71.75c-15.172 0-23.125-13.031-23.125-36.422 0-23.484 7.9531-36.5 23.125-36.5 15.188 0 23.125 13.016 23.125 36.5 0 23.391-7.9375 36.422-23.125 36.422zm0-6.9219c4.0625 0 7.1875-1.3906 9.3906-4.5781l-21.594-43.375c-1.2344 4.5625-1.7969 10.609-1.7969 18.453 0 20.922 5.3438 29.5 14 29.5zm0-59.031c-4 0-7.0156 1.375-9.2812 4.5156l21.484 43.578c1.2812-4.5625 1.8594-10.656 1.8594-18.562 0-20.922-5.2812-29.531-14.062-29.531z" stroke-linejoin="round"/><path id="FiraCode-Regular-69" d="m21.797 63.328h30.156l1.0156 7.2812h-40.094v-70.609h41.016v7.125h-32.094v25.078h26.156v7.3281h-26.156z" stroke-linejoin="round"/><path id="FiraCode-Regular-112" d="m34.469 55.125c-6.5156 0-12.156-3.125-16.109-8.6562l-0.71875 7.5312h-7.3281v-75.75l8.6094 1.0781v25.75c3.5938-4.2031 8.3594-6.25 14.266-6.25 14.047 0 20.812 11.844 20.812 28.203 0 16.922-5.125 28.094-19.531 28.094zm-2.0625-6.9219c8.4688 0 12.359-7.0312 12.359-21.125 0-14.406-4.5156-21.078-13.484-21.078-5.125 0-9.5312 2.5625-12.359 6.7656v26.766c2.9219 4.3594 7.4844 8.6719 13.484 8.6719z" stroke-linejoin="round"/><path id="FiraCode-Regular-111" d="m30.875 55.125c-15.234 0-23.328-11.531-23.328-28.203 0-16.969 8-28.094 23.219-28.094 15.125 0 23.234 11.688 23.234 28.203 0 17.125-7.8906 28.094-23.125 28.094zm0-7.0156c9.1719 0 13.891-6.7188 13.891-21.078s-4.7188-21.141-14-21.141-14 6.7812-14 21.031c0 14.469 4.8281 21.188 14.109 21.188z" stroke-linejoin="round"/><path id="FiraCode-Regular-99" d="m34.719 6.25c-9.2812 0-16 6.1094-16 20.516 0 14.266 6.6719 21.188 16 21.188 4.7188 0 9.3281-1.6406 13.953-4.8281l4.2031 5.75c-5.125 4.1562-11.125 6.25-18.047 6.25-16.219 0-25.438-12.156-25.438-28.359 0-16.922 9.1719-27.938 25.328-27.938 6.3594 0 13.531 2.5 18.25 6.5l-4.2031 5.6406c-4-2.7656-8.6094-4.7188-14.047-4.7188z" stroke-linejoin="round"/><path id="FiraCode-Regular-104" d="m18.922 76.562-8.6094-0.92188v-75.641h8.6094v39.328c2.8281 4.2656 8.3125 9.0312 14.469 9.0312 6.4062 0 9.3281-2.875 9.3281-9.3281v-39.031h8.6094v39.234c0 9.9375-4.6094 15.891-15.172 15.891-6.3594 0-12.969-2.875-17.234-8.5156z" stroke-linejoin="round"/><path id="m0ff5696d24" d="m0 0h-3.5" stroke="#263238" stroke-linejoin="round" stroke-width=".8"/><path id="FiraCode-Regular-46" d="m21.688 7.8906c0-5.0625 3.9062-9.0625 8.9844-9.0625 5.1719 0 9.0781 4 9.0781 9.0625 0 4.9844-3.9062 8.9844-9.0781 8.9844-5.0781 0-8.9844-4-8.9844-8.9844z" stroke-linejoin="round"/><path id="FiraCode-Regular-53" d="m49.953 70.609h-37.391v-35.281h6.9219c4.1094 1.5469 6.8281 2.3594 11.031 2.3594 7.0781 0 12.719-3.6875 12.719-15.078 0-10.969-5.4844-16.656-14.766-16.656-6.1094 0-10.984 2.0938-15.234 6.5156l-5.3438-5.1406c5.5-5.3281 11.953-8.5 20.469-8.5 14.562 0 23.891 9.4219 23.891 23.531s-7.7344 22.156-19.281 22.156c-4.25 0-7.8906-0.71875-12.203-3.0312v22.266h27.906z" stroke-linejoin="round"/><path id="FiraCode-Regular-55" d="m23.641-0.96875 28.156 64.969v6.6094h-41.797v-7.1719h33.125l-27.531-61.953z" stroke-linejoin="round"/><path id="FiraCode-Regular-114" d="m46.766 55.172c-9.7969 0-15.219-5.0625-19.375-13.938l-1.5938 12.766h-14.969v-6.6094h8.4062v-40.781h-8.4062v-6.6094h28v6.6094h-10.984v22.875c3.5938 11.906 9.4375 17.75 17.797 17.75h0.46875v-11.484h7.0781l1.2188 18.25c-2.4531 0.71875-4.6094 1.1719-7.6406 1.1719z" stroke-linejoin="round"/><path id="ma5f3463221" d="m0 1.5c0.3978 0 0.77937-0.15805 1.0607-0.43934 0.28129-0.28129 0.43934-0.66286 0.43934-1.0607s-0.15805-0.77937-0.43934-1.0607c-0.28129-0.28129-0.66286-0.43934-1.0607-0.43934s-0.77937 0.15805-1.0607 0.43934c-0.28129 0.28129-0.43934 0.66286-0.43934 1.0607s0.15805 0.77937 0.43934 1.0607c0.28129 0.28129 0.66286 0.43934 1.0607 0.43934z" stroke="#2196f3" stroke-linejoin="round"/><path id="mceb7c2ed40" d="m0 1.5c0.3978 0 0.77937-0.15805 1.0607-0.43934 0.28129-0.28129 0.43934-0.66286 0.43934-1.0607s-0.15805-0.77937-0.43934-1.0607c-0.28129-0.28129-0.66286-0.43934-1.0607-0.43934s-0.77937 0.15805-1.0607 0.43934c-0.28129 0.28129-0.43934 0.66286-0.43934 1.0607s0.15805 0.77937 0.43934 1.0607c0.28129 0.28129 0.66286 0.43934 1.0607 0.43934z" stroke="#e91e63" stroke-linejoin="round"/><path id="m4102c4d2c6" d="m0 1.5c0.3978 0 0.77937-0.15805 1.0607-0.43934 0.28129-0.28129 0.43934-0.66286 0.43934-1.0607s-0.15805-0.77937-0.43934-1.0607c-0.28129-0.28129-0.66286-0.43934-1.0607-0.43934s-0.77937 0.15805-1.0607 0.43934c-0.28129 0.28129-0.43934 0.66286-0.43934 1.0607s0.15805 0.77937 0.43934 1.0607c0.28129 0.28129 0.66286 0.43934 1.0607 0.43934z" stroke="#ffc107" stroke-linejoin="round"/><path id="FiraCode-Regular-77" d="m54.406 70.609h-12.516l-10.922-48.359-11.422 48.359h-12.422l-4-70.609h8.3594l1.9062 36.969c0.40625 8.8281 0.25 21.547 0.09375 25.5l12.766-49.797h8.9375l11.891 49.797c-0.04687-4.0625 0-15.75 0.5625-25.594l2.2031-36.875h8.5625z" stroke-linejoin="round"/><path id="FiraCode-Regular-78" d="m40.516 0h12.453v70.609h-8.25v-35.328c0-12.719 1.0781-24.109 1.1719-27.031l-25.281 62.359h-12.047v-70.609h8.2656v35.391c0 10.922-1.0781 23.641-1.1875 26.719z" stroke-linejoin="round"/><path id="FiraCode-Regular-73" d="m50.969 70.609h-40.406v-7.125h15.688v-56.359h-15.688v-7.125h40.406v7.125h-15.688v56.359h15.688z" stroke-linejoin="round"/><path id="FiraCode-Regular-83" d="m55.031 19.531c0 13.547-9.6406 18.109-20.625 21.297-13.438 3.9375-17.797 6.9219-17.797 13.062 0 7.0312 6.4219 10.422 14.109 10.422 6 0 12-1.9531 17.031-6.4219l5.2188 5.7969c-5.8906 5.1875-12.812 8.0625-22.562 8.0625-13.484 0-22.859-7.5938-22.859-18.156 0-11.234 8.8125-16.312 22.766-20.422 12.156-3.5781 15.484-6.9688 15.484-13.781 0-8.875-7.8438-13.078-16.406-13.078-8.625 0-14.781 2.8594-19.641 7.4844l-5.2812-5.9531c5.9375-5.7344 14.453-9.0156 24.766-9.0156 16.406 0 25.797 8.5625 25.797 20.703z" stroke-linejoin="round"/><path id="FiraCode-Regular-84" d="m35.031 62.969h21.438l0.92188 7.6406h-53.281v-7.6406h22.047v-62.969h8.875z" stroke-linejoin="round"/><path id="FiraCode-Regular-65" d="m44.469 18 5.6406-18h9.3281l-22.969 70.609h-11.391l-22.969-70.609h8.7656l5.6406 18zm-25.641 7.3906 11.734 37.734 11.594-37.734z" stroke-linejoin="round"/><path id="FiraCode-Regular-117" d="m18.922 54h-8.6094v-39.281c0-10 5.125-15.891 15.578-15.891 6.3125 0 13.031 2.9688 17.297 8.4531l0.70312-7.2812h7.3438v54h-8.625v-39.75c-2.9219-4.6094-8.7188-8.5625-14.609-8.5625-6.25 0-9.0781 2.9844-9.0781 10.062z" stroke-linejoin="round"/><path id="FiraCode-Regular-116" d="m53.188 2.7188-3.3438 5.8438c-2.9219-1.5312-6.2969-2.5625-10.359-2.5625-7.375 0-10.297 3.2344-10.297 9.2344v32.094h17.641l1.0156 6.6719h-18.656v13.281l-8.625-1.0312v-12.25h-12.406v-6.6719h12.406v-32.203c0-9.5312 6.5625-16.297 18.156-16.297 5.0312 0 10.766 1.4844 14.469 3.8906z" stroke-linejoin="round"/><path id="FiraCode-Regular-101" d="m17.078 23.953h36.312c0.09375 1.1719 0.20312 2.875 0.20312 4.7188 0 16.406-8.3125 26.453-21.953 26.453-14.359 0-23.594-11.844-23.594-28.203 0-16.766 8.9219-28.094 24.719-28.094 6.7188 0 13.547 2.4062 18.562 6.3438l-4.0469 5.7031c-4.7656-3.2344-8.9219-4.875-14.406-4.875-8.3594 0-15.328 5.4375-15.797 17.953zm14.672 24.094c8.0938 0 13.328-5.8906 13.531-17.438h-28.156c0.71875 11.906 6.5625 17.438 14.625 17.438z" stroke-linejoin="round"/><path id="FiraCode-Regular-110" d="m10.312 0h8.6094v39.328c2.8281 4.2031 8.2031 9.0312 14.562 9.0312 8.1562 0 9.2344-4.4688 9.2344-15.484v-32.875h8.6094v39.234c0 9.9375-4.5625 15.891-15.172 15.891-6.2656 0-13.438-3.0781-17.844-8.6094l-0.67188 7.4844h-7.3281z" stroke-linejoin="round"/><path id="FiraCode-Regular-100" d="m42.609 76.828v-28.062c-3.5781 4.2031-8.25 6.3594-14.453 6.3594-13.328 0-21.188-11.953-21.188-28.203 0-16.719 6.4688-28.094 20.578-28.094 5.9375 0 11.281 2.5625 15.328 8.2969l0.8125-7.125h7.5469v75.75zm-12.203-28.625c4.9844 0 9.2812-2.5625 12.203-6.9219v-26.969c-2.9219-4.4219-7.1719-8.5156-13.281-8.5156-8.4531 0-12.969 7.125-12.969 21.125 0 14.25 5.0312 21.281 14.047 21.281z" stroke-linejoin="round"/><path id="FiraCode-Regular-45" d="m10.203 28.359h41.125v7.4844h-41.125z" stroke-linejoin="round"/><path id="FiraCode-Regular-76" d="m13.891 0h40.109l1.0312 7.9531h-32.203v62.656h-8.9375z" stroke-linejoin="round"/><path id="FiraCode-Regular-115" d="m28.672 5.9531c-6.3594 0-12 2.2969-16.203 5.8438l-4.9219-5.6875c4.6094-4 11.375-7.2812 21.125-7.2812 11.531 0 22.766 4.5625 22.766 16.094 0 10.109-6.9688 13.797-17.547 16.672-10.922 2.9688-14.344 4.6562-14.344 9.4844 0 4.1562 3.1719 7.0781 11.688 7.0781 6.9688 0 11.641-2.0469 15.688-4.8281l3.7969 5.8438c-4.5156 3.3438-10.922 5.9531-19.594 5.9531-12.203 0-20.516-5.6406-20.516-14.719 0-9.375 7.1875-12.766 18.422-15.531 11.438-2.875 13.078-5.4844 13.078-10.359 0-5.2344-5.1406-8.5625-13.438-8.5625z" stroke-linejoin="round"/><path id="FiraCode-Regular-42" d="m26.406 59.328h8.7188l-0.65625-20.766 19.484 6.9219 2.6094-8.0938-19.844-5.8594 12.672-16.406-6.875-5.0156-11.75 17.125-11.734-17.125-6.875 5.0156 12.672 16.406-19.859 5.8594 2.625 8.0938 19.484-6.9219z" stroke-linejoin="round"/><path id="FiraCode-Regular-80" d="m57.125 48.922c0 14.828-10.406 21.688-27.234 21.688h-18.047v-70.609h8.9219v26.203h9.0312c15.953 0 27.328 6.2031 27.328 22.719zm-9.5312-0.09375c0-12.109-7.125-15.438-16.984-15.438h-9.8438v30.141h10.203c9.5938 0 16.625-3.7812 16.625-14.703z" stroke-linejoin="round"/><path id="FiraCode-Regular-121" d="m55.234 54h-8.9219l-15.281-47.438-15.484 47.438h-9.2344l18.875-54h2.8594c-2.8594-8.3594-6.0469-12.922-17.219-14.828l1.3281-6.8594c14.312 1.4375 20.312 10.359 24.094 21.328z" stroke-linejoin="round"/><clipPath id="pc3289f21be-3" stroke-linejoin="round"><rect x="67.254" y="35.8" width="333.37" height="174.51" stroke-linejoin="round"/></clipPath></defs><g transform="scale(1.1667)" stroke-linejoin="round"><path d="m0 257.14h411.43v-257.14h-411.43z" fill="#fff" stroke-linejoin="round"/><path d="m67.254 210.31h333.37v-174.51h-333.37z" fill="#fff" stroke-linejoin="round"/><path d="m102.61 210.31v-174.51" clip-path="url(#pc3289f21be-3)" fill="none" stroke="#263238" stroke-linecap="square" stroke-linejoin="round" stroke-width=".125"/><g stroke-linejoin="round"><use x="102.61212" y="210.30937" width="100%" height="100%" fill="#263238" stroke="#263238" stroke-linejoin="round" stroke-width=".8" xlink:href="#ma7dd23e37a"/></g><g transform="matrix(.1 0 0 -.1 99.535 224.88)" fill="#263238" stroke-linejoin="round"><use width="100%" height="100%" stroke-linejoin="round" xlink:href="#FiraCode-Regular-50"/></g><path d="m143.02 210.31v-174.51" clip-path="url(#pc3289f21be-3)" fill="none" stroke="#263238" stroke-linecap="square" stroke-linejoin="round" stroke-width=".125"/><g stroke-linejoin="round"><use x="143.02113" y="210.30937" width="100%" height="100%" fill="#263238" stroke="#263238" stroke-linejoin="round" stroke-width=".8" xlink:href="#ma7dd23e37a"/></g><g transform="matrix(.1 0 0 -.1 139.94 224.88)" fill="#263238" stroke-linejoin="round"><use width="100%" height="100%" stroke-linejoin="round" xlink:href="#FiraCode-Regular-52"/></g><path d="m183.43 210.31v-174.51" clip-path="url(#pc3289f21be-3)" fill="none" stroke="#263238" stroke-linecap="square" stroke-linejoin="round" stroke-width=".125"/><g stroke-linejoin="round"><use x="183.43015" y="210.30937" width="100%" height="100%" fill="#263238" stroke="#263238" stroke-linejoin="round" stroke-width=".8" xlink:href="#ma7dd23e37a"/></g><g transform="matrix(.1 0 0 -.1 180.35 224.88)" fill="#263238" stroke-linejoin="round"><use width="100%" height="100%" stroke-linejoin="round" xlink:href="#FiraCode-Regular-54"/></g><path d="m223.84 210.31v-174.51" clip-path="url(#pc3289f21be-3)" fill="none" stroke="#263238" stroke-linecap="square" stroke-linejoin="round" stroke-width=".125"/><g stroke-linejoin="round"><use x="223.83916" y="210.30937" width="100%" height="100%" fill="#263238" stroke="#263238" stroke-linejoin="round" stroke-width=".8" xlink:href="#ma7dd23e37a"/></g><g transform="matrix(.1 0 0 -.1 220.76 224.88)" fill="#263238" stroke-linejoin="round"><use width="100%" height="100%" stroke-linejoin="round" xlink:href="#FiraCode-Regular-56"/></g><path d="m264.25 210.31v-174.51" clip-path="url(#pc3289f21be-3)" fill="none" stroke="#263238" stroke-linecap="square" stroke-linejoin="round" stroke-width=".125"/><g stroke-linejoin="round"><use x="264.24817" y="210.30937" width="100%" height="100%" fill="#263238" stroke="#263238" stroke-linejoin="round" stroke-width=".8" xlink:href="#ma7dd23e37a"/></g><g transform="matrix(.1 0 0 -.1 258.09 224.88)" fill="#263238" stroke-linejoin="round"><use width="100%" height="100%" xlink:href="#FiraCode-Regular-49"/><use x="61.538452" width="100%" height="100%" xlink:href="#FiraCode-Regular-48"/></g><path d="m304.66 210.31v-174.51" clip-path="url(#pc3289f21be-3)" fill="none" stroke="#263238" stroke-linecap="square" stroke-linejoin="round" stroke-width=".125"/><g stroke-linejoin="round"><use x="304.65717" y="210.30937" width="100%" height="100%" fill="#263238" stroke="#263238" stroke-linejoin="round" stroke-width=".8" xlink:href="#ma7dd23e37a"/></g><g transform="matrix(.1 0 0 -.1 298.5 224.88)" fill="#263238" stroke-linejoin="round"><use width="100%" height="100%" xlink:href="#FiraCode-Regular-49"/><use x="61.538452" width="100%" height="100%" xlink:href="#FiraCode-Regular-50"/></g><path d="m345.07 210.31v-174.51" clip-path="url(#pc3289f21be-3)" fill="none" stroke="#263238" stroke-linecap="square" stroke-linejoin="round" stroke-width=".125"/><g stroke-linejoin="round"><use x="345.06619" y="210.30937" width="100%" height="100%" fill="#263238" stroke="#263238" stroke-linejoin="round" stroke-width=".8" xlink:href="#ma7dd23e37a"/></g><g transform="matrix(.1 0 0 -.1 338.91 224.88)" fill="#263238" stroke-linejoin="round"><use width="100%" height="100%" xlink:href="#FiraCode-Regular-49"/><use x="61.538452" width="100%" height="100%" xlink:href="#FiraCode-Regular-52"/></g><path d="m385.48 210.31v-174.51" clip-path="url(#pc3289f21be-3)" fill="none" stroke="#263238" stroke-linecap="square" stroke-linejoin="round" stroke-width=".125"/><g stroke-linejoin="round"><use x="385.47519" y="210.30937" width="100%" height="100%" fill="#263238" stroke="#263238" stroke-linejoin="round" stroke-width=".8" xlink:href="#ma7dd23e37a"/></g><g transform="matrix(.1 0 0 -.1 379.32 224.88)" fill="#263238" stroke-linejoin="round"><use width="100%" height="100%" xlink:href="#FiraCode-Regular-49"/><use x="61.538452" width="100%" height="100%" xlink:href="#FiraCode-Regular-54"/></g><g transform="matrix(.1 0 0 -.1 218.55 242.72)" fill="#263238" stroke-linejoin="round"><use width="100%" height="100%" xlink:href="#FiraCode-Regular-69"/><use x="61.538452" width="100%" height="100%" xlink:href="#FiraCode-Regular-112"/><use x="123.0769" width="100%" height="100%" xlink:href="#FiraCode-Regular-111"/><use x="184.61536" width="100%" height="100%" xlink:href="#FiraCode-Regular-99"/><use x="246.15381" width="100%" height="100%" xlink:href="#FiraCode-Regular-104"/></g><path d="m67.254 182.81h333.37" clip-path="url(#pc3289f21be-3)" fill="none" stroke="#263238" stroke-linecap="square" stroke-linejoin="round" stroke-width=".125"/><g stroke-linejoin="round"><use x="67.254242" y="182.80504" width="100%" height="100%" fill="#263238" stroke="#263238" stroke-linejoin="round" stroke-width=".8" xlink:href="#m0ff5696d24"/></g><g transform="matrix(.1 0 0 -.1 29.481 186.59)" fill="#263238" stroke-linejoin="round"><use width="100%" height="100%" xlink:href="#FiraCode-Regular-48"/><use x="61.538452" width="100%" height="100%" xlink:href="#FiraCode-Regular-46"/><use x="123.0769" width="100%" height="100%" xlink:href="#FiraCode-Regular-48"/><use x="184.61536" width="100%" height="100%" xlink:href="#FiraCode-Regular-53"/><use x="246.15381" width="100%" height="100%" xlink:href="#FiraCode-Regular-48"/></g><path d="m67.254 147.02h333.37" clip-path="url(#pc3289f21be-3)" fill="none" stroke="#263238" stroke-linecap="square" stroke-linejoin="round" stroke-width=".125"/><g stroke-linejoin="round"><use x="67.254242" y="147.02425" width="100%" height="100%" fill="#263238" stroke="#263238" stroke-linejoin="round" stroke-width=".8" xlink:href="#m0ff5696d24"/></g><g transform="matrix(.1 0 0 -.1 29.481 150.81)" fill="#263238" stroke-linejoin="round"><use width="100%" height="100%" xlink:href="#FiraCode-Regular-48"/><use x="61.538452" width="100%" height="100%" xlink:href="#FiraCode-Regular-46"/><use x="123.0769" width="100%" height="100%" xlink:href="#FiraCode-Regular-48"/><use x="184.61536" width="100%" height="100%" xlink:href="#FiraCode-Regular-53"/><use x="246.15381" width="100%" height="100%" xlink:href="#FiraCode-Regular-53"/></g><path d="m67.254 111.24h333.37" clip-path="url(#pc3289f21be-3)" fill="none" stroke="#263238" stroke-linecap="square" stroke-linejoin="round" stroke-width=".125"/><g stroke-linejoin="round"><use x="67.254242" y="111.24345" width="100%" height="100%" fill="#263238" stroke="#263238" stroke-linejoin="round" stroke-width=".8" xlink:href="#m0ff5696d24"/></g><g transform="matrix(.1 0 0 -.1 29.481 115.03)" fill="#263238" stroke-linejoin="round"><use width="100%" height="100%" xlink:href="#FiraCode-Regular-48"/><use x="61.538452" width="100%" height="100%" xlink:href="#FiraCode-Regular-46"/><use x="123.0769" width="100%" height="100%" xlink:href="#FiraCode-Regular-48"/><use x="184.61536" width="100%" height="100%" xlink:href="#FiraCode-Regular-54"/><use x="246.15381" width="100%" height="100%" xlink:href="#FiraCode-Regular-48"/></g><path d="m67.254 75.463h333.37" clip-path="url(#pc3289f21be-3)" fill="none" stroke="#263238" stroke-linecap="square" stroke-linejoin="round" stroke-width=".125"/><g stroke-linejoin="round"><use x="67.254242" y="75.462654" width="100%" height="100%" fill="#263238" stroke="#263238" stroke-linejoin="round" stroke-width=".8" xlink:href="#m0ff5696d24"/></g><g transform="matrix(.1 0 0 -.1 29.481 79.25)" fill="#263238" stroke-linejoin="round"><use width="100%" height="100%" xlink:href="#FiraCode-Regular-48"/><use x="61.538452" width="100%" height="100%" xlink:href="#FiraCode-Regular-46"/><use x="123.0769" width="100%" height="100%" xlink:href="#FiraCode-Regular-48"/><use x="184.61536" width="100%" height="100%" xlink:href="#FiraCode-Regular-54"/><use x="246.15381" width="100%" height="100%" xlink:href="#FiraCode-Regular-53"/></g><path d="m67.254 39.682h333.37" clip-path="url(#pc3289f21be-3)" fill="none" stroke="#263238" stroke-linecap="square" stroke-linejoin="round" stroke-width=".125"/><g stroke-linejoin="round"><use x="67.254242" y="39.681858" width="100%" height="100%" fill="#263238" stroke="#263238" stroke-linejoin="round" stroke-width=".8" xlink:href="#m0ff5696d24"/></g><g transform="matrix(.1 0 0 -.1 29.481 43.469)" fill="#263238" stroke-linejoin="round"><use width="100%" height="100%" xlink:href="#FiraCode-Regular-48"/><use x="61.538452" width="100%" height="100%" xlink:href="#FiraCode-Regular-46"/><use x="123.0769" width="100%" height="100%" xlink:href="#FiraCode-Regular-48"/><use x="184.61536" width="100%" height="100%" xlink:href="#FiraCode-Regular-55"/><use x="246.15381" width="100%" height="100%" xlink:href="#FiraCode-Regular-48"/></g><g transform="matrix(0 -.1 -.1 0 19.306 138.44)" fill="#263238" stroke-linejoin="round"><use width="100%" height="100%" xlink:href="#FiraCode-Regular-69"/><use x="61.538452" width="100%" height="100%" xlink:href="#FiraCode-Regular-114"/><use x="123.0769" width="100%" height="100%" xlink:href="#FiraCode-Regular-114"/><use x="184.61536" width="100%" height="100%" xlink:href="#FiraCode-Regular-111"/><use x="246.15381" width="100%" height="100%" xlink:href="#FiraCode-Regular-114"/></g><g stroke="#2196f3"><path d="m82.408 43.732 20.205 7.5641 20.204 2.4116 20.204 1.4813 20.205 1.7461 20.204 3.3133 20.205 5.7035 20.204 7.929 20.205 9.8898 20.204 11.071 20.205 10.398 20.204 9.9256 20.205 9.1026 20.204 8.7591 20.205 8.2224 20.204 7.6499" clip-path="url(#pc3289f21be-3)" fill="none" stroke-linecap="square" stroke-width="1.5"/><g clip-path="url(#pc3289f21be-3)" fill="#2196f3"><use x="82.407623" y="43.732243" width="100%" height="100%" xlink:href="#ma5f3463221"/><use x="102.61212" y="51.296303" width="100%" height="100%" xlink:href="#ma5f3463221"/><use x="122.81663" y="53.707932" width="100%" height="100%" xlink:href="#ma5f3463221"/><use x="143.02113" y="55.189255" width="100%" height="100%" xlink:href="#ma5f3463221"/><use x="163.22563" y="56.935356" width="100%" height="100%" xlink:href="#ma5f3463221"/><use x="183.43015" y="60.248657" width="100%" height="100%" xlink:href="#ma5f3463221"/><use x="203.63464" y="65.952118" width="100%" height="100%" xlink:href="#ma5f3463221"/><use x="223.83916" y="73.881142" width="100%" height="100%" xlink:href="#ma5f3463221"/><use x="244.04366" y="83.77095" width="100%" height="100%" xlink:href="#ma5f3463221"/><use x="264.24817" y="94.84153" width="100%" height="100%" xlink:href="#ma5f3463221"/><use x="284.45267" y="105.23943" width="100%" height="100%" xlink:href="#ma5f3463221"/><use x="304.65717" y="115.16502" width="100%" height="100%" xlink:href="#ma5f3463221"/><use x="324.86166" y="124.26765" width="100%" height="100%" xlink:href="#ma5f3463221"/><use x="345.06619" y="133.02679" width="100%" height="100%" xlink:href="#ma5f3463221"/><use x="365.27069" y="141.24922" width="100%" height="100%" xlink:href="#ma5f3463221"/><use x="385.47519" y="148.89915" width="100%" height="100%" xlink:href="#ma5f3463221"/></g></g><g stroke="#e91e63"><path d="m82.408 45.371 20.205 12.838 20.204 10.112 20.204 12.037 20.205 13.117 20.204 13.504 20.205 13.139 20.204 12.409 20.205 11.665 20.204 10.698 20.205 9.6966 20.204 8.8307 20.205 8.1509 20.204 7.4782 20.205 6.92 20.204 6.4119" clip-path="url(#pc3289f21be-3)" fill="none" stroke-linecap="square" stroke-width="1.5"/><g clip-path="url(#pc3289f21be-3)" fill="#e91e63"><use x="82.407623" y="45.371006" width="100%" height="100%" xlink:href="#mceb7c2ed40"/><use x="102.61212" y="58.209152" width="100%" height="100%" xlink:href="#mceb7c2ed40"/><use x="122.81663" y="68.320808" width="100%" height="100%" xlink:href="#mceb7c2ed40"/><use x="143.02113" y="80.357468" width="100%" height="100%" xlink:href="#mceb7c2ed40"/><use x="163.22563" y="93.474709" width="100%" height="100%" xlink:href="#mceb7c2ed40"/><use x="183.43015" y="106.97838" width="100%" height="100%" xlink:href="#mceb7c2ed40"/><use x="203.63464" y="120.11708" width="100%" height="100%" xlink:href="#mceb7c2ed40"/><use x="223.83916" y="132.52586" width="100%" height="100%" xlink:href="#mceb7c2ed40"/><use x="244.04366" y="144.1904" width="100%" height="100%" xlink:href="#mceb7c2ed40"/><use x="264.24817" y="154.88885" width="100%" height="100%" xlink:href="#mceb7c2ed40"/><use x="284.45267" y="164.58545" width="100%" height="100%" xlink:href="#mceb7c2ed40"/><use x="304.65717" y="173.41615" width="100%" height="100%" xlink:href="#mceb7c2ed40"/><use x="324.86166" y="181.56702" width="100%" height="100%" xlink:href="#mceb7c2ed40"/><use x="345.06619" y="189.04521" width="100%" height="100%" xlink:href="#mceb7c2ed40"/><use x="365.27069" y="195.96521" width="100%" height="100%" xlink:href="#mceb7c2ed40"/><use x="385.47519" y="202.37714" width="100%" height="100%" xlink:href="#mceb7c2ed40"/></g></g><g stroke="#ffc107"><path d="m82.408 43.904 20.205 7.7358 20.204 2.9412 20.204 2.476 20.205 3.6353 20.204 5.7464 20.205 8.0793 20.204 9.0883 20.205 10.076 20.204 10.205 20.205 10.169 20.204 9.9256 20.205 9.5248 20.204 9.1742 20.205 8.6375 20.204 8.3369" clip-path="url(#pc3289f21be-3)" fill="none" stroke-linecap="square" stroke-width="1.5"/><g clip-path="url(#pc3289f21be-3)" fill="#ffc107"><use x="82.407623" y="43.903992" width="100%" height="100%" xlink:href="#m4102c4d2c6"/><use x="102.61212" y="51.639801" width="100%" height="100%" xlink:href="#m4102c4d2c6"/><use x="122.81663" y="54.580982" width="100%" height="100%" xlink:href="#m4102c4d2c6"/><use x="143.02113" y="57.057011" width="100%" height="100%" xlink:href="#m4102c4d2c6"/><use x="163.22563" y="60.692341" width="100%" height="100%" xlink:href="#m4102c4d2c6"/><use x="183.43015" y="66.438736" width="100%" height="100%" xlink:href="#m4102c4d2c6"/><use x="203.63464" y="74.518044" width="100%" height="100%" xlink:href="#m4102c4d2c6"/><use x="223.83916" y="83.606361" width="100%" height="100%" xlink:href="#m4102c4d2c6"/><use x="244.04366" y="93.682236" width="100%" height="100%" xlink:href="#m4102c4d2c6"/><use x="264.24817" y="103.88692" width="100%" height="100%" xlink:href="#m4102c4d2c6"/><use x="284.45267" y="114.05582" width="100%" height="100%" xlink:href="#m4102c4d2c6"/><use x="304.65717" y="123.98141" width="100%" height="100%" xlink:href="#m4102c4d2c6"/><use x="324.86166" y="133.50626" width="100%" height="100%" xlink:href="#m4102c4d2c6"/><use x="345.06619" y="142.68045" width="100%" height="100%" xlink:href="#m4102c4d2c6"/><use x="365.27069" y="151.31793" width="100%" height="100%" xlink:href="#m4102c4d2c6"/><use x="385.47519" y="159.65486" width="100%" height="100%" xlink:href="#m4102c4d2c6"/></g></g><path d="m67.254 210.31v-174.51" fill="none" stroke="#000" stroke-linecap="square" stroke-linejoin="miter" stroke-width=".8"/><path d="m67.254 210.31h333.37" fill="none" stroke="#000" stroke-linecap="square" stroke-linejoin="miter" stroke-width=".8"/><g transform="matrix(.12 0 0 -.12 104.69 19.8)" fill="#263238" stroke-linejoin="round"><use width="100%" height="100%" xlink:href="#FiraCode-Regular-77"/><use x="61.538452" width="100%" height="100%" xlink:href="#FiraCode-Regular-78"/><use x="123.0769" width="100%" height="100%" xlink:href="#FiraCode-Regular-73"/><use x="184.61536" width="100%" height="100%" xlink:href="#FiraCode-Regular-83"/><use x="246.15381" width="100%" height="100%" xlink:href="#FiraCode-Regular-84"/><use x="307.69226" width="100%" height="100%" xlink:href="#FiraCode-Regular-32"/><use x="369.23071" width="100%" height="100%" xlink:href="#FiraCode-Regular-65"/><use x="430.76917" width="100%" height="100%" xlink:href="#FiraCode-Regular-117"/><use x="492.30762" width="100%" height="100%" xlink:href="#FiraCode-Regular-116"/><use x="553.84607" width="100%" height="100%" xlink:href="#FiraCode-Regular-111"/><use x="615.38452" width="100%" height="100%" xlink:href="#FiraCode-Regular-101"/><use x="676.92297" width="100%" height="100%" xlink:href="#FiraCode-Regular-110"/><use x="738.46143" width="100%" height="100%" xlink:href="#FiraCode-Regular-99"/><use x="799.99988" width="100%" height="100%" xlink:href="#FiraCode-Regular-111"/><use x="861.53833" width="100%" height="100%" xlink:href="#FiraCode-Regular-100"/><use x="923.07678" width="100%" height="100%" xlink:href="#FiraCode-Regular-101"/><use x="984.61523" width="100%" height="100%" xlink:href="#FiraCode-Regular-114"/><use x="1046.1537" width="100%" height="100%" xlink:href="#FiraCode-Regular-32"/><use x="1107.6921" width="100%" height="100%" xlink:href="#FiraCode-Regular-45"/><use x="1169.2306" width="100%" height="100%" xlink:href="#FiraCode-Regular-32"/><use x="1230.769" width="100%" height="100%" xlink:href="#FiraCode-Regular-69"/><use x="1292.3075" width="100%" height="100%" xlink:href="#FiraCode-Regular-114"/><use x="1353.8459" width="100%" height="100%" xlink:href="#FiraCode-Regular-114"/><use x="1415.3844" width="100%" height="100%" xlink:href="#FiraCode-Regular-111"/><use x="1476.9229" width="100%" height="100%" xlink:href="#FiraCode-Regular-114"/><use x="1538.4613" width="100%" height="100%" xlink:href="#FiraCode-Regular-32"/><use x="1599.9998" width="100%" height="100%" xlink:href="#FiraCode-Regular-112"/><use x="1661.5382" width="100%" height="100%" xlink:href="#FiraCode-Regular-101"/><use x="1723.0767" width="100%" height="100%" xlink:href="#FiraCode-Regular-114"/><use x="1784.6151" width="100%" height="100%" xlink:href="#FiraCode-Regular-32"/><use x="1846.1536" width="100%" height="100%" xlink:href="#FiraCode-Regular-69"/><use x="1907.692" width="100%" height="100%" xlink:href="#FiraCode-Regular-112"/><use x="1969.2305" width="100%" height="100%" xlink:href="#FiraCode-Regular-111"/><use x="2030.7689" width="100%" height="100%" xlink:href="#FiraCode-Regular-99"/><use x="2092.3074" width="100%" height="100%" xlink:href="#FiraCode-Regular-104"/></g><path d="m287.77 88.125h105.86q2 0 2-2v-43.325q0-2-2-2h-105.86q-2 0-2 2v43.325q0 2 2 2z" fill="#fff" opacity=".8" stroke="#ccc" stroke-linejoin="miter"/><path d="m289.77 48.875h20" fill="none" stroke="#2196f3" stroke-linecap="square" stroke-linejoin="round" stroke-width="1.5"/><g stroke-linejoin="round"><use x="299.77231" y="48.875" width="100%" height="100%" fill="#2196f3" stroke="#2196f3" stroke-linejoin="round" xlink:href="#ma5f3463221"/></g><g transform="matrix(.1 0 0 -.1 317.77 52.375)" fill="#263238" stroke-linejoin="round"><use width="100%" height="100%" xlink:href="#FiraCode-Regular-78"/><use x="61.538452" width="100%" height="100%" xlink:href="#FiraCode-Regular-110"/><use x="123.0769" width="100%" height="100%" xlink:href="#FiraCode-Regular-101"/><use x="184.61536" width="100%" height="100%" xlink:href="#FiraCode-Regular-116"/><use x="246.15381" width="100%" height="100%" xlink:href="#FiraCode-Regular-32"/><use x="307.69226" width="100%" height="100%" xlink:href="#FiraCode-Regular-76"/><use x="369.23071" width="100%" height="100%" xlink:href="#FiraCode-Regular-111"/><use x="430.76917" width="100%" height="100%" xlink:href="#FiraCode-Regular-115"/><use x="492.30762" width="100%" height="100%" xlink:href="#FiraCode-Regular-115"/></g><path d="m289.77 63.625h20" fill="none" stroke="#e91e63" stroke-linecap="square" stroke-linejoin="round" stroke-width="1.5"/><g stroke-linejoin="round"><use x="299.77231" y="63.625" width="100%" height="100%" fill="#e91e63" stroke="#e91e63" stroke-linejoin="round" xlink:href="#mceb7c2ed40"/></g><g transform="matrix(.1 0 0 -.1 317.77 67.125)" fill="#263238" stroke-linejoin="round"><use width="100%" height="100%" xlink:href="#FiraCode-Regular-78"/><use x="61.538452" width="100%" height="100%" xlink:href="#FiraCode-Regular-110"/><use x="123.0769" width="100%" height="100%" xlink:href="#FiraCode-Regular-101"/><use x="184.61536" width="100%" height="100%" xlink:href="#FiraCode-Regular-116"/><use x="246.15381" width="100%" height="100%" xlink:href="#FiraCode-Regular-42"/><use x="307.69226" width="100%" height="100%" xlink:href="#FiraCode-Regular-32"/><use x="369.23071" width="100%" height="100%" xlink:href="#FiraCode-Regular-76"/><use x="430.76917" width="100%" height="100%" xlink:href="#FiraCode-Regular-111"/><use x="492.30762" width="100%" height="100%" xlink:href="#FiraCode-Regular-115"/><use x="553.84607" width="100%" height="100%" xlink:href="#FiraCode-Regular-115"/></g><path d="m289.77 78.45h20" fill="none" stroke="#ffc107" stroke-linecap="square" stroke-linejoin="round" stroke-width="1.5"/><g stroke-linejoin="round"><use x="299.77231" y="78.449997" width="100%" height="100%" fill="#ffc107" stroke="#ffc107" stroke-linejoin="round" xlink:href="#m4102c4d2c6"/></g><g transform="matrix(.1 0 0 -.1 317.77 81.95)" fill="#263238" stroke-linejoin="round"><use width="100%" height="100%" xlink:href="#FiraCode-Regular-80"/><use x="61.538452" width="100%" height="100%" xlink:href="#FiraCode-Regular-121"/><use x="123.0769" width="100%" height="100%" xlink:href="#FiraCode-Regular-84"/><use x="184.61536" width="100%" height="100%" xlink:href="#FiraCode-Regular-111"/><use x="246.15381" width="100%" height="100%" xlink:href="#FiraCode-Regular-114"/><use x="307.69226" width="100%" height="100%" xlink:href="#FiraCode-Regular-99"/><use x="369.23071" width="100%" height="100%" xlink:href="#FiraCode-Regular-104"/><use x="430.76917" width="100%" height="100%" xlink:href="#FiraCode-Regular-32"/><use x="492.30762" width="100%" height="100%" xlink:href="#FiraCode-Regular-76"/><use x="553.84607" width="100%" height="100%" xlink:href="#FiraCode-Regular-111"/><use x="615.38452" width="100%" height="100%" xlink:href="#FiraCode-Regular-115"/><use x="676.92297" width="100%" height="100%" xlink:href="#FiraCode-Regular-115"/></g></g></svg>
