<?xml version="1.0" encoding="UTF-8"?>
<svg width="1280" height="400" version="1.1" viewBox="0 0 960 300" xmlns="http://www.w3.org/2000/svg" xmlns:xlink="http://www.w3.org/1999/xlink"><defs stroke-linejoin="round"><style type="text/css">*{stroke-linecap:butt;stroke-linejoin:round;}</style><style type="text/css">*{stroke-linecap:butt;stroke-linejoin:round;}</style><style type="text/css">*{stroke-linecap:butt;stroke-linejoin:round;}</style><style type="text/css">*{stroke-linecap:butt;stroke-linejoin:round;}</style><style type="text/css">*{stroke-linecap:butt;stroke-linejoin:round;}</style><style type="text/css">*{stroke-linecap:butt;stroke-linejoin:round;}</style><path id="mc22e19f1a4" d="m0 0v3.5" stroke="#263238" stroke-linejoin="round" stroke-width=".8"/><path id="FiraCode-Regular-50-5" d="m27.641 71.75c-9.5312 0-16-3.2812-21.594-10.109l5.9531-4.6094c4.4688 5.2812 8.25 7.5312 15.234 7.5312 7.8906 0 12.609-4.875 12.609-12.812 0-11.5-5.7344-19.188-32.359-44.719v-7.0312h42l1.0781 7.3281h-33.281c23.281 21.234 31.641 31.75 31.641 44.719 0 11.234-7.9531 19.703-21.281 19.703z" stroke-linejoin="round"/><path id="FiraCode-Regular-52-20" d="m54.203 24.047h-9.125v20.062h-7.1875l-1.0625-20.062h-20.312l18.766 44.672-7.1719 3.0312-20.719-48.312v-6.2656h29.328l0.046875-17.172h8.3125v17.172h9.125z" stroke-linejoin="round"/><path id="FiraCode-Regular-54-2" d="m33.797 46c-6.9219 0-12.516-2.8281-17.031-9.5312 0.42188 17.219 6.625 28.297 17.484 28.297 3.8594 0 7.5469-1.0156 10.719-2.9688l3.3906 5.8438c-4 2.6719-8.5156 4.1094-13.953 4.1094-16.516 0-26.25-14.984-26.25-38.359 0-21.031 6.25-34.562 23.438-34.562 12.25 0 22.203 9.3281 22.203 24.922 0 15.078-9.125 22.25-20 22.25zm-2.25-40.203c-10.062 0-14.312 7.1719-14.672 23.125 3.5312 5.9531 8.8125 10 15.594 10 7.4844 0 12.5-3.7969 12.5-15.391 0-10.969-4.5-17.734-13.422-17.734z" stroke-linejoin="round"/><path id="FiraCode-Regular-56-9" d="m51.953 53.797c0 12.516-10.922 17.953-21.188 17.953-9.2812 0-21.172-5.5-21.172-18.422 0-7.8906 3.7969-12.562 11.281-16.156-8.5625-3.9375-14.156-9.7344-14.156-18.406 0-11.234 8.7188-19.938 23.844-19.938 14.922 0 24.266 8.5625 24.266 20.094 0 8.7188-5.9531 15.188-15.141 18.969 7.8594 4.3125 12.266 9.0312 12.266 15.906zm-33.844-0.5625c0 7.4844 4.6562 11.844 12.656 11.844 8.0625 0 12.672-4.5156 12.672-11.594 0-6.4531-3.2812-9.7344-9.8438-13.438-9.5938 3.0781-15.484 5.0312-15.484 13.188zm27.641-34.406c0-7.4375-5.3906-13.031-15.234-13.031-9.75 0-14.719 4.9219-14.719 12.922 0 8.9219 5.1719 13.328 11.031 16 11.125-3.8438 18.922-6.4062 18.922-15.891z" stroke-linejoin="round"/><path id="FiraCode-Regular-49-0" d="m38.312 7.0312v63.578h-7.5469l-21.016-13.016 3.7344-6.1562 16.203 9.8438v-54.25h-17.375v-7.0312h40.766v7.0312z" stroke-linejoin="round"/><path id="FiraCode-Regular-48-99" d="m30.766 71.75c-15.172 0-23.125-13.031-23.125-36.422 0-23.484 7.9531-36.5 23.125-36.5 15.188 0 23.125 13.016 23.125 36.5 0 23.391-7.9375 36.422-23.125 36.422zm0-6.9219c4.0625 0 7.1875-1.3906 9.3906-4.5781l-21.594-43.375c-1.2344 4.5625-1.7969 10.609-1.7969 18.453 0 20.922 5.3438 29.5 14 29.5zm0-59.031c-4 0-7.0156 1.375-9.2812 4.5156l21.484 43.578c1.2812-4.5625 1.8594-10.656 1.8594-18.562 0-20.922-5.2812-29.531-14.062-29.531z" stroke-linejoin="round"/><path id="FiraCode-Regular-201-4" d="m41.391 92.922-20.312-10.812 2.3125-4.625 21.891 8.0469zm-19.594-29.594h30.156l1.0156 7.2812h-40.094v-70.609h41.016v7.125h-32.094v25.078h26.156v7.3281h-26.156z" stroke-linejoin="round"/><path id="FiraCode-Regular-112-5" d="m34.469 55.125c-6.5156 0-12.156-3.125-16.109-8.6562l-0.71875 7.5312h-7.3281v-75.75l8.6094 1.0781v25.75c3.5938-4.2031 8.3594-6.25 14.266-6.25 14.047 0 20.812 11.844 20.812 28.203 0 16.922-5.125 28.094-19.531 28.094zm-2.0625-6.9219c8.4688 0 12.359-7.0312 12.359-21.125 0-14.406-4.5156-21.078-13.484-21.078-5.125 0-9.5312 2.5625-12.359 6.7656v26.766c2.9219 4.3594 7.4844 8.6719 13.484 8.6719z" stroke-linejoin="round"/><path id="FiraCode-Regular-111-10" d="m30.875 55.125c-15.234 0-23.328-11.531-23.328-28.203 0-16.969 8-28.094 23.219-28.094 15.125 0 23.234 11.688 23.234 28.203 0 17.125-7.8906 28.094-23.125 28.094zm0-7.0156c9.1719 0 13.891-6.7188 13.891-21.078s-4.7188-21.141-14-21.141-14 6.7812-14 21.031c0 14.469 4.8281 21.188 14.109 21.188z" stroke-linejoin="round"/><path id="FiraCode-Regular-99-3" d="m34.719 6.25c-9.2812 0-16 6.1094-16 20.516 0 14.266 6.6719 21.188 16 21.188 4.7188 0 9.3281-1.6406 13.953-4.8281l4.2031 5.75c-5.125 4.1562-11.125 6.25-18.047 6.25-16.219 0-25.438-12.156-25.438-28.359 0-16.922 9.1719-27.938 25.328-27.938 6.3594 0 13.531 2.5 18.25 6.5l-4.2031 5.6406c-4-2.7656-8.6094-4.7188-14.047-4.7188z" stroke-linejoin="round"/><path id="FiraCode-Regular-97-7" d="m48.969 11.797v25.891c0 10.672-6.7656 17.438-20.203 17.438-5.2188 0-11.078-0.92188-17.641-3.375l2.2656-6.5156c5.5781 1.9375 10.453 2.7656 14.047 2.7656 8.0469 0 12.875-2.9219 12.875-10.719v-4.5156h-7.9531c-16.406 0-25.328-6.1562-25.328-17.281 0-10.047 6.6094-16.656 17.438-16.656 6.9688 0 13.078 2.5625 16.922 7.5781 1.5312-4.8125 5.2188-6.9688 9.8906-7.5781l2.1094 6.0469c-3.0312 0.92188-4.4219 2.5625-4.4219 6.9219zm-22.297-6.4062c-7.0312 0-10.422 3.4844-10.422 10.203 0 6.9219 4.3594 11.328 16.266 11.328h7.7969v-13.891c-3.2344-4.8281-8.3125-7.6406-13.641-7.6406z" stroke-linejoin="round"/><path id="m521b10cc98" d="m0 0h-3.5" stroke="#263238" stroke-linejoin="round" stroke-width=".8"/><path id="FiraCode-Regular-65-8" d="m44.469 18 5.6406-18h9.3281l-22.969 70.609h-11.391l-22.969-70.609h8.7656l5.6406 18zm-25.641 7.3906 11.734 37.734 11.594-37.734z" stroke-linejoin="round"/><path id="FiraCode-Regular-105-8" d="m30.766 79.281c-3.6406 0-6.2031-2.6094-6.2031-6 0-3.4844 2.5625-6.1562 6.2031-6.1562 3.8438 0 6.3125 2.6719 6.3125 6.1562 0 3.3906-2.4688 6-6.3125 6zm6.875-25.281h-24.766v-6.8281h16.156v-40.344h-16.672v-6.8281h40.516v6.8281h-15.234z" stroke-linejoin="round"/><path id="FiraCode-Regular-101-60" d="m17.078 23.953h36.312c0.09375 1.1719 0.20312 2.875 0.20312 4.7188 0 16.406-8.3125 26.453-21.953 26.453-14.359 0-23.594-11.844-23.594-28.203 0-16.766 8.9219-28.094 24.719-28.094 6.7188 0 13.547 2.4062 18.562 6.3438l-4.0469 5.7031c-4.7656-3.2344-8.9219-4.875-14.406-4.875-8.3594 0-15.328 5.4375-15.797 17.953zm14.672 24.094c8.0938 0 13.328-5.8906 13.531-17.438h-28.156c0.71875 11.906 6.5625 17.438 14.625 17.438z" stroke-linejoin="round"/><path id="FiraCode-Regular-114-4" d="m46.766 55.172c-9.7969 0-15.219-5.0625-19.375-13.938l-1.5938 12.766h-14.969v-6.6094h8.4062v-40.781h-8.4062v-6.6094h28v6.6094h-10.984v22.875c3.5938 11.906 9.4375 17.75 17.797 17.75h0.46875v-11.484h7.0781l1.2188 18.25c-2.4531 0.71875-4.6094 1.1719-7.6406 1.1719z" stroke-linejoin="round"/><path id="FiraCode-Regular-116-6" d="m53.188 2.7188-3.3438 5.8438c-2.9219-1.5312-6.2969-2.5625-10.359-2.5625-7.375 0-10.297 3.2344-10.297 9.2344v32.094h17.641l1.0156 6.6719h-18.656v13.281l-8.625-1.0312v-12.25h-12.406v-6.6719h12.406v-32.203c0-9.5312 6.5625-16.297 18.156-16.297 5.0312 0 10.766 1.4844 14.469 3.8906z" stroke-linejoin="round"/><path id="FiraCode-Regular-115-7" d="m28.672 5.9531c-6.3594 0-12 2.2969-16.203 5.8438l-4.9219-5.6875c4.6094-4 11.375-7.2812 21.125-7.2812 11.531 0 22.766 4.5625 22.766 16.094 0 10.109-6.9688 13.797-17.547 16.672-10.922 2.9688-14.344 4.6562-14.344 9.4844 0 4.1562 3.1719 7.0781 11.688 7.0781 6.9688 0 11.641-2.0469 15.688-4.8281l3.7969 5.8438c-4.5156 3.3438-10.922 5.9531-19.594 5.9531-12.203 0-20.516-5.6406-20.516-14.719 0-9.375 7.1875-12.766 18.422-15.531 11.438-2.875 13.078-5.4844 13.078-10.359 0-5.2344-5.1406-8.5625-13.438-8.5625z" stroke-linejoin="round"/><path id="FiraCode-Regular-40-9" d="m21.797 35.891c0 21.5 7.1719 32.422 21.953 45.547l-4.5156 4.7188c-16.672-13.594-26.469-26.875-26.469-50.266 0-23.375 9.7969-36.656 26.469-50.25l4.5156 4.7188c-14.672 12.969-21.953 24.156-21.953 45.531z" stroke-linejoin="round"/><path id="FiraCode-Regular-37-7" d="m51.75 72.516-48.422-70.984 5.3906-3.5781 48.562 70.969zm-34.719-0.76562c-9.5938 0-15.141-7.5469-15.141-16.422 0-8.7188 5.5469-16.562 15.141-16.562 9.5781 0 15.016 7.8438 15.016 16.562 0 8.8281-5.4375 16.422-15.016 16.422zm0-6.1562c4.0469 0 7.125-2.875 7.125-10.266 0-7.3281-3.0781-10.5-7.125-10.5-4.2031 0-7.2344 3.8438-7.2344 10.5 0 6.9844 3.1719 10.266 7.2344 10.266zm27.688-33.188c-9.5938 0-15.125-7.5781-15.125-16.453 0-8.7188 5.5312-16.562 15.125-16.562s15.031 7.8438 15.031 16.562c0 8.8125-5.4375 16.453-15.031 16.453zm0-6.2031c4.0469 0 7.125-2.875 7.125-10.25 0-7.2812-3.0781-10.516-7.125-10.516-4.2031 0-7.2344 3.8438-7.2344 10.516 0 7.1719 3.1875 10.25 7.2344 10.25z" stroke-linejoin="round"/><path id="FiraCode-Regular-41-5" d="m39.75 35.891c0-21.375-7.2812-32.562-21.953-45.531l4.5156-4.7188c16.656 13.594 26.453 26.875 26.453 50.25 0 23.391-9.7969 36.672-26.453 50.266l-4.5156-4.7188c14.766-13.125 21.953-24.047 21.953-45.547z" stroke-linejoin="round"/><path id="md24da44ec5" d="m0 1.5c0.3978 0 0.77937-0.15805 1.0607-0.43934 0.28129-0.28129 0.43934-0.66286 0.43934-1.0607s-0.15805-0.77937-0.43934-1.0607c-0.28129-0.28129-0.66286-0.43934-1.0607-0.43934s-0.77937 0.15805-1.0607 0.43934c-0.28129 0.28129-0.43934 0.66286-0.43934 1.0607s0.15805 0.77937 0.43934 1.0607c0.28129 0.28129 0.66286 0.43934 1.0607 0.43934z" stroke="#2196f3" stroke-linejoin="round"/><path id="m750397dc0b" d="m0 1.5c0.3978 0 0.77937-0.15805 1.0607-0.43934 0.28129-0.28129 0.43934-0.66286 0.43934-1.0607s-0.15805-0.77937-0.43934-1.0607c-0.28129-0.28129-0.66286-0.43934-1.0607-0.43934s-0.77937 0.15805-1.0607 0.43934c-0.28129 0.28129-0.43934 0.66286-0.43934 1.0607s0.15805 0.77937 0.43934 1.0607c0.28129 0.28129 0.66286 0.43934 1.0607 0.43934z" stroke="#e91e63" stroke-linejoin="round"/><path id="m02233f6a3f" d="m0 1.5c0.3978 0 0.77937-0.15805 1.0607-0.43934 0.28129-0.28129 0.43934-0.66286 0.43934-1.0607s-0.15805-0.77937-0.43934-1.0607c-0.28129-0.28129-0.66286-0.43934-1.0607-0.43934s-0.77937 0.15805-1.0607 0.43934c-0.28129 0.28129-0.43934 0.66286-0.43934 1.0607s0.15805 0.77937 0.43934 1.0607c0.28129 0.28129 0.66286 0.43934 1.0607 0.43934z" stroke="#ffc107" stroke-linejoin="round"/><path id="FiraCode-Regular-67-9" d="m36.719 71.75c-16.359 0-30.203-12.625-30.203-36.422 0-23.688 13.328-36.5 30.562-36.5 10.047 0 16.812 3.4844 21.125 7.6875l-4.6094 5.8438c-3.75-3.0781-8.5156-5.8906-16.406-5.8906-12 0-21.438 7.8438-21.438 28.859 0 21.594 10.047 28.984 21.641 28.984 5.375 0 10.359-1.4844 14.812-5.2344l4.9844 5.7969c-5.5938 4.5156-11.234 6.875-20.469 6.875z" stroke-linejoin="round"/><path id="FiraCode-Regular-108-7" d="m31.328 75.75h-25.172v-6.8281h16.562v-55.125c0-9.3906 6.5156-14.969 16.109-14.969 5.4219 0 9.8906 1.3281 12.812 2.7656l-2.3125 6.2969c-2.9219-1.1719-5.8438-1.8906-9.0781-1.8906-5.2188 0-8.9219 2-8.9219 7.3281z" stroke-linejoin="round"/><path id="FiraCode-Regular-102-8" d="m42.203 76.828c-11.234 0-19.688-6.2656-19.688-16.266v-10.766h-12.875v-6.7656h12.875v-43.031h8.6094v43.031h17.391l0.92188 6.7656h-18.312v10.969c0 6.0625 3.7969 8.9844 11.344 8.9844 4.1406 0 8.1406-0.71875 11.578-2.2656l2.7812 6.4062c-4.2656 1.8594-8.8281 2.9375-14.625 2.9375z" stroke-linejoin="round"/><path id="FiraCode-Regular-100-5" d="m42.609 76.828v-28.062c-3.5781 4.2031-8.25 6.3594-14.453 6.3594-13.328 0-21.188-11.953-21.188-28.203 0-16.719 6.4688-28.094 20.578-28.094 5.9375 0 11.281 2.5625 15.328 8.2969l0.8125-7.125h7.5469v75.75zm-12.203-28.625c4.9844 0 9.2812-2.5625 12.203-6.9219v-26.969c-2.9219-4.4219-7.1719-8.5156-13.281-8.5156-8.4531 0-12.969 7.125-12.969 21.125 0 14.25 5.0312 21.281 14.047 21.281z" stroke-linejoin="round"/><path id="FiraCode-Regular-77-3" d="m54.406 70.609h-12.516l-10.922-48.359-11.422 48.359h-12.422l-4-70.609h8.3594l1.9062 36.969c0.40625 8.8281 0.25 21.547 0.09375 25.5l12.766-49.797h8.9375l11.891 49.797c-0.04687-4.0625 0-15.75 0.5625-25.594l2.2031-36.875h8.5625z" stroke-linejoin="round"/><path id="FiraCode-Regular-78-3" d="m40.516 0h12.453v70.609h-8.25v-35.328c0-12.719 1.0781-24.109 1.1719-27.031l-25.281 62.359h-12.047v-70.609h8.2656v35.391c0 10.922-1.0781 23.641-1.1875 26.719z" stroke-linejoin="round"/><path id="FiraCode-Regular-73-8" d="m50.969 70.609h-40.406v-7.125h15.688v-56.359h-15.688v-7.125h40.406v7.125h-15.688v56.359h15.688z" stroke-linejoin="round"/><path id="FiraCode-Regular-83-3" d="m55.031 19.531c0 13.547-9.6406 18.109-20.625 21.297-13.438 3.9375-17.797 6.9219-17.797 13.062 0 7.0312 6.4219 10.422 14.109 10.422 6 0 12-1.9531 17.031-6.4219l5.2188 5.7969c-5.8906 5.1875-12.812 8.0625-22.562 8.0625-13.484 0-22.859-7.5938-22.859-18.156 0-11.234 8.8125-16.312 22.766-20.422 12.156-3.5781 15.484-6.9688 15.484-13.781 0-8.875-7.8438-13.078-16.406-13.078-8.625 0-14.781 2.8594-19.641 7.4844l-5.2812-5.9531c5.9375-5.7344 14.453-9.0156 24.766-9.0156 16.406 0 25.797 8.5625 25.797 20.703z" stroke-linejoin="round"/><path id="FiraCode-Regular-84-7" d="m35.031 62.969h21.438l0.92188 7.6406h-53.281v-7.6406h22.047v-62.969h8.875z" stroke-linejoin="round"/><path id="FiraCode-Regular-45-93" d="m10.203 28.359h41.125v7.4844h-41.125z" stroke-linejoin="round"/><path id="FiraCode-Regular-80-7" d="m57.125 48.922c0 14.828-10.406 21.688-27.234 21.688h-18.047v-70.609h8.9219v26.203h9.0312c15.953 0 27.328 6.2031 27.328 22.719zm-9.5312-0.09375c0-12.109-7.125-15.438-16.984-15.438h-9.8438v30.141h10.203c9.5938 0 16.625-3.7812 16.625-14.703z" stroke-linejoin="round"/><path id="FiraCode-Regular-243" d="m39.328 81.75-20.094-11.5 2.6562-4.6094 21.438 8.7188zm-8.4531-26.625c-15.234 0-23.328-11.531-23.328-28.203 0-16.969 8-28.094 23.219-28.094 15.125 0 23.234 11.688 23.234 28.203 0 17.125-7.8906 28.094-23.125 28.094zm0-7.0156c9.1719 0 13.891-6.7188 13.891-21.078s-4.7188-21.141-14-21.141-14 6.7812-14 21.031c0 14.469 4.8281 21.188 14.109 21.188z" stroke-linejoin="round"/><path id="FiraCode-Regular-110-8" d="m10.312 0h8.6094v39.328c2.8281 4.2031 8.2031 9.0312 14.562 9.0312 8.1562 0 9.2344-4.4688 9.2344-15.484v-32.875h8.6094v39.234c0 9.9375-4.5625 15.891-15.172 15.891-6.2656 0-13.438-3.0781-17.844-8.6094l-0.67188 7.4844h-7.3281z" stroke-linejoin="round"/><path id="FiraCode-Regular-42-7" d="m26.406 59.328h8.7188l-0.65625-20.766 19.484 6.9219 2.6094-8.0938-19.844-5.8594 12.672-16.406-6.875-5.0156-11.75 17.125-11.734-17.125-6.875 5.0156 12.672 16.406-19.859 5.8594 2.625 8.0938 19.484-6.9219z" stroke-linejoin="round"/><path id="FiraCode-Regular-121-41" d="m55.234 54h-8.9219l-15.281-47.438-15.484 47.438h-9.2344l18.875-54h2.8594c-2.8594-8.3594-6.0469-12.922-17.219-14.828l1.3281-6.8594c14.312 1.4375 20.312 10.359 24.094 21.328z" stroke-linejoin="round"/><path id="FiraCode-Regular-104-90" d="m18.922 76.562-8.6094-0.92188v-75.641h8.6094v39.328c2.8281 4.2656 8.3125 9.0312 14.469 9.0312 6.4062 0 9.3281-2.875 9.3281-9.3281v-39.031h8.6094v39.234c0 9.9375-4.6094 15.891-15.172 15.891-6.3594 0-12.969-2.875-17.234-8.5156z" stroke-linejoin="round"/><clipPath id="p97a77fce17" stroke-linejoin="round"><rect x="48.722" y="37.749" width="351.91" height="170.86" stroke-linejoin="round"/></clipPath><style type="text/css">*{stroke-linecap:butt;stroke-linejoin:round;}</style><path id="mb4d1b03cf2" d="m0 0v3.5" stroke="#263238" stroke-linejoin="round" stroke-width=".8"/><path id="FiraCode-Regular-50-3" d="m27.641 71.75c-9.5312 0-16-3.2812-21.594-10.109l5.9531-4.6094c4.4688 5.2812 8.25 7.5312 15.234 7.5312 7.8906 0 12.609-4.875 12.609-12.812 0-11.5-5.7344-19.188-32.359-44.719v-7.0312h42l1.0781 7.3281h-33.281c23.281 21.234 31.641 31.75 31.641 44.719 0 11.234-7.9531 19.703-21.281 19.703z" stroke-linejoin="round"/><path id="FiraCode-Regular-52-9" d="m54.203 24.047h-9.125v20.062h-7.1875l-1.0625-20.062h-20.312l18.766 44.672-7.1719 3.0312-20.719-48.312v-6.2656h29.328l0.046875-17.172h8.3125v17.172h9.125z" stroke-linejoin="round"/><path id="FiraCode-Regular-54-3" d="m33.797 46c-6.9219 0-12.516-2.8281-17.031-9.5312 0.42188 17.219 6.625 28.297 17.484 28.297 3.8594 0 7.5469-1.0156 10.719-2.9688l3.3906 5.8438c-4 2.6719-8.5156 4.1094-13.953 4.1094-16.516 0-26.25-14.984-26.25-38.359 0-21.031 6.25-34.562 23.438-34.562 12.25 0 22.203 9.3281 22.203 24.922 0 15.078-9.125 22.25-20 22.25zm-2.25-40.203c-10.062 0-14.312 7.1719-14.672 23.125 3.5312 5.9531 8.8125 10 15.594 10 7.4844 0 12.5-3.7969 12.5-15.391 0-10.969-4.5-17.734-13.422-17.734z" stroke-linejoin="round"/><path id="FiraCode-Regular-56-02" d="m51.953 53.797c0 12.516-10.922 17.953-21.188 17.953-9.2812 0-21.172-5.5-21.172-18.422 0-7.8906 3.7969-12.562 11.281-16.156-8.5625-3.9375-14.156-9.7344-14.156-18.406 0-11.234 8.7188-19.938 23.844-19.938 14.922 0 24.266 8.5625 24.266 20.094 0 8.7188-5.9531 15.188-15.141 18.969 7.8594 4.3125 12.266 9.0312 12.266 15.906zm-33.844-0.5625c0 7.4844 4.6562 11.844 12.656 11.844 8.0625 0 12.672-4.5156 12.672-11.594 0-6.4531-3.2812-9.7344-9.8438-13.438-9.5938 3.0781-15.484 5.0312-15.484 13.188zm27.641-34.406c0-7.4375-5.3906-13.031-15.234-13.031-9.75 0-14.719 4.9219-14.719 12.922 0 8.9219 5.1719 13.328 11.031 16 11.125-3.8438 18.922-6.4062 18.922-15.891z" stroke-linejoin="round"/><path id="FiraCode-Regular-49-7" d="m38.312 7.0312v63.578h-7.5469l-21.016-13.016 3.7344-6.1562 16.203 9.8438v-54.25h-17.375v-7.0312h40.766v7.0312z" stroke-linejoin="round"/><path id="FiraCode-Regular-48-41" d="m30.766 71.75c-15.172 0-23.125-13.031-23.125-36.422 0-23.484 7.9531-36.5 23.125-36.5 15.188 0 23.125 13.016 23.125 36.5 0 23.391-7.9375 36.422-23.125 36.422zm0-6.9219c4.0625 0 7.1875-1.3906 9.3906-4.5781l-21.594-43.375c-1.2344 4.5625-1.7969 10.609-1.7969 18.453 0 20.922 5.3438 29.5 14 29.5zm0-59.031c-4 0-7.0156 1.375-9.2812 4.5156l21.484 43.578c1.2812-4.5625 1.8594-10.656 1.8594-18.562 0-20.922-5.2812-29.531-14.062-29.531z" stroke-linejoin="round"/><path id="FiraCode-Regular-201-2" d="m41.391 92.922-20.312-10.812 2.3125-4.625 21.891 8.0469zm-19.594-29.594h30.156l1.0156 7.2812h-40.094v-70.609h41.016v7.125h-32.094v25.078h26.156v7.3281h-26.156z" stroke-linejoin="round"/><path id="FiraCode-Regular-112-1" d="m34.469 55.125c-6.5156 0-12.156-3.125-16.109-8.6562l-0.71875 7.5312h-7.3281v-75.75l8.6094 1.0781v25.75c3.5938-4.2031 8.3594-6.25 14.266-6.25 14.047 0 20.812 11.844 20.812 28.203 0 16.922-5.125 28.094-19.531 28.094zm-2.0625-6.9219c8.4688 0 12.359-7.0312 12.359-21.125 0-14.406-4.5156-21.078-13.484-21.078-5.125 0-9.5312 2.5625-12.359 6.7656v26.766c2.9219 4.3594 7.4844 8.6719 13.484 8.6719z" stroke-linejoin="round"/><path id="FiraCode-Regular-111-9" d="m30.875 55.125c-15.234 0-23.328-11.531-23.328-28.203 0-16.969 8-28.094 23.219-28.094 15.125 0 23.234 11.688 23.234 28.203 0 17.125-7.8906 28.094-23.125 28.094zm0-7.0156c9.1719 0 13.891-6.7188 13.891-21.078s-4.7188-21.141-14-21.141-14 6.7812-14 21.031c0 14.469 4.8281 21.188 14.109 21.188z" stroke-linejoin="round"/><path id="FiraCode-Regular-99-6" d="m34.719 6.25c-9.2812 0-16 6.1094-16 20.516 0 14.266 6.6719 21.188 16 21.188 4.7188 0 9.3281-1.6406 13.953-4.8281l4.2031 5.75c-5.125 4.1562-11.125 6.25-18.047 6.25-16.219 0-25.438-12.156-25.438-28.359 0-16.922 9.1719-27.938 25.328-27.938 6.3594 0 13.531 2.5 18.25 6.5l-4.2031 5.6406c-4-2.7656-8.6094-4.7188-14.047-4.7188z" stroke-linejoin="round"/><path id="FiraCode-Regular-97-4" d="m48.969 11.797v25.891c0 10.672-6.7656 17.438-20.203 17.438-5.2188 0-11.078-0.92188-17.641-3.375l2.2656-6.5156c5.5781 1.9375 10.453 2.7656 14.047 2.7656 8.0469 0 12.875-2.9219 12.875-10.719v-4.5156h-7.9531c-16.406 0-25.328-6.1562-25.328-17.281 0-10.047 6.6094-16.656 17.438-16.656 6.9688 0 13.078 2.5625 16.922 7.5781 1.5312-4.8125 5.2188-6.9688 9.8906-7.5781l2.1094 6.0469c-3.0312 0.92188-4.4219 2.5625-4.4219 6.9219zm-22.297-6.4062c-7.0312 0-10.422 3.4844-10.422 10.203 0 6.9219 4.3594 11.328 16.266 11.328h7.7969v-13.891c-3.2344-4.8281-8.3125-7.6406-13.641-7.6406z" stroke-linejoin="round"/><path id="m7de3210754" d="m0 0h-3.5" stroke="#263238" stroke-linejoin="round" stroke-width=".8"/><path id="FiraCode-Regular-46-2" d="m21.688 7.8906c0-5.0625 3.9062-9.0625 8.9844-9.0625 5.1719 0 9.0781 4 9.0781 9.0625 0 4.9844-3.9062 8.9844-9.0781 8.9844-5.0781 0-8.9844-4-8.9844-8.9844z" stroke-linejoin="round"/><path id="FiraCode-Regular-69-1" d="m21.797 63.328h30.156l1.0156 7.2812h-40.094v-70.609h41.016v7.125h-32.094v25.078h26.156v7.3281h-26.156z" stroke-linejoin="round"/><path id="FiraCode-Regular-114-7" d="m46.766 55.172c-9.7969 0-15.219-5.0625-19.375-13.938l-1.5938 12.766h-14.969v-6.6094h8.4062v-40.781h-8.4062v-6.6094h28v6.6094h-10.984v22.875c3.5938 11.906 9.4375 17.75 17.797 17.75h0.46875v-11.484h7.0781l1.2188 18.25c-2.4531 0.71875-4.6094 1.1719-7.6406 1.1719z" stroke-linejoin="round"/><path id="m9807460871" d="m0 1.5c0.3978 0 0.77937-0.15805 1.0607-0.43934 0.28129-0.28129 0.43934-0.66286 0.43934-1.0607s-0.15805-0.77937-0.43934-1.0607c-0.28129-0.28129-0.66286-0.43934-1.0607-0.43934s-0.77937 0.15805-1.0607 0.43934c-0.28129 0.28129-0.43934 0.66286-0.43934 1.0607s0.15805 0.77937 0.43934 1.0607c0.28129 0.28129 0.66286 0.43934 1.0607 0.43934z" stroke="#2196f3" stroke-linejoin="round"/><path id="ma732fe865f" d="m0 1.5c0.3978 0 0.77937-0.15805 1.0607-0.43934 0.28129-0.28129 0.43934-0.66286 0.43934-1.0607s-0.15805-0.77937-0.43934-1.0607c-0.28129-0.28129-0.66286-0.43934-1.0607-0.43934s-0.77937 0.15805-1.0607 0.43934c-0.28129 0.28129-0.43934 0.66286-0.43934 1.0607s0.15805 0.77937 0.43934 1.0607c0.28129 0.28129 0.66286 0.43934 1.0607 0.43934z" stroke="#e91e63" stroke-linejoin="round"/><path id="mf26fdbae45" d="m0 1.5c0.3978 0 0.77937-0.15805 1.0607-0.43934 0.28129-0.28129 0.43934-0.66286 0.43934-1.0607s-0.15805-0.77937-0.43934-1.0607c-0.28129-0.28129-0.66286-0.43934-1.0607-0.43934s-0.77937 0.15805-1.0607 0.43934c-0.28129 0.28129-0.43934 0.66286-0.43934 1.0607s0.15805 0.77937 0.43934 1.0607c0.28129 0.28129 0.66286 0.43934 1.0607 0.43934z" stroke="#ffc107" stroke-linejoin="round"/><path id="FiraCode-Regular-67-94" d="m36.719 71.75c-16.359 0-30.203-12.625-30.203-36.422 0-23.688 13.328-36.5 30.562-36.5 10.047 0 16.812 3.4844 21.125 7.6875l-4.6094 5.8438c-3.75-3.0781-8.5156-5.8906-16.406-5.8906-12 0-21.438 7.8438-21.438 28.859 0 21.594 10.047 28.984 21.641 28.984 5.375 0 10.359-1.4844 14.812-5.2344l4.9844 5.7969c-5.5938 4.5156-11.234 6.875-20.469 6.875z" stroke-linejoin="round"/><path id="FiraCode-Regular-108-1" d="m31.328 75.75h-25.172v-6.8281h16.562v-55.125c0-9.3906 6.5156-14.969 16.109-14.969 5.4219 0 9.8906 1.3281 12.812 2.7656l-2.3125 6.2969c-2.9219-1.1719-5.8438-1.8906-9.0781-1.8906-5.2188 0-8.9219 2-8.9219 7.3281z" stroke-linejoin="round"/><path id="FiraCode-Regular-115-5" d="m28.672 5.9531c-6.3594 0-12 2.2969-16.203 5.8438l-4.9219-5.6875c4.6094-4 11.375-7.2812 21.125-7.2812 11.531 0 22.766 4.5625 22.766 16.094 0 10.109-6.9688 13.797-17.547 16.672-10.922 2.9688-14.344 4.6562-14.344 9.4844 0 4.1562 3.1719 7.0781 11.688 7.0781 6.9688 0 11.641-2.0469 15.688-4.8281l3.7969 5.8438c-4.5156 3.3438-10.922 5.9531-19.594 5.9531-12.203 0-20.516-5.6406-20.516-14.719 0-9.375 7.1875-12.766 18.422-15.531 11.438-2.875 13.078-5.4844 13.078-10.359 0-5.2344-5.1406-8.5625-13.438-8.5625z" stroke-linejoin="round"/><path id="FiraCode-Regular-105-4" d="m30.766 79.281c-3.6406 0-6.2031-2.6094-6.2031-6 0-3.4844 2.5625-6.1562 6.2031-6.1562 3.8438 0 6.3125 2.6719 6.3125 6.1562 0 3.3906-2.4688 6-6.3125 6zm6.875-25.281h-24.766v-6.8281h16.156v-40.344h-16.672v-6.8281h40.516v6.8281h-15.234z" stroke-linejoin="round"/><path id="FiraCode-Regular-102-1" d="m42.203 76.828c-11.234 0-19.688-6.2656-19.688-16.266v-10.766h-12.875v-6.7656h12.875v-43.031h8.6094v43.031h17.391l0.92188 6.7656h-18.312v10.969c0 6.0625 3.7969 8.9844 11.344 8.9844 4.1406 0 8.1406-0.71875 11.578-2.2656l2.7812 6.4062c-4.2656 1.8594-8.8281 2.9375-14.625 2.9375z" stroke-linejoin="round"/><path id="FiraCode-Regular-100-55" d="m42.609 76.828v-28.062c-3.5781 4.2031-8.25 6.3594-14.453 6.3594-13.328 0-21.188-11.953-21.188-28.203 0-16.719 6.4688-28.094 20.578-28.094 5.9375 0 11.281 2.5625 15.328 8.2969l0.8125-7.125h7.5469v75.75zm-12.203-28.625c4.9844 0 9.2812-2.5625 12.203-6.9219v-26.969c-2.9219-4.4219-7.1719-8.5156-13.281-8.5156-8.4531 0-12.969 7.125-12.969 21.125 0 14.25 5.0312 21.281 14.047 21.281z" stroke-linejoin="round"/><path id="FiraCode-Regular-77-9" d="m54.406 70.609h-12.516l-10.922-48.359-11.422 48.359h-12.422l-4-70.609h8.3594l1.9062 36.969c0.40625 8.8281 0.25 21.547 0.09375 25.5l12.766-49.797h8.9375l11.891 49.797c-0.04687-4.0625 0-15.75 0.5625-25.594l2.2031-36.875h8.5625z" stroke-linejoin="round"/><path id="FiraCode-Regular-78-83" d="m40.516 0h12.453v70.609h-8.25v-35.328c0-12.719 1.0781-24.109 1.1719-27.031l-25.281 62.359h-12.047v-70.609h8.2656v35.391c0 10.922-1.0781 23.641-1.1875 26.719z" stroke-linejoin="round"/><path id="FiraCode-Regular-73-85" d="m50.969 70.609h-40.406v-7.125h15.688v-56.359h-15.688v-7.125h40.406v7.125h-15.688v56.359h15.688z" stroke-linejoin="round"/><path id="FiraCode-Regular-83-2" d="m55.031 19.531c0 13.547-9.6406 18.109-20.625 21.297-13.438 3.9375-17.797 6.9219-17.797 13.062 0 7.0312 6.4219 10.422 14.109 10.422 6 0 12-1.9531 17.031-6.4219l5.2188 5.7969c-5.8906 5.1875-12.812 8.0625-22.562 8.0625-13.484 0-22.859-7.5938-22.859-18.156 0-11.234 8.8125-16.312 22.766-20.422 12.156-3.5781 15.484-6.9688 15.484-13.781 0-8.875-7.8438-13.078-16.406-13.078-8.625 0-14.781 2.8594-19.641 7.4844l-5.2812-5.9531c5.9375-5.7344 14.453-9.0156 24.766-9.0156 16.406 0 25.797 8.5625 25.797 20.703z" stroke-linejoin="round"/><path id="FiraCode-Regular-84-2" d="m35.031 62.969h21.438l0.92188 7.6406h-53.281v-7.6406h22.047v-62.969h8.875z" stroke-linejoin="round"/><path id="FiraCode-Regular-45-2" d="m10.203 28.359h41.125v7.4844h-41.125z" stroke-linejoin="round"/><path id="FiraCode-Regular-110-3" d="m10.312 0h8.6094v39.328c2.8281 4.2031 8.2031 9.0312 14.562 9.0312 8.1562 0 9.2344-4.4688 9.2344-15.484v-32.875h8.6094v39.234c0 9.9375-4.5625 15.891-15.172 15.891-6.2656 0-13.438-3.0781-17.844-8.6094l-0.67188 7.4844h-7.3281z" stroke-linejoin="round"/><path id="FiraCode-Regular-101-63" d="m17.078 23.953h36.312c0.09375 1.1719 0.20312 2.875 0.20312 4.7188 0 16.406-8.3125 26.453-21.953 26.453-14.359 0-23.594-11.844-23.594-28.203 0-16.766 8.9219-28.094 24.719-28.094 6.7188 0 13.547 2.4062 18.562 6.3438l-4.0469 5.7031c-4.7656-3.2344-8.9219-4.875-14.406-4.875-8.3594 0-15.328 5.4375-15.797 17.953zm14.672 24.094c8.0938 0 13.328-5.8906 13.531-17.438h-28.156c0.71875 11.906 6.5625 17.438 14.625 17.438z" stroke-linejoin="round"/><path id="FiraCode-Regular-116-3" d="m53.188 2.7188-3.3438 5.8438c-2.9219-1.5312-6.2969-2.5625-10.359-2.5625-7.375 0-10.297 3.2344-10.297 9.2344v32.094h17.641l1.0156 6.6719h-18.656v13.281l-8.625-1.0312v-12.25h-12.406v-6.6719h12.406v-32.203c0-9.5312 6.5625-16.297 18.156-16.297 5.0312 0 10.766 1.4844 14.469 3.8906z" stroke-linejoin="round"/><path id="FiraCode-Regular-42-9" d="m26.406 59.328h8.7188l-0.65625-20.766 19.484 6.9219 2.6094-8.0938-19.844-5.8594 12.672-16.406-6.875-5.0156-11.75 17.125-11.734-17.125-6.875 5.0156 12.672 16.406-19.859 5.8594 2.625 8.0938 19.484-6.9219z" stroke-linejoin="round"/><path id="FiraCode-Regular-80-89" d="m57.125 48.922c0 14.828-10.406 21.688-27.234 21.688h-18.047v-70.609h8.9219v26.203h9.0312c15.953 0 27.328 6.2031 27.328 22.719zm-9.5312-0.09375c0-12.109-7.125-15.438-16.984-15.438h-9.8438v30.141h10.203c9.5938 0 16.625-3.7812 16.625-14.703z" stroke-linejoin="round"/><path id="FiraCode-Regular-121-0" d="m55.234 54h-8.9219l-15.281-47.438-15.484 47.438h-9.2344l18.875-54h2.8594c-2.8594-8.3594-6.0469-12.922-17.219-14.828l1.3281-6.8594c14.312 1.4375 20.312 10.359 24.094 21.328z" stroke-linejoin="round"/><path id="FiraCode-Regular-104-2" d="m18.922 76.562-8.6094-0.92188v-75.641h8.6094v39.328c2.8281 4.2656 8.3125 9.0312 14.469 9.0312 6.4062 0 9.3281-2.875 9.3281-9.3281v-39.031h8.6094v39.234c0 9.9375-4.6094 15.891-15.172 15.891-6.3594 0-12.969-2.875-17.234-8.5156z" stroke-linejoin="round"/><clipPath id="pf2559ec42a" stroke-linejoin="round"><rect x="61.067" y="37.749" width="339.56" height="170.86" stroke-linejoin="round"/></clipPath></defs><g transform="translate(167.71 -420.84)" stroke-linejoin="round"><g transform="matrix(1.1667 0 0 1.1667 312.29 420.84)"><path d="m0 257.14h411.43v-257.14h-411.43z" fill="#fff" stroke-linejoin="round"/><path d="m48.722 208.61h351.91v-170.86h-351.91z" fill="#fff" stroke-linejoin="round"/><path d="m86.045 208.61v-170.86" clip-path="url(#p97a77fce17)" fill="none" stroke="#263238" stroke-linecap="square" stroke-linejoin="round" stroke-width=".125"/><g stroke-linejoin="round"><use x="86.045311" y="208.61183" width="100%" height="100%" fill="#263238" stroke="#263238" stroke-linejoin="round" stroke-width=".8" xlink:href="#mc22e19f1a4"/></g><g transform="matrix(.1 0 0 -.1 82.968 223.19)" fill="#263238" stroke-linejoin="round"><use width="100%" height="100%" stroke-linejoin="round" xlink:href="#FiraCode-Regular-50-5"/></g><path d="m128.7 208.61v-170.86" clip-path="url(#p97a77fce17)" fill="none" stroke="#263238" stroke-linecap="square" stroke-linejoin="round" stroke-width=".125"/><g stroke-linejoin="round"><use x="128.70067" y="208.61183" width="100%" height="100%" fill="#263238" stroke="#263238" stroke-linejoin="round" stroke-width=".8" xlink:href="#mc22e19f1a4"/></g><g transform="matrix(.1 0 0 -.1 125.62 223.19)" fill="#263238" stroke-linejoin="round"><use width="100%" height="100%" stroke-linejoin="round" xlink:href="#FiraCode-Regular-52-20"/></g><path d="m171.36 208.61v-170.86" clip-path="url(#p97a77fce17)" fill="none" stroke="#263238" stroke-linecap="square" stroke-linejoin="round" stroke-width=".125"/><g stroke-linejoin="round"><use x="171.35603" y="208.61183" width="100%" height="100%" fill="#263238" stroke="#263238" stroke-linejoin="round" stroke-width=".8" xlink:href="#mc22e19f1a4"/></g><g transform="matrix(.1 0 0 -.1 168.28 223.19)" fill="#263238" stroke-linejoin="round"><use width="100%" height="100%" stroke-linejoin="round" xlink:href="#FiraCode-Regular-54-2"/></g><path d="m214.01 208.61v-170.86" clip-path="url(#p97a77fce17)" fill="none" stroke="#263238" stroke-linecap="square" stroke-linejoin="round" stroke-width=".125"/><g stroke-linejoin="round"><use x="214.01138" y="208.61183" width="100%" height="100%" fill="#263238" stroke="#263238" stroke-linejoin="round" stroke-width=".8" xlink:href="#mc22e19f1a4"/></g><g transform="matrix(.1 0 0 -.1 210.93 223.19)" fill="#263238" stroke-linejoin="round"><use width="100%" height="100%" stroke-linejoin="round" xlink:href="#FiraCode-Regular-56-9"/></g><path d="m256.67 208.61v-170.86" clip-path="url(#p97a77fce17)" fill="none" stroke="#263238" stroke-linecap="square" stroke-linejoin="round" stroke-width=".125"/><g stroke-linejoin="round"><use x="256.66675" y="208.61183" width="100%" height="100%" fill="#263238" stroke="#263238" stroke-linejoin="round" stroke-width=".8" xlink:href="#mc22e19f1a4"/></g><g transform="matrix(.1 0 0 -.1 250.51 223.19)" fill="#263238" stroke-linejoin="round"><use width="100%" height="100%" xlink:href="#FiraCode-Regular-49-0"/><use x="61.538452" width="100%" height="100%" xlink:href="#FiraCode-Regular-48-99"/></g><path d="m299.32 208.61v-170.86" clip-path="url(#p97a77fce17)" fill="none" stroke="#263238" stroke-linecap="square" stroke-linejoin="round" stroke-width=".125"/><g stroke-linejoin="round"><use x="299.32211" y="208.61183" width="100%" height="100%" fill="#263238" stroke="#263238" stroke-linejoin="round" stroke-width=".8" xlink:href="#mc22e19f1a4"/></g><g transform="matrix(.1 0 0 -.1 293.17 223.19)" fill="#263238" stroke-linejoin="round"><use width="100%" height="100%" xlink:href="#FiraCode-Regular-49-0"/><use x="61.538452" width="100%" height="100%" xlink:href="#FiraCode-Regular-50-5"/></g><path d="m341.98 208.61v-170.86" clip-path="url(#p97a77fce17)" fill="none" stroke="#263238" stroke-linecap="square" stroke-linejoin="round" stroke-width=".125"/><g stroke-linejoin="round"><use x="341.97745" y="208.61183" width="100%" height="100%" fill="#263238" stroke="#263238" stroke-linejoin="round" stroke-width=".8" xlink:href="#mc22e19f1a4"/></g><g transform="matrix(.1 0 0 -.1 335.82 223.19)" fill="#263238" stroke-linejoin="round"><use width="100%" height="100%" xlink:href="#FiraCode-Regular-49-0"/><use x="61.538452" width="100%" height="100%" xlink:href="#FiraCode-Regular-52-20"/></g><path d="m384.63 208.61v-170.86" clip-path="url(#p97a77fce17)" fill="none" stroke="#263238" stroke-linecap="square" stroke-linejoin="round" stroke-width=".125"/><g stroke-linejoin="round"><use x="384.63281" y="208.61183" width="100%" height="100%" fill="#263238" stroke="#263238" stroke-linejoin="round" stroke-width=".8" xlink:href="#mc22e19f1a4"/></g><g transform="matrix(.1 0 0 -.1 378.48 223.19)" fill="#263238" stroke-linejoin="round"><use width="100%" height="100%" xlink:href="#FiraCode-Regular-49-0"/><use x="61.538452" width="100%" height="100%" xlink:href="#FiraCode-Regular-54-2"/></g><g transform="matrix(.1 0 0 -.1 209.29 242.65)" fill="#263238" stroke-linejoin="round"><use width="100%" height="100%" xlink:href="#FiraCode-Regular-201-4"/><use x="61.538452" width="100%" height="100%" xlink:href="#FiraCode-Regular-112-5"/><use x="123.0769" width="100%" height="100%" xlink:href="#FiraCode-Regular-111-10"/><use x="184.61536" width="100%" height="100%" xlink:href="#FiraCode-Regular-99-3"/><use x="246.15381" width="100%" height="100%" xlink:href="#FiraCode-Regular-97-7"/></g><path d="m48.722 181.9h351.91" clip-path="url(#p97a77fce17)" fill="none" stroke="#263238" stroke-linecap="square" stroke-linejoin="round" stroke-width=".125"/><g stroke-linejoin="round"><use x="48.721874" y="181.90262" width="100%" height="100%" fill="#263238" stroke="#263238" stroke-linejoin="round" stroke-width=".8" xlink:href="#m521b10cc98"/></g><g transform="matrix(.1 0 0 -.1 29.412 185.69)" fill="#263238" stroke-linejoin="round"><use width="100%" height="100%" xlink:href="#FiraCode-Regular-50-5"/><use x="61.538452" width="100%" height="100%" xlink:href="#FiraCode-Regular-48-99"/></g><path d="m48.722 144.02h351.91" clip-path="url(#p97a77fce17)" fill="none" stroke="#263238" stroke-linecap="square" stroke-linejoin="round" stroke-width=".125"/><g stroke-linejoin="round"><use x="48.721874" y="144.01721" width="100%" height="100%" fill="#263238" stroke="#263238" stroke-linejoin="round" stroke-width=".8" xlink:href="#m521b10cc98"/></g><g transform="matrix(.1 0 0 -.1 29.412 147.8)" fill="#263238" stroke-linejoin="round"><use width="100%" height="100%" xlink:href="#FiraCode-Regular-52-20"/><use x="61.538452" width="100%" height="100%" xlink:href="#FiraCode-Regular-48-99"/></g><path d="m48.722 106.13h351.91" clip-path="url(#p97a77fce17)" fill="none" stroke="#263238" stroke-linecap="square" stroke-linejoin="round" stroke-width=".125"/><g stroke-linejoin="round"><use x="48.721874" y="106.13181" width="100%" height="100%" fill="#263238" stroke="#263238" stroke-linejoin="round" stroke-width=".8" xlink:href="#m521b10cc98"/></g><g transform="matrix(.1 0 0 -.1 29.412 109.92)" fill="#263238" stroke-linejoin="round"><use width="100%" height="100%" xlink:href="#FiraCode-Regular-54-2"/><use x="61.538452" width="100%" height="100%" xlink:href="#FiraCode-Regular-48-99"/></g><path d="m48.722 68.246h351.91" clip-path="url(#p97a77fce17)" fill="none" stroke="#263238" stroke-linecap="square" stroke-linejoin="round" stroke-width=".125"/><g stroke-linejoin="round"><use x="48.721874" y="68.246414" width="100%" height="100%" fill="#263238" stroke="#263238" stroke-linejoin="round" stroke-width=".8" xlink:href="#m521b10cc98"/></g><g transform="matrix(.1 0 0 -.1 29.412 72.034)" fill="#263238" stroke-linejoin="round"><use width="100%" height="100%" xlink:href="#FiraCode-Regular-56-9"/><use x="61.538452" width="100%" height="100%" xlink:href="#FiraCode-Regular-48-99"/></g><g transform="matrix(0 -.1 -.1 0 19.238 160.11)" fill="#263238" stroke-linejoin="round"><use width="100%" height="100%" xlink:href="#FiraCode-Regular-65-8"/><use x="61.538452" width="100%" height="100%" xlink:href="#FiraCode-Regular-99-3"/><use x="123.0769" width="100%" height="100%" xlink:href="#FiraCode-Regular-105-8"/><use x="184.61536" width="100%" height="100%" xlink:href="#FiraCode-Regular-101-60"/><use x="246.15381" width="100%" height="100%" xlink:href="#FiraCode-Regular-114-4"/><use x="307.69226" width="100%" height="100%" xlink:href="#FiraCode-Regular-116-6"/><use x="369.23071" width="100%" height="100%" xlink:href="#FiraCode-Regular-111-10"/><use x="430.76917" width="100%" height="100%" xlink:href="#FiraCode-Regular-115-7"/><use x="492.30762" width="100%" height="100%" xlink:href="#FiraCode-Regular-32-60"/><use x="553.84607" width="100%" height="100%" xlink:href="#FiraCode-Regular-40-9"/><use x="615.38452" width="100%" height="100%" xlink:href="#FiraCode-Regular-37-7"/><use x="676.92297" width="100%" height="100%" xlink:href="#FiraCode-Regular-41-5"/></g><g stroke="#2196f3"><path d="m64.718 200.85 42.655-7.5771 21.328-24.626 21.328-30.308 21.328-20.837 21.328-18.943 21.328-20.837 21.328-11.366 21.328-7.5771 42.655-7.5771h21.328l21.328-1.8943h21.328l21.328-1.8943" clip-path="url(#p97a77fce17)" fill="none" stroke-linecap="square" stroke-width="1.5"/><g clip-path="url(#p97a77fce17)" fill="#2196f3"><use x="64.717636" y="200.84532" width="100%" height="100%" xlink:href="#md24da44ec5"/><use x="86.045311" y="197.05678" width="100%" height="100%" xlink:href="#md24da44ec5"/><use x="107.37299" y="193.26825" width="100%" height="100%" xlink:href="#md24da44ec5"/><use x="128.70067" y="168.64273" width="100%" height="100%" xlink:href="#md24da44ec5"/><use x="150.02835" y="138.33441" width="100%" height="100%" xlink:href="#md24da44ec5"/><use x="171.35603" y="117.49744" width="100%" height="100%" xlink:href="#md24da44ec5"/><use x="192.6837" y="98.554733" width="100%" height="100%" xlink:href="#md24da44ec5"/><use x="214.01138" y="77.717758" width="100%" height="100%" xlink:href="#md24da44ec5"/><use x="235.33907" y="66.352142" width="100%" height="100%" xlink:href="#md24da44ec5"/><use x="256.66675" y="58.775059" width="100%" height="100%" xlink:href="#md24da44ec5"/><use x="277.99442" y="54.986519" width="100%" height="100%" xlink:href="#md24da44ec5"/><use x="299.32211" y="51.197979" width="100%" height="100%" xlink:href="#md24da44ec5"/><use x="320.64978" y="51.197979" width="100%" height="100%" xlink:href="#md24da44ec5"/><use x="341.97745" y="49.303707" width="100%" height="100%" xlink:href="#md24da44ec5"/><use x="363.30515" y="49.303707" width="100%" height="100%" xlink:href="#md24da44ec5"/><use x="384.63281" y="47.409439" width="100%" height="100%" xlink:href="#md24da44ec5"/></g></g><g stroke="#e91e63"><path d="m64.718 164.85 21.328-22.731 21.328-39.78 21.328-17.048 21.328-13.26 21.328-9.4714 21.328-5.6828 21.328-3.7885 21.328-1.8943h21.328l42.655-3.7885h42.655l21.328-1.8943h21.328" clip-path="url(#p97a77fce17)" fill="none" stroke-linecap="square" stroke-width="1.5"/><g clip-path="url(#p97a77fce17)" fill="#e91e63"><use x="64.717636" y="164.85419" width="100%" height="100%" xlink:href="#m750397dc0b"/><use x="86.045311" y="142.12294" width="100%" height="100%" xlink:href="#m750397dc0b"/><use x="107.37299" y="102.34328" width="100%" height="100%" xlink:href="#m750397dc0b"/><use x="128.70067" y="85.294846" width="100%" height="100%" xlink:href="#m750397dc0b"/><use x="150.02835" y="72.03495" width="100%" height="100%" xlink:href="#m750397dc0b"/><use x="171.35603" y="62.563599" width="100%" height="100%" xlink:href="#m750397dc0b"/><use x="192.6837" y="56.880791" width="100%" height="100%" xlink:href="#m750397dc0b"/><use x="214.01138" y="53.092251" width="100%" height="100%" xlink:href="#m750397dc0b"/><use x="235.33907" y="51.197979" width="100%" height="100%" xlink:href="#m750397dc0b"/><use x="256.66675" y="51.197979" width="100%" height="100%" xlink:href="#m750397dc0b"/><use x="277.99442" y="49.303707" width="100%" height="100%" xlink:href="#m750397dc0b"/><use x="299.32211" y="47.409439" width="100%" height="100%" xlink:href="#m750397dc0b"/><use x="320.64978" y="47.409439" width="100%" height="100%" xlink:href="#m750397dc0b"/><use x="341.97745" y="47.409439" width="100%" height="100%" xlink:href="#m750397dc0b"/><use x="363.30515" y="45.515167" width="100%" height="100%" xlink:href="#m750397dc0b"/><use x="384.63281" y="45.515167" width="100%" height="100%" xlink:href="#m750397dc0b"/></g></g><g stroke="#ffc107"><path d="m64.718 185.69 21.328-5.6828 21.328-13.26 21.328-20.837 21.328-30.308 21.328-22.731 21.328-17.048 21.328-9.4714 21.328-7.5771 21.328-3.7885 21.328-1.8943h21.328l21.328-1.8943h21.328l21.328-1.8943h21.328" clip-path="url(#p97a77fce17)" fill="none" stroke-linecap="square" stroke-width="1.5"/><g clip-path="url(#p97a77fce17)" fill="#ffc107"><use x="64.717636" y="185.69116" width="100%" height="100%" xlink:href="#m02233f6a3f"/><use x="86.045311" y="180.00835" width="100%" height="100%" xlink:href="#m02233f6a3f"/><use x="107.37299" y="166.74846" width="100%" height="100%" xlink:href="#m02233f6a3f"/><use x="128.70067" y="145.91148" width="100%" height="100%" xlink:href="#m02233f6a3f"/><use x="150.02835" y="115.60316" width="100%" height="100%" xlink:href="#m02233f6a3f"/><use x="171.35603" y="92.871925" width="100%" height="100%" xlink:href="#m02233f6a3f"/><use x="192.6837" y="75.823494" width="100%" height="100%" xlink:href="#m02233f6a3f"/><use x="214.01138" y="66.352142" width="100%" height="100%" xlink:href="#m02233f6a3f"/><use x="235.33907" y="58.775059" width="100%" height="100%" xlink:href="#m02233f6a3f"/><use x="256.66675" y="54.986519" width="100%" height="100%" xlink:href="#m02233f6a3f"/><use x="277.99442" y="53.092251" width="100%" height="100%" xlink:href="#m02233f6a3f"/><use x="299.32211" y="53.092251" width="100%" height="100%" xlink:href="#m02233f6a3f"/><use x="320.64978" y="51.197979" width="100%" height="100%" xlink:href="#m02233f6a3f"/><use x="341.97745" y="51.197979" width="100%" height="100%" xlink:href="#m02233f6a3f"/><use x="363.30515" y="49.303707" width="100%" height="100%" xlink:href="#m02233f6a3f"/><use x="384.63281" y="49.303707" width="100%" height="100%" xlink:href="#m02233f6a3f"/></g></g><path d="m48.722 208.61v-170.86" fill="none" stroke="#000" stroke-linecap="square" stroke-linejoin="miter" stroke-width=".8"/><path d="m48.722 208.61h351.91" fill="none" stroke="#000" stroke-linecap="square" stroke-linejoin="miter" stroke-width=".8"/><g transform="matrix(.12 0 0 -.12 76.963 21.749)" fill="#263238" stroke-linejoin="round"><use width="100%" height="100%" xlink:href="#FiraCode-Regular-67-9"/><use x="61.538452" width="100%" height="100%" xlink:href="#FiraCode-Regular-108-7"/><use x="123.0769" width="100%" height="100%" xlink:href="#FiraCode-Regular-97-7"/><use x="184.61536" width="100%" height="100%" xlink:href="#FiraCode-Regular-115-7"/><use x="246.15381" width="100%" height="100%" xlink:href="#FiraCode-Regular-105-8"/><use x="307.69226" width="100%" height="100%" xlink:href="#FiraCode-Regular-102-8"/><use x="369.23071" width="100%" height="100%" xlink:href="#FiraCode-Regular-105-8"/><use x="430.76917" width="100%" height="100%" xlink:href="#FiraCode-Regular-99-3"/><use x="492.30762" width="100%" height="100%" xlink:href="#FiraCode-Regular-97-7"/><use x="553.84607" width="100%" height="100%" xlink:href="#FiraCode-Regular-100-5"/><use x="615.38452" width="100%" height="100%" xlink:href="#FiraCode-Regular-111-10"/><use x="676.92297" width="100%" height="100%" xlink:href="#FiraCode-Regular-114-4"/><use x="738.46143" width="100%" height="100%" xlink:href="#FiraCode-Regular-32-60"/><use x="799.99988" width="100%" height="100%" xlink:href="#FiraCode-Regular-77-3"/><use x="861.53833" width="100%" height="100%" xlink:href="#FiraCode-Regular-78-3"/><use x="923.07678" width="100%" height="100%" xlink:href="#FiraCode-Regular-73-8"/><use x="984.61523" width="100%" height="100%" xlink:href="#FiraCode-Regular-83-3"/><use x="1046.1537" width="100%" height="100%" xlink:href="#FiraCode-Regular-84-7"/><use x="1107.6921" width="100%" height="100%" xlink:href="#FiraCode-Regular-32-60"/><use x="1169.2306" width="100%" height="100%" xlink:href="#FiraCode-Regular-45-93"/><use x="1230.769" width="100%" height="100%" xlink:href="#FiraCode-Regular-32-60"/><use x="1292.3075" width="100%" height="100%" xlink:href="#FiraCode-Regular-80-7"/><use x="1353.8459" width="100%" height="100%" xlink:href="#FiraCode-Regular-114-4"/><use x="1415.3844" width="100%" height="100%" xlink:href="#FiraCode-Regular-101-60"/><use x="1476.9229" width="100%" height="100%" xlink:href="#FiraCode-Regular-99-3"/><use x="1538.4613" width="100%" height="100%" xlink:href="#FiraCode-Regular-105-8"/><use x="1599.9998" width="100%" height="100%" xlink:href="#FiraCode-Regular-115-7"/><use x="1661.5382" width="100%" height="100%" xlink:href="#FiraCode-Regular-105-8"/><use x="1723.0767" width="100%" height="100%" xlink:href="#FiraCode-Regular-243"/><use x="1784.6151" width="100%" height="100%" xlink:href="#FiraCode-Regular-110-8"/><use x="1846.1536" width="100%" height="100%" xlink:href="#FiraCode-Regular-32-60"/><use x="1907.692" width="100%" height="100%" xlink:href="#FiraCode-Regular-112-5"/><use x="1969.2305" width="100%" height="100%" xlink:href="#FiraCode-Regular-111-10"/><use x="2030.7689" width="100%" height="100%" xlink:href="#FiraCode-Regular-114-4"/><use x="2092.3074" width="100%" height="100%" xlink:href="#FiraCode-Regular-32-60"/><use x="2153.8457" width="100%" height="100%" xlink:href="#FiraCode-Regular-201-4"/><use x="2215.3843" width="100%" height="100%" xlink:href="#FiraCode-Regular-112-5"/><use x="2276.9226" width="100%" height="100%" xlink:href="#FiraCode-Regular-111-10"/><use x="2338.4612" width="100%" height="100%" xlink:href="#FiraCode-Regular-99-3"/><use x="2399.9998" width="100%" height="100%" xlink:href="#FiraCode-Regular-97-7"/></g><path d="m263.15 203.61h130.48q2 0 2-2v-43.597q0-2-2-2h-130.48q-2 0-2 2v43.597q0 2 2 2z" fill="#fff" opacity=".8" stroke="#ccc" stroke-linejoin="miter"/><path d="m265.15 164.09h20" fill="none" stroke="#2196f3" stroke-linecap="square" stroke-linejoin="round" stroke-width="1.5"/><g stroke-linejoin="round"><use x="275.15356" y="164.08995" width="100%" height="100%" fill="#2196f3" stroke="#2196f3" stroke-linejoin="round" xlink:href="#md24da44ec5"/></g><g transform="matrix(.1 0 0 -.1 293.15 167.59)" fill="#263238" stroke-linejoin="round"><use width="100%" height="100%" xlink:href="#FiraCode-Regular-65-8"/><use x="61.538452" width="100%" height="100%" xlink:href="#FiraCode-Regular-99-3"/><use x="123.0769" width="100%" height="100%" xlink:href="#FiraCode-Regular-105-8"/><use x="184.61536" width="100%" height="100%" xlink:href="#FiraCode-Regular-101-60"/><use x="246.15381" width="100%" height="100%" xlink:href="#FiraCode-Regular-114-4"/><use x="307.69226" width="100%" height="100%" xlink:href="#FiraCode-Regular-116-6"/><use x="369.23071" width="100%" height="100%" xlink:href="#FiraCode-Regular-111-10"/><use x="430.76917" width="100%" height="100%" xlink:href="#FiraCode-Regular-115-7"/><use x="492.30762" width="100%" height="100%" xlink:href="#FiraCode-Regular-32-60"/><use x="553.84607" width="100%" height="100%" xlink:href="#FiraCode-Regular-78-3"/><use x="615.38452" width="100%" height="100%" xlink:href="#FiraCode-Regular-110-8"/><use x="676.92297" width="100%" height="100%" xlink:href="#FiraCode-Regular-101-60"/><use x="738.46143" width="100%" height="100%" xlink:href="#FiraCode-Regular-116-6"/></g><path d="m265.15 178.84h20" fill="none" stroke="#e91e63" stroke-linecap="square" stroke-linejoin="round" stroke-width="1.5"/><g stroke-linejoin="round"><use x="275.15356" y="178.83995" width="100%" height="100%" fill="#e91e63" stroke="#e91e63" stroke-linejoin="round" xlink:href="#m750397dc0b"/></g><g transform="matrix(.1 0 0 -.1 293.15 182.34)" fill="#263238" stroke-linejoin="round"><use width="100%" height="100%" xlink:href="#FiraCode-Regular-65-8"/><use x="61.538452" width="100%" height="100%" xlink:href="#FiraCode-Regular-99-3"/><use x="123.0769" width="100%" height="100%" xlink:href="#FiraCode-Regular-105-8"/><use x="184.61536" width="100%" height="100%" xlink:href="#FiraCode-Regular-101-60"/><use x="246.15381" width="100%" height="100%" xlink:href="#FiraCode-Regular-114-4"/><use x="307.69226" width="100%" height="100%" xlink:href="#FiraCode-Regular-116-6"/><use x="369.23071" width="100%" height="100%" xlink:href="#FiraCode-Regular-111-10"/><use x="430.76917" width="100%" height="100%" xlink:href="#FiraCode-Regular-115-7"/><use x="492.30762" width="100%" height="100%" xlink:href="#FiraCode-Regular-32-60"/><use x="553.84607" width="100%" height="100%" xlink:href="#FiraCode-Regular-78-3"/><use x="615.38452" width="100%" height="100%" xlink:href="#FiraCode-Regular-110-8"/><use x="676.92297" width="100%" height="100%" xlink:href="#FiraCode-Regular-101-60"/><use x="738.46143" width="100%" height="100%" xlink:href="#FiraCode-Regular-116-6"/><use x="799.99988" width="100%" height="100%" xlink:href="#FiraCode-Regular-42-7"/></g><path d="m265.15 193.94h20" fill="none" stroke="#ffc107" stroke-linecap="square" stroke-linejoin="round" stroke-width="1.5"/><g stroke-linejoin="round"><use x="275.15356" y="193.93683" width="100%" height="100%" fill="#ffc107" stroke="#ffc107" stroke-linejoin="round" xlink:href="#m02233f6a3f"/></g><g transform="matrix(.1 0 0 -.1 293.15 197.44)" fill="#263238" stroke-linejoin="round"><use width="100%" height="100%" xlink:href="#FiraCode-Regular-65-8"/><use x="61.538452" width="100%" height="100%" xlink:href="#FiraCode-Regular-99-3"/><use x="123.0769" width="100%" height="100%" xlink:href="#FiraCode-Regular-105-8"/><use x="184.61536" width="100%" height="100%" xlink:href="#FiraCode-Regular-101-60"/><use x="246.15381" width="100%" height="100%" xlink:href="#FiraCode-Regular-114-4"/><use x="307.69226" width="100%" height="100%" xlink:href="#FiraCode-Regular-116-6"/><use x="369.23071" width="100%" height="100%" xlink:href="#FiraCode-Regular-111-10"/><use x="430.76917" width="100%" height="100%" xlink:href="#FiraCode-Regular-115-7"/><use x="492.30762" width="100%" height="100%" xlink:href="#FiraCode-Regular-32-60"/><use x="553.84607" width="100%" height="100%" xlink:href="#FiraCode-Regular-80-7"/><use x="615.38452" width="100%" height="100%" xlink:href="#FiraCode-Regular-121-41"/><use x="676.92297" width="100%" height="100%" xlink:href="#FiraCode-Regular-84-7"/><use x="738.46143" width="100%" height="100%" xlink:href="#FiraCode-Regular-111-10"/><use x="799.99988" width="100%" height="100%" xlink:href="#FiraCode-Regular-114-4"/><use x="861.53833" width="100%" height="100%" xlink:href="#FiraCode-Regular-99-3"/><use x="923.07678" width="100%" height="100%" xlink:href="#FiraCode-Regular-104-90"/></g></g><g transform="matrix(1.1667 0 0 1.1667 -167.71 420.84)"><path d="m0 257.14h411.43v-257.14h-411.43z" fill="#fff" stroke-linejoin="round"/><path d="m61.067 208.61h339.56v-170.86h-339.56z" fill="#fff" stroke-linejoin="round"/><path d="m97.081 208.61v-170.86" clip-path="url(#pf2559ec42a)" fill="none" stroke="#263238" stroke-linecap="square" stroke-linejoin="round" stroke-width=".125"/><g stroke-linejoin="round"><use x="97.080872" y="208.61183" width="100%" height="100%" fill="#263238" stroke="#263238" stroke-linejoin="round" stroke-width=".8" xlink:href="#mb4d1b03cf2"/></g><g transform="matrix(.1 0 0 -.1 94.004 223.19)" fill="#263238" stroke-linejoin="round"><use width="100%" height="100%" stroke-linejoin="round" xlink:href="#FiraCode-Regular-50-3"/></g><path d="m138.24 208.61v-170.86" clip-path="url(#pf2559ec42a)" fill="none" stroke="#263238" stroke-linecap="square" stroke-linejoin="round" stroke-width=".125"/><g stroke-linejoin="round"><use x="138.23988" y="208.61183" width="100%" height="100%" fill="#263238" stroke="#263238" stroke-linejoin="round" stroke-width=".8" xlink:href="#mb4d1b03cf2"/></g><g transform="matrix(.1 0 0 -.1 135.16 223.19)" fill="#263238" stroke-linejoin="round"><use width="100%" height="100%" stroke-linejoin="round" xlink:href="#FiraCode-Regular-52-9"/></g><path d="m179.4 208.61v-170.86" clip-path="url(#pf2559ec42a)" fill="none" stroke="#263238" stroke-linecap="square" stroke-linejoin="round" stroke-width=".125"/><g stroke-linejoin="round"><use x="179.3989" y="208.61183" width="100%" height="100%" fill="#263238" stroke="#263238" stroke-linejoin="round" stroke-width=".8" xlink:href="#mb4d1b03cf2"/></g><g transform="matrix(.1 0 0 -.1 176.32 223.19)" fill="#263238" stroke-linejoin="round"><use width="100%" height="100%" stroke-linejoin="round" xlink:href="#FiraCode-Regular-54-3"/></g><path d="m220.56 208.61v-170.86" clip-path="url(#pf2559ec42a)" fill="none" stroke="#263238" stroke-linecap="square" stroke-linejoin="round" stroke-width=".125"/><g stroke-linejoin="round"><use x="220.55791" y="208.61183" width="100%" height="100%" fill="#263238" stroke="#263238" stroke-linejoin="round" stroke-width=".8" xlink:href="#mb4d1b03cf2"/></g><g transform="matrix(.1 0 0 -.1 217.48 223.19)" fill="#263238" stroke-linejoin="round"><use width="100%" height="100%" stroke-linejoin="round" xlink:href="#FiraCode-Regular-56-02"/></g><path d="m261.72 208.61v-170.86" clip-path="url(#pf2559ec42a)" fill="none" stroke="#263238" stroke-linecap="square" stroke-linejoin="round" stroke-width=".125"/><g stroke-linejoin="round"><use x="261.71692" y="208.61183" width="100%" height="100%" fill="#263238" stroke="#263238" stroke-linejoin="round" stroke-width=".8" xlink:href="#mb4d1b03cf2"/></g><g transform="matrix(.1 0 0 -.1 255.56 223.19)" fill="#263238" stroke-linejoin="round"><use width="100%" height="100%" xlink:href="#FiraCode-Regular-49-7"/><use x="61.538452" width="100%" height="100%" xlink:href="#FiraCode-Regular-48-41"/></g><path d="m302.88 208.61v-170.86" clip-path="url(#pf2559ec42a)" fill="none" stroke="#263238" stroke-linecap="square" stroke-linejoin="round" stroke-width=".125"/><g stroke-linejoin="round"><use x="302.87592" y="208.61183" width="100%" height="100%" fill="#263238" stroke="#263238" stroke-linejoin="round" stroke-width=".8" xlink:href="#mb4d1b03cf2"/></g><g transform="matrix(.1 0 0 -.1 296.72 223.19)" fill="#263238" stroke-linejoin="round"><use width="100%" height="100%" xlink:href="#FiraCode-Regular-49-7"/><use x="61.538452" width="100%" height="100%" xlink:href="#FiraCode-Regular-50-3"/></g><path d="m344.03 208.61v-170.86" clip-path="url(#pf2559ec42a)" fill="none" stroke="#263238" stroke-linecap="square" stroke-linejoin="round" stroke-width=".125"/><g stroke-linejoin="round"><use x="344.03494" y="208.61183" width="100%" height="100%" fill="#263238" stroke="#263238" stroke-linejoin="round" stroke-width=".8" xlink:href="#mb4d1b03cf2"/></g><g transform="matrix(.1 0 0 -.1 337.88 223.19)" fill="#263238" stroke-linejoin="round"><use width="100%" height="100%" xlink:href="#FiraCode-Regular-49-7"/><use x="61.538452" width="100%" height="100%" xlink:href="#FiraCode-Regular-52-9"/></g><path d="m385.19 208.61v-170.86" clip-path="url(#pf2559ec42a)" fill="none" stroke="#263238" stroke-linecap="square" stroke-linejoin="round" stroke-width=".125"/><g stroke-linejoin="round"><use x="385.19394" y="208.61183" width="100%" height="100%" fill="#263238" stroke="#263238" stroke-linejoin="round" stroke-width=".8" xlink:href="#mb4d1b03cf2"/></g><g transform="matrix(.1 0 0 -.1 379.04 223.19)" fill="#263238" stroke-linejoin="round"><use width="100%" height="100%" xlink:href="#FiraCode-Regular-49-7"/><use x="61.538452" width="100%" height="100%" xlink:href="#FiraCode-Regular-54-3"/></g><g transform="matrix(.1 0 0 -.1 215.46 242.65)" fill="#263238" stroke-linejoin="round"><use width="100%" height="100%" xlink:href="#FiraCode-Regular-201-2"/><use x="61.538452" width="100%" height="100%" xlink:href="#FiraCode-Regular-112-1"/><use x="123.0769" width="100%" height="100%" xlink:href="#FiraCode-Regular-111-9"/><use x="184.61536" width="100%" height="100%" xlink:href="#FiraCode-Regular-99-6"/><use x="246.15381" width="100%" height="100%" xlink:href="#FiraCode-Regular-97-4"/></g><path d="m61.067 188.32h339.56" clip-path="url(#pf2559ec42a)" fill="none" stroke="#263238" stroke-linecap="square" stroke-linejoin="round" stroke-width=".125"/><g stroke-linejoin="round"><use x="61.066742" y="188.31873" width="100%" height="100%" fill="#263238" stroke="#263238" stroke-linejoin="round" stroke-width=".8" xlink:href="#m7de3210754"/></g><g transform="matrix(.1 0 0 -.1 29.448 192.11)" fill="#263238" stroke-linejoin="round"><use width="100%" height="100%" xlink:href="#FiraCode-Regular-48-41"/><use x="61.538452" width="100%" height="100%" xlink:href="#FiraCode-Regular-46-2"/><use x="123.0769" width="100%" height="100%" xlink:href="#FiraCode-Regular-48-41"/><use x="184.61536" width="100%" height="100%" xlink:href="#FiraCode-Regular-50-3"/></g><path d="m61.067 147.46h339.56" clip-path="url(#pf2559ec42a)" fill="none" stroke="#263238" stroke-linecap="square" stroke-linejoin="round" stroke-width=".125"/><g stroke-linejoin="round"><use x="61.066742" y="147.46227" width="100%" height="100%" fill="#263238" stroke="#263238" stroke-linejoin="round" stroke-width=".8" xlink:href="#m7de3210754"/></g><g transform="matrix(.1 0 0 -.1 29.448 151.25)" fill="#263238" stroke-linejoin="round"><use width="100%" height="100%" xlink:href="#FiraCode-Regular-48-41"/><use x="61.538452" width="100%" height="100%" xlink:href="#FiraCode-Regular-46-2"/><use x="123.0769" width="100%" height="100%" xlink:href="#FiraCode-Regular-48-41"/><use x="184.61536" width="100%" height="100%" xlink:href="#FiraCode-Regular-52-9"/></g><path d="m61.067 106.61h339.56" clip-path="url(#pf2559ec42a)" fill="none" stroke="#263238" stroke-linecap="square" stroke-linejoin="round" stroke-width=".125"/><g stroke-linejoin="round"><use x="61.066742" y="106.6058" width="100%" height="100%" fill="#263238" stroke="#263238" stroke-linejoin="round" stroke-width=".8" xlink:href="#m7de3210754"/></g><g transform="matrix(.1 0 0 -.1 29.448 110.39)" fill="#263238" stroke-linejoin="round"><use width="100%" height="100%" xlink:href="#FiraCode-Regular-48-41"/><use x="61.538452" width="100%" height="100%" xlink:href="#FiraCode-Regular-46-2"/><use x="123.0769" width="100%" height="100%" xlink:href="#FiraCode-Regular-48-41"/><use x="184.61536" width="100%" height="100%" xlink:href="#FiraCode-Regular-54-3"/></g><path d="m61.067 65.749h339.56" clip-path="url(#pf2559ec42a)" fill="none" stroke="#263238" stroke-linecap="square" stroke-linejoin="round" stroke-width=".125"/><g stroke-linejoin="round"><use x="61.066742" y="65.749336" width="100%" height="100%" fill="#263238" stroke="#263238" stroke-linejoin="round" stroke-width=".8" xlink:href="#m7de3210754"/></g><g transform="matrix(.1 0 0 -.1 29.448 69.537)" fill="#263238" stroke-linejoin="round"><use width="100%" height="100%" xlink:href="#FiraCode-Regular-48-41"/><use x="61.538452" width="100%" height="100%" xlink:href="#FiraCode-Regular-46-2"/><use x="123.0769" width="100%" height="100%" xlink:href="#FiraCode-Regular-48-41"/><use x="184.61536" width="100%" height="100%" xlink:href="#FiraCode-Regular-56-02"/></g><g transform="matrix(0 -.1 -.1 0 19.273 138.57)" fill="#263238" stroke-linejoin="round"><use width="100%" height="100%" xlink:href="#FiraCode-Regular-69-1"/><use x="61.538452" width="100%" height="100%" xlink:href="#FiraCode-Regular-114-7"/><use x="123.0769" width="100%" height="100%" xlink:href="#FiraCode-Regular-114-7"/><use x="184.61536" width="100%" height="100%" xlink:href="#FiraCode-Regular-111-9"/><use x="246.15381" width="100%" height="100%" xlink:href="#FiraCode-Regular-114-7"/></g><g stroke="#2196f3"><path d="m76.501 45.515 20.58 0.31051 20.58 0.98056 20.58 6.2858 20.58 23.466 20.58 24.806 20.58 19.975 20.58 16.183 20.58 15.303 20.58 13.072 20.58 9.4031 20.58 6.774 20.58 4.8333 20.58 3.6383 20.58 2.717 20.58 1.9918" clip-path="url(#pf2559ec42a)" fill="none" stroke-linecap="square" stroke-width="1.5"/><g clip-path="url(#pf2559ec42a)" fill="#2196f3"><use x="76.501373" y="45.515167" width="100%" height="100%" xlink:href="#m9807460871"/><use x="97.080872" y="45.82568" width="100%" height="100%" xlink:href="#m9807460871"/><use x="117.66038" y="46.806232" width="100%" height="100%" xlink:href="#m9807460871"/><use x="138.23988" y="53.091999" width="100%" height="100%" xlink:href="#m9807460871"/><use x="158.81938" y="76.557915" width="100%" height="100%" xlink:href="#m9807460871"/><use x="179.3989" y="101.36391" width="100%" height="100%" xlink:href="#m9807460871"/><use x="199.97839" y="121.33864" width="100%" height="100%" xlink:href="#m9807460871"/><use x="220.55791" y="137.52188" width="100%" height="100%" xlink:href="#m9807460871"/><use x="241.13741" y="152.82468" width="100%" height="100%" xlink:href="#m9807460871"/><use x="261.71692" y="165.8967" width="100%" height="100%" xlink:href="#m9807460871"/><use x="282.29642" y="175.29982" width="100%" height="100%" xlink:href="#m9807460871"/><use x="302.87592" y="182.07382" width="100%" height="100%" xlink:href="#m9807460871"/><use x="323.45541" y="186.90714" width="100%" height="100%" xlink:href="#m9807460871"/><use x="344.03494" y="190.54541" width="100%" height="100%" xlink:href="#m9807460871"/><use x="364.61444" y="193.26236" width="100%" height="100%" xlink:href="#m9807460871"/><use x="385.19394" y="195.25412" width="100%" height="100%" xlink:href="#m9807460871"/></g></g><g stroke="#e91e63"><path d="m76.501 49.225 20.58 23.264 20.58 34.851 20.58 26.299 20.58 16.794 20.58 14.449 20.58 10.29 20.58 6.5125 20.58 4.7577 20.58 3.5525 20.58 2.7578 20.58 2.4167 20.58 1.5423 20.58 1.7956 20.58 1.2625 20.58 1.0766" clip-path="url(#pf2559ec42a)" fill="none" stroke-linecap="square" stroke-width="1.5"/><g clip-path="url(#pf2559ec42a)" fill="#e91e63"><use x="76.501373" y="49.224937" width="100%" height="100%" xlink:href="#ma732fe865f"/><use x="97.080872" y="72.488609" width="100%" height="100%" xlink:href="#ma732fe865f"/><use x="117.66038" y="107.33917" width="100%" height="100%" xlink:href="#ma732fe865f"/><use x="138.23988" y="133.63847" width="100%" height="100%" xlink:href="#ma732fe865f"/><use x="158.81938" y="150.43253" width="100%" height="100%" xlink:href="#ma732fe865f"/><use x="179.3989" y="164.88142" width="100%" height="100%" xlink:href="#ma732fe865f"/><use x="199.97839" y="175.17113" width="100%" height="100%" xlink:href="#ma732fe865f"/><use x="220.55791" y="181.68364" width="100%" height="100%" xlink:href="#ma732fe865f"/><use x="241.13741" y="186.44138" width="100%" height="100%" xlink:href="#ma732fe865f"/><use x="261.71692" y="189.99385" width="100%" height="100%" xlink:href="#ma732fe865f"/><use x="282.29642" y="192.75166" width="100%" height="100%" xlink:href="#ma732fe865f"/><use x="302.87592" y="195.16832" width="100%" height="100%" xlink:href="#ma732fe865f"/><use x="323.45541" y="196.71065" width="100%" height="100%" xlink:href="#ma732fe865f"/><use x="344.03494" y="198.50629" width="100%" height="100%" xlink:href="#ma732fe865f"/><use x="364.61444" y="199.76875" width="100%" height="100%" xlink:href="#ma732fe865f"/><use x="385.19394" y="200.84532" width="100%" height="100%" xlink:href="#ma732fe865f"/></g></g><g stroke="#ffc107"><path d="m76.501 46.175 20.58 4.3798 20.58 19.807 20.58 12.719 20.58 20.959 20.58 23.206 20.58 15.985 20.58 13.63 20.58 11.671 20.58 8.3694 20.58 5.8936 20.58 4.0959 20.58 3.0622 20.58 2.1899 20.58 1.7262 20.58 1.4238" clip-path="url(#pf2559ec42a)" fill="none" stroke-linecap="square" stroke-width="1.5"/><g clip-path="url(#pf2559ec42a)" fill="#ffc107"><use x="76.501373" y="46.174999" width="100%" height="100%" xlink:href="#mf26fdbae45"/><use x="97.080872" y="50.554813" width="100%" height="100%" xlink:href="#mf26fdbae45"/><use x="117.66038" y="70.36203" width="100%" height="100%" xlink:href="#mf26fdbae45"/><use x="138.23988" y="83.080643" width="100%" height="100%" xlink:href="#mf26fdbae45"/><use x="158.81938" y="104.04002" width="100%" height="100%" xlink:href="#mf26fdbae45"/><use x="179.3989" y="127.24648" width="100%" height="100%" xlink:href="#mf26fdbae45"/><use x="199.97839" y="143.23158" width="100%" height="100%" xlink:href="#mf26fdbae45"/><use x="220.55791" y="156.8613" width="100%" height="100%" xlink:href="#mf26fdbae45"/><use x="241.13741" y="168.53194" width="100%" height="100%" xlink:href="#mf26fdbae45"/><use x="261.71692" y="176.9014" width="100%" height="100%" xlink:href="#mf26fdbae45"/><use x="282.29642" y="182.79494" width="100%" height="100%" xlink:href="#mf26fdbae45"/><use x="302.87592" y="186.89079" width="100%" height="100%" xlink:href="#mf26fdbae45"/><use x="323.45541" y="189.95299" width="100%" height="100%" xlink:href="#mf26fdbae45"/><use x="344.03494" y="192.1429" width="100%" height="100%" xlink:href="#mf26fdbae45"/><use x="364.61444" y="193.86908" width="100%" height="100%" xlink:href="#mf26fdbae45"/><use x="385.19394" y="195.29292" width="100%" height="100%" xlink:href="#mf26fdbae45"/></g></g><path d="m61.067 208.61v-170.86" fill="none" stroke="#000" stroke-linecap="square" stroke-linejoin="miter" stroke-width=".8"/><path d="m61.067 208.61h339.56" fill="none" stroke="#000" stroke-linecap="square" stroke-linejoin="miter" stroke-width=".8"/><g transform="matrix(.12 0 0 -.12 97.906 21.749)" fill="#263238" stroke-linejoin="round"><use width="100%" height="100%" xlink:href="#FiraCode-Regular-67-94"/><use x="61.538452" width="100%" height="100%" xlink:href="#FiraCode-Regular-108-1"/><use x="123.0769" width="100%" height="100%" xlink:href="#FiraCode-Regular-97-4"/><use x="184.61536" width="100%" height="100%" xlink:href="#FiraCode-Regular-115-5"/><use x="246.15381" width="100%" height="100%" xlink:href="#FiraCode-Regular-105-4"/><use x="307.69226" width="100%" height="100%" xlink:href="#FiraCode-Regular-102-1"/><use x="369.23071" width="100%" height="100%" xlink:href="#FiraCode-Regular-105-4"/><use x="430.76917" width="100%" height="100%" xlink:href="#FiraCode-Regular-99-6"/><use x="492.30762" width="100%" height="100%" xlink:href="#FiraCode-Regular-97-4"/><use x="553.84607" width="100%" height="100%" xlink:href="#FiraCode-Regular-100-55"/><use x="615.38452" width="100%" height="100%" xlink:href="#FiraCode-Regular-111-9"/><use x="676.92297" width="100%" height="100%" xlink:href="#FiraCode-Regular-114-7"/><use x="738.46143" width="100%" height="100%" xlink:href="#FiraCode-Regular-32-4"/><use x="799.99988" width="100%" height="100%" xlink:href="#FiraCode-Regular-77-9"/><use x="861.53833" width="100%" height="100%" xlink:href="#FiraCode-Regular-78-83"/><use x="923.07678" width="100%" height="100%" xlink:href="#FiraCode-Regular-73-85"/><use x="984.61523" width="100%" height="100%" xlink:href="#FiraCode-Regular-83-2"/><use x="1046.1537" width="100%" height="100%" xlink:href="#FiraCode-Regular-84-2"/><use x="1107.6921" width="100%" height="100%" xlink:href="#FiraCode-Regular-32-4"/><use x="1169.2306" width="100%" height="100%" xlink:href="#FiraCode-Regular-45-2"/><use x="1230.769" width="100%" height="100%" xlink:href="#FiraCode-Regular-32-4"/><use x="1292.3075" width="100%" height="100%" xlink:href="#FiraCode-Regular-69-1"/><use x="1353.8459" width="100%" height="100%" xlink:href="#FiraCode-Regular-114-7"/><use x="1415.3844" width="100%" height="100%" xlink:href="#FiraCode-Regular-114-7"/><use x="1476.9229" width="100%" height="100%" xlink:href="#FiraCode-Regular-111-9"/><use x="1538.4613" width="100%" height="100%" xlink:href="#FiraCode-Regular-114-7"/><use x="1599.9998" width="100%" height="100%" xlink:href="#FiraCode-Regular-32-4"/><use x="1661.5382" width="100%" height="100%" xlink:href="#FiraCode-Regular-112-1"/><use x="1723.0767" width="100%" height="100%" xlink:href="#FiraCode-Regular-111-9"/><use x="1784.6151" width="100%" height="100%" xlink:href="#FiraCode-Regular-114-7"/><use x="1846.1536" width="100%" height="100%" xlink:href="#FiraCode-Regular-32-4"/><use x="1907.692" width="100%" height="100%" xlink:href="#FiraCode-Regular-201-2"/><use x="1969.2305" width="100%" height="100%" xlink:href="#FiraCode-Regular-112-1"/><use x="2030.7689" width="100%" height="100%" xlink:href="#FiraCode-Regular-111-9"/><use x="2092.3074" width="100%" height="100%" xlink:href="#FiraCode-Regular-99-6"/><use x="2153.8457" width="100%" height="100%" xlink:href="#FiraCode-Regular-97-4"/></g><path d="m281.62 90.074h112.01q2 0 2-2v-43.325q0-2-2-2h-112.01q-2 0-2 2v43.325q0 2 2 2z" fill="#fff" opacity=".8" stroke="#ccc" stroke-linejoin="miter"/><path d="m283.62 50.824h20" fill="none" stroke="#2196f3" stroke-linecap="square" stroke-linejoin="round" stroke-width="1.5"/><g stroke-linejoin="round"><use x="293.61765" y="50.823662" width="100%" height="100%" fill="#2196f3" stroke="#2196f3" stroke-linejoin="round" xlink:href="#m9807460871"/></g><g transform="matrix(.1 0 0 -.1 311.62 54.324)" fill="#263238" stroke-linejoin="round"><use width="100%" height="100%" xlink:href="#FiraCode-Regular-69-1"/><use x="61.538452" width="100%" height="100%" xlink:href="#FiraCode-Regular-114-7"/><use x="123.0769" width="100%" height="100%" xlink:href="#FiraCode-Regular-114-7"/><use x="184.61536" width="100%" height="100%" xlink:href="#FiraCode-Regular-111-9"/><use x="246.15381" width="100%" height="100%" xlink:href="#FiraCode-Regular-114-7"/><use x="307.69226" width="100%" height="100%" xlink:href="#FiraCode-Regular-32-4"/><use x="369.23071" width="100%" height="100%" xlink:href="#FiraCode-Regular-78-83"/><use x="430.76917" width="100%" height="100%" xlink:href="#FiraCode-Regular-110-3"/><use x="492.30762" width="100%" height="100%" xlink:href="#FiraCode-Regular-101-63"/><use x="553.84607" width="100%" height="100%" xlink:href="#FiraCode-Regular-116-3"/></g><path d="m283.62 65.574h20" fill="none" stroke="#e91e63" stroke-linecap="square" stroke-linejoin="round" stroke-width="1.5"/><g stroke-linejoin="round"><use x="293.61765" y="65.573662" width="100%" height="100%" fill="#e91e63" stroke="#e91e63" stroke-linejoin="round" xlink:href="#ma732fe865f"/></g><g transform="matrix(.1 0 0 -.1 311.62 69.074)" fill="#263238" stroke-linejoin="round"><use width="100%" height="100%" xlink:href="#FiraCode-Regular-69-1"/><use x="61.538452" width="100%" height="100%" xlink:href="#FiraCode-Regular-114-7"/><use x="123.0769" width="100%" height="100%" xlink:href="#FiraCode-Regular-114-7"/><use x="184.61536" width="100%" height="100%" xlink:href="#FiraCode-Regular-111-9"/><use x="246.15381" width="100%" height="100%" xlink:href="#FiraCode-Regular-114-7"/><use x="307.69226" width="100%" height="100%" xlink:href="#FiraCode-Regular-32-4"/><use x="369.23071" width="100%" height="100%" xlink:href="#FiraCode-Regular-78-83"/><use x="430.76917" width="100%" height="100%" xlink:href="#FiraCode-Regular-110-3"/><use x="492.30762" width="100%" height="100%" xlink:href="#FiraCode-Regular-101-63"/><use x="553.84607" width="100%" height="100%" xlink:href="#FiraCode-Regular-116-3"/><use x="615.38452" width="100%" height="100%" xlink:href="#FiraCode-Regular-42-9"/></g><path d="m283.62 80.399h20" fill="none" stroke="#ffc107" stroke-linecap="square" stroke-linejoin="round" stroke-width="1.5"/><g stroke-linejoin="round"><use x="293.61765" y="80.398659" width="100%" height="100%" fill="#ffc107" stroke="#ffc107" stroke-linejoin="round" xlink:href="#mf26fdbae45"/></g><g transform="matrix(.1 0 0 -.1 311.62 83.899)" fill="#263238" stroke-linejoin="round"><use width="100%" height="100%" xlink:href="#FiraCode-Regular-69-1"/><use x="61.538452" width="100%" height="100%" xlink:href="#FiraCode-Regular-114-7"/><use x="123.0769" width="100%" height="100%" xlink:href="#FiraCode-Regular-114-7"/><use x="184.61536" width="100%" height="100%" xlink:href="#FiraCode-Regular-111-9"/><use x="246.15381" width="100%" height="100%" xlink:href="#FiraCode-Regular-114-7"/><use x="307.69226" width="100%" height="100%" xlink:href="#FiraCode-Regular-32-4"/><use x="369.23071" width="100%" height="100%" xlink:href="#FiraCode-Regular-80-89"/><use x="430.76917" width="100%" height="100%" xlink:href="#FiraCode-Regular-121-0"/><use x="492.30762" width="100%" height="100%" xlink:href="#FiraCode-Regular-84-2"/><use x="553.84607" width="100%" height="100%" xlink:href="#FiraCode-Regular-111-9"/><use x="615.38452" width="100%" height="100%" xlink:href="#FiraCode-Regular-114-7"/><use x="676.92297" width="100%" height="100%" xlink:href="#FiraCode-Regular-99-6"/><use x="738.46143" width="100%" height="100%" xlink:href="#FiraCode-Regular-104-2"/></g></g></g></svg>
