<?xml version="1.0" encoding="UTF-8"?>
<svg width="948.1" height="667.18" version="1.1" viewBox="0 0 250.85 176.52" xmlns="http://www.w3.org/2000/svg"><g transform="translate(.29157 -2.9525)"><g transform="translate(17.331 -348.05)" fill="none" stroke="#673ab7" stroke-linecap="round" stroke-linejoin="round" stroke-width=".52917"><path d="m21.179 407.07c14.128-8.4667 28.255-16.933 42.383-25.4"/><path d="m21.179 407.07c14.073 8.4667 28.146 16.933 42.219 25.4"/><path d="m21.179 407.07c14.064 25.4 28.128 50.8 42.191 76.2"/><path d="m21.193 457.87c14.123-25.4 28.246-50.8 42.369-76.2"/></g><g transform="matrix(1.5 0 0 1.5 13.097 -551.58)"><path d="m16.933 407.07a8.4667 8.4667 0 0 1-8.4667 8.4667 8.4667 8.4667 0 0 1-8.4667-8.4667 8.4667 8.4667 0 0 1 8.4667-8.4667 8.4667 8.4667 0 0 1 8.4667 8.4667z" fill="none" stroke="#2196f3" stroke-linecap="round" stroke-linejoin="round" stroke-width=".52917"/><g transform="translate(.21096 67.884)" fill="#2196f3"><g style="font-feature-settings:normal;font-variant-caps:normal;font-variant-ligatures:normal;font-variant-numeric:normal" aria-label="a"><path d="m4.9198 340.14q0-1.2305 0.82409-2.2916 0.82409-1.0724 1.7611-1.0724 0.64347 0 0.93698 0.66605 0.090311-0.44027 0.45156-0.44027 0.3048 0 0.3048 0.29351 0 0.079-0.045156 0.23707l-0.76764 3.0706q-0.079022 0.31609-0.079022 0.57573 0 0.46284 0.29351 0.46284 0.41769 0 0.75636-1.3434 0.045156-0.18063 0.079022-0.21449 0.033867-0.0452 0.13547-0.0452 0.16933 0 0.16933 0.11289 0 0.0226-0.045155 0.2032-0.033867 0.16933-0.12418 0.44027-0.079022 0.27093-0.16933 0.46284-0.3048 0.63218-0.82409 0.63218-0.32738 0-0.58702-0.19191-0.25964-0.2032-0.34996-0.59831-0.64347 0.79022-1.3547 0.79022-0.62089 0-0.99342-0.49671-0.37253-0.508-0.37253-1.2531zm0.76764 0.49671q0 0.37254 0.13547 0.68863 0.13547 0.31608 0.48542 0.31608 0.41769 0 0.86924-0.46284 0.46284-0.47413 0.54187-0.8128l0.53058-2.1336q0.033867-0.1016 0.033867-0.14676 0-0.39511-0.21449-0.72248-0.21449-0.33867-0.56444-0.33867-0.33867 0-0.69991 0.36124-0.34996 0.36125-0.56444 0.89183-0.16933 0.39511-0.36124 1.1853-0.19191 0.77893-0.19191 1.174z" fill="#2196f3" stroke-width=".26458"/></g><g style="font-feature-settings:normal;font-variant-caps:normal;font-variant-ligatures:normal;font-variant-numeric:normal" aria-label="0"><path d="m10.341 337.91q0-0.18627 0.08749-0.52776t0.23142-0.55033q0.25118-0.36125 0.66604-0.36125 0.21449 0 0.3556 0.11572 0.14111 0.11288 0.14111 0.39228 0 0.18627-0.08467 0.52212-0.08467 0.33584-0.22296 0.53904-0.24553 0.37253-0.67451 0.37253-0.49953 0-0.49953-0.50235zm0.29351 0.14958q0 0.11571 0.06491 0.18344 0.06491 0.0649 0.16933 0.0649 0.11007 0 0.21167-0.0734 0.1016-0.0762 0.15522-0.2032 0.05927-0.13546 0.1778-0.59831 0.12136-0.46284 0.12136-0.62089 0-0.11571-0.06773-0.1778-0.06491-0.0621-0.16933-0.0621-0.09313 0-0.1778 0.0508-0.08184 0.048-0.13264 0.11854-0.09313 0.127-0.22296 0.64911-0.12982 0.52211-0.12982 0.66887z" fill="#2196f3" stroke-width=".26458"/></g><g style="font-feature-settings:normal;font-variant-caps:normal;font-variant-ligatures:normal;font-variant-numeric:normal" aria-label="0"><path d="m10.341 341.09q0-0.18627 0.08749-0.52776t0.23142-0.55033q0.25118-0.36125 0.66604-0.36125 0.21449 0 0.3556 0.11571 0.14111 0.11289 0.14111 0.39229 0 0.18627-0.08467 0.52211-0.08467 0.33585-0.22296 0.53905-0.24553 0.37253-0.67451 0.37253-0.49953 0-0.49953-0.50235zm0.29351 0.14957q0 0.11571 0.06491 0.18345 0.06491 0.0649 0.16933 0.0649 0.11007 0 0.21167-0.0734 0.1016-0.0762 0.15522-0.2032 0.05927-0.13547 0.1778-0.59831 0.12136-0.46284 0.12136-0.62089 0-0.11571-0.06773-0.1778-0.06491-0.0621-0.16933-0.0621-0.09313 0-0.1778 0.0508-0.08184 0.048-0.13264 0.11854-0.09313 0.127-0.22296 0.64911-0.12982 0.52211-0.12982 0.66886z" fill="#2196f3" stroke-width=".26458"/></g></g></g><path d="m38.524 109.82c14.068-8.4667 28.137-16.933 42.205-25.4" fill="none" stroke="#673ab7" stroke-linecap="round" stroke-linejoin="round" stroke-width=".52917"/><path d="m38.524 109.82c14.059 8.4667 28.118 16.933 42.178 25.4" fill="none" stroke="#673ab7" stroke-linecap="round" stroke-linejoin="round" stroke-width=".52917"/><g transform="matrix(1.5 0 0 1.5 13.097 -576.98)"><path d="m16.933 457.87a8.4667 8.4667 0 0 1-8.4667 8.4667 8.4667 8.4667 0 0 1-8.4667-8.4667 8.4667 8.4667 0 0 1 8.4667-8.4667 8.4667 8.4667 0 0 1 8.4667 8.4667z" fill="none" stroke="#2196f3" stroke-linecap="round" stroke-linejoin="round" stroke-width=".52917"/><g transform="translate(-.51113 67.884)" fill="#2196f3"><g style="font-feature-settings:normal;font-variant-caps:normal;font-variant-ligatures:normal;font-variant-numeric:normal" aria-label="a"><path d="m4.9198 390.94q0-1.2305 0.82409-2.2916 0.82409-1.0724 1.7611-1.0724 0.64347 0 0.93698 0.66605 0.090311-0.44027 0.45156-0.44027 0.3048 0 0.3048 0.29351 0 0.079-0.045156 0.23707l-0.76764 3.0706q-0.079022 0.31609-0.079022 0.57574 0 0.46284 0.29351 0.46284 0.41769 0 0.75636-1.3434 0.045156-0.18062 0.079022-0.21448 0.033867-0.0452 0.13547-0.0452 0.16933 0 0.16933 0.11289 0 0.0226-0.045155 0.2032-0.033867 0.16933-0.12418 0.44027-0.079022 0.27093-0.16933 0.46284-0.3048 0.63218-0.82409 0.63218-0.32738 0-0.58702-0.19191-0.25964-0.2032-0.34996-0.59831-0.64347 0.79022-1.3547 0.79022-0.62089 0-0.99342-0.49671-0.37253-0.508-0.37253-1.2531zm0.76764 0.49671q0 0.37253 0.13547 0.68862t0.48542 0.31609q0.41769 0 0.86924-0.46284 0.46284-0.47414 0.54187-0.8128l0.53058-2.1336q0.033867-0.1016 0.033867-0.14676 0-0.39511-0.21449-0.72249-0.21449-0.33866-0.56444-0.33866-0.33867 0-0.69991 0.36124-0.34996 0.36125-0.56444 0.89182-0.16933 0.39511-0.36124 1.1853-0.19191 0.77893-0.19191 1.174z" fill="#2196f3" stroke-width=".26458"/></g><g style="font-feature-settings:normal;font-variant-caps:normal;font-variant-ligatures:normal;font-variant-numeric:normal" aria-label="0"><path d="m10.341 388.71q0-0.18627 0.08749-0.52776t0.23142-0.55033q0.25118-0.36125 0.66604-0.36125 0.21449 0 0.3556 0.11571 0.14111 0.11289 0.14111 0.39229 0 0.18627-0.08467 0.52211-0.08467 0.33585-0.22296 0.53905-0.24553 0.37253-0.67451 0.37253-0.49953 0-0.49953-0.50235zm0.29351 0.14957q0 0.11571 0.06491 0.18345 0.06491 0.0649 0.16933 0.0649 0.11007 0 0.21167-0.0734 0.1016-0.0762 0.15522-0.2032 0.05927-0.13547 0.1778-0.59831 0.12136-0.46284 0.12136-0.62089 0-0.11571-0.06773-0.1778-0.06491-0.0621-0.16933-0.0621-0.09313 0-0.1778 0.0508-0.08184 0.048-0.13264 0.11854-0.09313 0.127-0.22296 0.64911-0.12982 0.52211-0.12982 0.66886z" fill="#2196f3" stroke-width=".26458"/></g><g stroke-width=".26458" style="font-feature-settings:normal;font-variant-caps:normal;font-variant-ligatures:normal;font-variant-numeric:normal" aria-label="∗0"><path d="m10.409 391.9q0-0.0705 0.05927-0.11006 0.01975-0.0141 0.45438-0.16934-0.0508-0.0226-0.13547-0.0593-0.18627-0.0818-0.22013-0.1016-0.03105-0.0226-0.03105-0.0621 0-0.0564 0.04798-0.1016 0.04798-0.048 0.1016-0.048 0.0085 0 0.01411 3e-3 0.0085 0 0.01693 6e-3 0.0085 3e-3 0.01693 8e-3 0.0085 6e-3 0.02258 0.0169 0.01411 0.0113 0.0254 0.0254 0.01411 0.0113 0.03669 0.0367 0.02258 0.0226 0.04516 0.0452 0.0254 0.0226 0.06209 0.0621 0.03951 0.0367 0.0762 0.0734 0.03104-0.41487 0.05644-0.4572 0.04233-0.0734 0.12982-0.0734 0.03669 0 0.06491 0.0226t0.02822 0.0593q0 0.0226-0.17216 0.45155 0.07338-0.0508 0.18344-0.12418 0.17498-0.11853 0.20884-0.13829 0.03387-0.0197 0.06209-0.0197 0.03951 0 0.06491 0.031 0.0254 0.0282 0.0254 0.0649 0 0.0621-0.05927 0.10725-0.01693 0.0113-0.12982 0.0564-0.11289 0.0423-0.22013 0.079l-0.10442 0.0367q0.08184 0.0423 0.19473 0.0875 0.11289 0.0423 0.1524 0.0706 0.03951 0.0254 0.03951 0.0649 0 0.0508-0.04798 0.1016t-0.1016 0.0508q-0.0254 0-0.0508-0.0169-0.02258-0.0198-0.13264-0.13265-0.07902-0.079-0.13264-0.13264-0.03951 0.4318-0.05645 0.46002-0.04233 0.0734-0.127 0.0734-0.03669 0-0.06773-0.0226-0.02822-0.0226-0.02822-0.0593 0-0.0197 0.02258-0.0762 0.02258-0.0564 0.06773-0.17215 0.04798-0.11571 0.08184-0.20038-0.32738 0.22013-0.37536 0.24836-0.04516 0.0282-0.07902 0.0282-0.03951 0-0.06491-0.0282t-0.0254-0.0649z"/><path d="m12.012 391.89q0-0.18626 0.08749-0.52775t0.23142-0.55034q0.25118-0.36124 0.66604-0.36124 0.21449 0 0.3556 0.11571 0.14111 0.11289 0.14111 0.39229 0 0.18627-0.08467 0.52211-0.08467 0.33585-0.22296 0.53905-0.24553 0.37253-0.67451 0.37253-0.49953 0-0.49953-0.50236zm0.29351 0.14958q0 0.11571 0.06491 0.18345 0.06491 0.0649 0.16933 0.0649 0.11007 0 0.21167-0.0734 0.1016-0.0762 0.15522-0.2032 0.05927-0.13547 0.1778-0.59831 0.12136-0.46285 0.12136-0.62089 0-0.11571-0.06773-0.1778-0.06491-0.0621-0.16933-0.0621-0.09313 0-0.1778 0.0508-0.08185 0.048-0.13264 0.11853-0.09313 0.127-0.22296 0.64911-0.12982 0.52212-0.12982 0.66887z"/></g></g></g><g transform="translate(17.331 -348.05)" fill="none" stroke="#ffc107" stroke-linecap="round" stroke-linejoin="round" stroke-width=".52917"><path d="m156.67 381.67c14.102 8.4667 28.204 16.933 42.306 25.4"/><path d="m156.67 381.67c14.084 25.4 28.168 50.8 42.251 76.2"/><path d="m156.67 432.47c14.103-8.4667 28.205-16.933 42.308-25.4"/><path d="m156.67 432.47c14.084 8.4667 28.169 16.933 42.253 25.4"/><path d="m156.74 483.27c14.08-25.4 28.16-50.8 42.239-76.2"/></g><g transform="matrix(1.5 0 0 1.5 -88.499 -551.58)"><path d="m220.13 407.07a8.4667 8.4667 0 0 1-8.4667 8.4667 8.4667 8.4667 0 0 1-8.4667-8.4667 8.4667 8.4667 0 0 1 8.4667-8.4667 8.4667 8.4667 0 0 1 8.4667 8.4667z" fill="none" stroke="#000" stroke-linecap="round" stroke-linejoin="round" stroke-width=".52917"/><g transform="translate(.11359 67.908)"><g style="font-feature-settings:normal;font-variant-caps:normal;font-variant-ligatures:normal;font-variant-numeric:normal" aria-label="a"><path d="m208.12 340.14q0-1.2305 0.82409-2.2916 0.82409-1.0724 1.7611-1.0724 0.64346 0 0.93698 0.66605 0.0903-0.44027 0.45155-0.44027 0.3048 0 0.3048 0.29351 0 0.079-0.0452 0.23707l-0.76765 3.0706q-0.079 0.31609-0.079 0.57573 0 0.46284 0.29351 0.46284 0.41769 0 0.75636-1.3434 0.0452-0.18063 0.079-0.21449 0.0339-0.0452 0.13546-0.0452 0.16934 0 0.16934 0.11289 0 0.0226-0.0452 0.2032-0.0339 0.16933-0.12418 0.44027-0.079 0.27093-0.16933 0.46284-0.3048 0.63218-0.82409 0.63218-0.32738 0-0.58702-0.19191-0.25964-0.2032-0.34996-0.59831-0.64346 0.79022-1.3547 0.79022-0.62089 0-0.99342-0.49671-0.37254-0.508-0.37254-1.2531zm0.76765 0.49671q0 0.37254 0.13546 0.68863 0.13547 0.31608 0.48543 0.31608 0.41768 0 0.86924-0.46284 0.46284-0.47413 0.54187-0.8128l0.53057-2.1336q0.0339-0.1016 0.0339-0.14676 0-0.39511-0.21449-0.72248-0.21449-0.33867-0.56444-0.33867-0.33867 0-0.69991 0.36124-0.34996 0.36125-0.56445 0.89183-0.16933 0.39511-0.36124 1.1853-0.19191 0.77893-0.19191 1.174z" stroke-width=".26458"/></g><g style="font-feature-settings:normal;font-variant-caps:normal;font-variant-ligatures:normal;font-variant-numeric:normal" aria-label="L"><path d="m213.41 338.3q0-0.079 0.0818-0.079h0.0565q0.13828 0 0.18626-0.0113l0.41205-1.6482q-0.0536-6e-3 -0.16369-6e-3h-0.0508q-0.0706 0-0.0706-0.0593 0-0.0762 0.0762-0.0762 8e-3 0 0.0226 3e-3 0.0141 0 0.0198 0 0.18062 6e-3 0.45437 6e-3 0.11289 0 0.20885 0 0.0988-3e-3 0.1524-6e-3 0.0564-3e-3 0.0677-3e-3 0.0706 0 0.0706 0.0564 0 0.079-0.0847 0.079h-0.0564q-0.19756 0-0.25965 0.0141l-0.41204 1.6482q0.0339 3e-3 0.1016 3e-3h0.10442q0.14675 0 0.25964-0.0452 0.11289-0.048 0.18909-0.13546 0.079-0.0903 0.127-0.18063 0.048-0.0903 0.096-0.21731 0.0226-0.0621 0.0818-0.0621 0.079 0 0.079 0.0564 0 0.0169-0.23424 0.65758-0.0141 0.0395-0.031 0.0508t-0.0565 0.0113h-1.3603q-0.0677-3e-3 -0.0677-0.0564z" stroke-width=".26458"/></g><g style="font-feature-settings:normal;font-variant-caps:normal;font-variant-ligatures:normal;font-variant-numeric:normal" aria-label="0"><path d="m213.54 341.09q0-0.18627 0.0875-0.52776t0.23142-0.55033q0.25118-0.36125 0.66605-0.36125 0.21449 0 0.3556 0.11571 0.14111 0.11289 0.14111 0.39229 0 0.18627-0.0847 0.52211-0.0847 0.33585-0.22295 0.53905-0.24554 0.37253-0.67451 0.37253-0.49954 0-0.49954-0.50235zm0.29351 0.14957q0 0.11571 0.0649 0.18345 0.0649 0.0649 0.16933 0.0649 0.11007 0 0.21167-0.0734 0.1016-0.0762 0.15522-0.2032 0.0593-0.13547 0.1778-0.59831 0.12135-0.46284 0.12135-0.62089 0-0.11571-0.0677-0.1778-0.0649-0.0621-0.16933-0.0621-0.0931 0-0.1778 0.0508-0.0819 0.048-0.13265 0.11854-0.0931 0.127-0.22295 0.64911-0.12983 0.52211-0.12983 0.66886z" stroke-width=".26458"/></g></g></g><path d="m174.07 135.22c14.062-8.4667 28.123-16.933 42.185-25.4" fill="none" stroke="#ffc107" stroke-linecap="round" stroke-linejoin="round" stroke-width=".52917"/><g transform="matrix(1.5 0 0 1.5 -88.499 -576.98)"><path d="m220.13 457.87a8.4667 8.4667 0 0 1-8.4667 8.4667 8.4667 8.4667 0 0 1-8.4667-8.4667 8.4667 8.4667 0 0 1 8.4667-8.4667 8.4667 8.4667 0 0 1 8.4667 8.4667z" fill="none" stroke="#000" stroke-linecap="round" stroke-linejoin="round" stroke-width=".52917"/><g transform="translate(-.6085 67.908)"><g style="font-feature-settings:normal;font-variant-caps:normal;font-variant-ligatures:normal;font-variant-numeric:normal" aria-label="a"><path d="m208.12 390.94q0-1.2305 0.82409-2.2916 0.82409-1.0724 1.7611-1.0724 0.64346 0 0.93698 0.66605 0.0903-0.44027 0.45155-0.44027 0.3048 0 0.3048 0.29351 0 0.079-0.0452 0.23707l-0.76765 3.0706q-0.079 0.31609-0.079 0.57574 0 0.46284 0.29351 0.46284 0.41769 0 0.75636-1.3434 0.0452-0.18062 0.079-0.21448 0.0339-0.0452 0.13546-0.0452 0.16934 0 0.16934 0.11289 0 0.0226-0.0452 0.2032-0.0339 0.16933-0.12418 0.44027-0.079 0.27093-0.16933 0.46284-0.3048 0.63218-0.82409 0.63218-0.32738 0-0.58702-0.19191-0.25964-0.2032-0.34996-0.59831-0.64346 0.79022-1.3547 0.79022-0.62089 0-0.99342-0.49671-0.37254-0.508-0.37254-1.2531zm0.76765 0.49671q0 0.37253 0.13546 0.68862 0.13547 0.31609 0.48543 0.31609 0.41768 0 0.86924-0.46284 0.46284-0.47414 0.54187-0.8128l0.53057-2.1336q0.0339-0.1016 0.0339-0.14676 0-0.39511-0.21449-0.72249-0.21449-0.33866-0.56444-0.33866-0.33867 0-0.69991 0.36124-0.34996 0.36125-0.56445 0.89182-0.16933 0.39511-0.36124 1.1853-0.19191 0.77893-0.19191 1.174z" stroke-width=".26458"/></g><g style="font-feature-settings:normal;font-variant-caps:normal;font-variant-ligatures:normal;font-variant-numeric:normal" aria-label="L"><path d="m213.41 389.1q0-0.079 0.0818-0.079h0.0565q0.13828 0 0.18626-0.0113l0.41205-1.6482q-0.0536-6e-3 -0.16369-6e-3h-0.0508q-0.0706 0-0.0706-0.0593 0-0.0762 0.0762-0.0762 8e-3 0 0.0226 3e-3 0.0141 0 0.0198 0 0.18062 6e-3 0.45437 6e-3 0.11289 0 0.20885 0 0.0988-3e-3 0.1524-6e-3 0.0564-3e-3 0.0677-3e-3 0.0706 0 0.0706 0.0564 0 0.079-0.0847 0.079h-0.0564q-0.19756 0-0.25965 0.0141l-0.41204 1.6482q0.0339 3e-3 0.1016 3e-3h0.10442q0.14675 0 0.25964-0.0452 0.11289-0.048 0.18909-0.13547 0.079-0.0903 0.127-0.18062 0.048-0.0903 0.096-0.21731 0.0226-0.0621 0.0818-0.0621 0.079 0 0.079 0.0564 0 0.0169-0.23424 0.65757-0.0141 0.0395-0.031 0.0508t-0.0565 0.0113h-1.3603q-0.0677-3e-3 -0.0677-0.0564z" stroke-width=".26458"/></g><g stroke-width=".26458" style="font-feature-settings:normal;font-variant-caps:normal;font-variant-ligatures:normal;font-variant-numeric:normal" aria-label="∗L"><path d="m213.61 391.9q0-0.0705 0.0593-0.11006 0.0198-0.0141 0.45438-0.16934-0.0508-0.0226-0.13547-0.0593-0.18626-0.0818-0.22013-0.1016-0.031-0.0226-0.031-0.0621 0-0.0564 0.048-0.1016 0.048-0.048 0.1016-0.048 8e-3 0 0.0141 3e-3 8e-3 0 0.0169 6e-3 8e-3 3e-3 0.0169 8e-3 8e-3 6e-3 0.0226 0.0169 0.0141 0.0113 0.0254 0.0254 0.0141 0.0113 0.0367 0.0367 0.0226 0.0226 0.0452 0.0452 0.0254 0.0226 0.0621 0.0621 0.0395 0.0367 0.0762 0.0734 0.031-0.41487 0.0565-0.4572 0.0423-0.0734 0.12982-0.0734 0.0367 0 0.0649 0.0226t0.0282 0.0593q0 0.0226-0.17215 0.45155 0.0734-0.0508 0.18344-0.12418 0.17498-0.11853 0.20885-0.13829 0.0339-0.0197 0.0621-0.0197 0.0395 0 0.0649 0.031 0.0254 0.0282 0.0254 0.0649 0 0.0621-0.0593 0.10725-0.0169 0.0113-0.12982 0.0564-0.11289 0.0423-0.22014 0.079l-0.10442 0.0367q0.0819 0.0423 0.19474 0.0875 0.11288 0.0423 0.1524 0.0706 0.0395 0.0254 0.0395 0.0649 0 0.0508-0.048 0.1016t-0.1016 0.0508q-0.0254 0-0.0508-0.0169-0.0226-0.0198-0.13265-0.13265-0.079-0.079-0.13264-0.13264-0.0395 0.4318-0.0564 0.46002-0.0423 0.0734-0.127 0.0734-0.0367 0-0.0677-0.0226-0.0282-0.0226-0.0282-0.0593 0-0.0197 0.0226-0.0762 0.0226-0.0564 0.0677-0.17215 0.048-0.11571 0.0819-0.20038-0.32738 0.22013-0.37536 0.24836-0.0452 0.0282-0.079 0.0282-0.0395 0-0.0649-0.0282t-0.0254-0.0649z"/><path d="m215.08 392.27q0-0.079 0.0818-0.079h0.0564q0.13829 0 0.18627-0.0113l0.41204-1.6482q-0.0536-6e-3 -0.16369-6e-3h-0.0508q-0.0705 0-0.0705-0.0593 0-0.0762 0.0762-0.0762 8e-3 0 0.0226 3e-3 0.0141 0 0.0198 0 0.18062 6e-3 0.45438 6e-3 0.11289 0 0.20884 0 0.0988-3e-3 0.1524-6e-3 0.0565-3e-3 0.0677-3e-3 0.0706 0 0.0706 0.0564 0 0.079-0.0847 0.079h-0.0564q-0.19756 0-0.25965 0.0141l-0.41204 1.6482q0.0339 3e-3 0.1016 3e-3h0.10442q0.14676 0 0.25965-0.0452 0.11289-0.048 0.18909-0.13547 0.079-0.0903 0.127-0.18062 0.048-0.0903 0.096-0.21731 0.0226-0.0621 0.0819-0.0621 0.079 0 0.079 0.0564 0 0.0169-0.23425 0.65758-0.0141 0.0395-0.031 0.0508t-0.0565 0.0113h-1.3603q-0.0677-3e-3 -0.0677-0.0564z"/></g></g></g><g transform="translate(17.331 -348.05)" fill="none" stroke-linecap="round" stroke-linejoin="round" stroke-width=".52917"><g stroke="#00bcd4"><path d="m88.974 381.67c14.091-8e-3 28.183-0.017 42.274-0.0255"/><path d="m88.974 381.67c14.078 33.867 28.155 67.733 42.233 101.6"/><path d="m88.919 432.47c14.11-16.942 28.219-33.884 42.329-50.826"/><path d="m88.919 432.47c14.096 16.933 28.192 33.867 42.287 50.8"/><path d="m88.878 483.27c14.123-33.875 28.247-67.75 42.37-101.63"/></g><path d="m88.974 381.67c14.066 16.933 28.132 33.867 42.198 50.8" stroke="#4caf50"/></g><path d="m122.24 68.856h10.965c2.4182 0 4.3651 1.9468 4.3651 4.3651v3.4418c0 2.4182-1.9468 4.3651-4.3651 4.3651h-10.965c-2.4183 0-4.3651-1.9468-4.3651-4.3651v-3.4418c0-2.4182 1.9468-4.3651 4.3651-4.3651z" fill="#fff" fill-opacity=".91235"/><g transform="matrix(1.5 0 0 1.5 -54.636 -538.88)"><path d="m152.4 381.67a8.4667 8.4667 0 0 1-8.4667 8.4667 8.4667 8.4667 0 0 1-8.4667-8.4667 8.4667 8.4667 0 0 1 8.4667-8.4667 8.4667 8.4667 0 0 1 8.4667 8.4667z" fill="none" stroke="#000" stroke-linecap="round" stroke-linejoin="round" stroke-width=".52917"/><g transform="translate(.21097 67.924)"><g style="font-feature-settings:normal;font-variant-caps:normal;font-variant-ligatures:normal;font-variant-numeric:normal" aria-label="a"><path d="m140.39 314.74q0-1.2305 0.82409-2.2916 0.82409-1.0724 1.7611-1.0724 0.64347 0 0.93698 0.66604 0.0903-0.44026 0.45155-0.44026 0.3048 0 0.3048 0.29351 0 0.079-0.0452 0.23707l-0.76765 3.0706q-0.079 0.31609-0.079 0.57574 0 0.46284 0.29351 0.46284 0.41769 0 0.75636-1.3434 0.0452-0.18062 0.079-0.21449 0.0339-0.0451 0.13547-0.0451 0.16933 0 0.16933 0.11289 0 0.0226-0.0452 0.2032-0.0339 0.16933-0.12417 0.44026-0.079 0.27094-0.16934 0.46285-0.3048 0.63218-0.82409 0.63218-0.32737 0-0.58702-0.19191-0.25964-0.2032-0.34995-0.59832-0.64347 0.79023-1.3547 0.79023-0.62089 0-0.99342-0.49671-0.37254-0.508-0.37254-1.2531zm0.76765 0.49671q0 0.37253 0.13547 0.68862 0.13546 0.31609 0.48542 0.31609 0.41769 0 0.86924-0.46284 0.46285-0.47414 0.54187-0.8128l0.53058-2.1336q0.0339-0.1016 0.0339-0.14676 0-0.39511-0.21449-0.72249-0.21448-0.33867-0.56444-0.33867-0.33867 0-0.69991 0.36125-0.34996 0.36124-0.56445 0.89182-0.16933 0.39511-0.36124 1.1853-0.19191 0.77893-0.19191 1.174z" stroke-width=".26458"/></g><g style="font-feature-settings:normal;font-variant-caps:normal;font-variant-ligatures:normal;font-variant-numeric:normal" aria-label="l"><path d="m145.75 312.71q0-0.0508 0.0226-0.127l0.31326-1.2502q8e-3 -0.0282 0.0198-0.0847 0.0113-0.0564 0.0198-0.0847-0.0254-3e-3 -0.0621-3e-3t-0.0564 0q-0.0169-3e-3 -0.0367-8e-3 -0.0169-6e-3 -0.0254-0.0169-8e-3 -0.0141-8e-3 -0.0367 0-0.048 0.031-0.0677 0.0113-8e-3 0.11571-0.0141 0.10442-8e-3 0.2032-0.0113l0.0988-6e-3q0.0677 0 0.0677 0.0564 0 0.0141-6e-3 0.0367l-0.37818 1.5184q-0.0339 0.13546-0.0339 0.18909 0 0.0847 0.0508 0.0847 0.0536 0 0.0931-0.079 0.0395-0.0818 0.0649-0.1778t0.031-0.10442q0.0169-0.0226 0.0649-0.0226 0.0819 0 0.0819 0.0452 0 0.0197-0.0198 0.0818-0.0169 0.0621-0.0536 0.14958-0.0367 0.0847-0.11007 0.14958-0.0734 0.0621-0.16369 0.0621-0.127 0-0.22577-0.0762-0.0988-0.0762-0.0988-0.2032z" stroke-width=".26458"/></g><g style="font-feature-settings:normal;font-variant-caps:normal;font-variant-ligatures:normal;font-variant-numeric:normal" aria-label="0"><path d="m145.81 315.69q0-0.18627 0.0875-0.52775 0.0875-0.34149 0.23142-0.55034 0.25118-0.36124 0.66604-0.36124 0.21449 0 0.3556 0.11571 0.14111 0.11289 0.14111 0.39229 0 0.18626-0.0847 0.52211-0.0847 0.33584-0.22296 0.53904-0.24553 0.37254-0.67451 0.37254-0.49953 0-0.49953-0.50236zm0.29351 0.14958q0 0.11571 0.0649 0.18344 0.0649 0.0649 0.16933 0.0649 0.11007 0 0.21167-0.0734 0.1016-0.0762 0.15522-0.2032 0.0593-0.13547 0.1778-0.59831 0.12136-0.46285 0.12136-0.62089 0-0.11571-0.0677-0.1778-0.0649-0.0621-0.16933-0.0621-0.0931 0-0.1778 0.0508-0.0818 0.048-0.13264 0.11853-0.0931 0.127-0.22296 0.64911-0.12982 0.52211-0.12982 0.66887z" stroke-width=".26458"/></g></g></g><g transform="matrix(1.5 0 0 1.5 -20.769 -538.88)"><path d="m84.667 381.67a8.4667 8.4667 0 0 1-8.4667 8.4667 8.4667 8.4667 0 0 1-8.4667-8.4667 8.4667 8.4667 0 0 1 8.4667-8.4667 8.4667 8.4667 0 0 1 8.4667 8.4667z" fill="none" stroke="#000" stroke-linecap="round" stroke-linejoin="round" stroke-width=".52917"/><g transform="translate(-.52181 67.924)"><g style="font-feature-settings:normal;font-variant-caps:normal;font-variant-ligatures:normal;font-variant-numeric:normal" aria-label="a"><path d="m72.653 314.74q0-1.2305 0.82409-2.2916 0.82409-1.0724 1.7611-1.0724 0.64347 0 0.93698 0.66604 0.09031-0.44026 0.45156-0.44026 0.3048 0 0.3048 0.29351 0 0.079-0.04516 0.23707l-0.76764 3.0706q-0.07902 0.31609-0.07902 0.57574 0 0.46284 0.29351 0.46284 0.41769 0 0.75636-1.3434 0.04515-0.18062 0.07902-0.21449 0.03387-0.0451 0.13547-0.0451 0.16933 0 0.16933 0.11289 0 0.0226-0.04516 0.2032-0.03387 0.16933-0.12418 0.44026-0.07902 0.27094-0.16933 0.46285-0.3048 0.63218-0.82409 0.63218-0.32738 0-0.58702-0.19191-0.25964-0.2032-0.34996-0.59832-0.64347 0.79023-1.3547 0.79023-0.62089 0-0.99342-0.49671-0.37253-0.508-0.37253-1.2531zm0.76764 0.49671q0 0.37253 0.13547 0.68862t0.48542 0.31609q0.41769 0 0.86924-0.46284 0.46284-0.47414 0.54187-0.8128l0.53058-2.1336q0.03387-0.1016 0.03387-0.14676 0-0.39511-0.21449-0.72249-0.21449-0.33867-0.56444-0.33867-0.33867 0-0.69991 0.36125-0.34996 0.36124-0.56444 0.89182-0.16933 0.39511-0.36124 1.1853-0.19191 0.77893-0.19191 1.174z" stroke-width=".26458"/></g><g stroke-width=".26458" style="font-feature-settings:normal;font-variant-caps:normal;font-variant-ligatures:normal;font-variant-numeric:normal" aria-label="l-1"><path d="m78.013 312.71q0-0.0508 0.02258-0.127l0.31327-1.2502q0.0085-0.0282 0.01975-0.0847 0.01129-0.0564 0.01976-0.0847-0.0254-3e-3 -0.06209-3e-3t-0.05644 0q-0.01693-3e-3 -0.03669-8e-3 -0.01693-6e-3 -0.0254-0.0169-0.0085-0.0141-0.0085-0.0367 0-0.048 0.03105-0.0677 0.01129-8e-3 0.11571-0.0141 0.10442-8e-3 0.2032-0.0113l0.09878-6e-3q0.06773 0 0.06773 0.0564 0 0.0141-0.0056 0.0367l-0.37818 1.5184q-0.03387 0.13546-0.03387 0.18909 0 0.0847 0.0508 0.0847 0.05362 0 0.09313-0.079 0.03951-0.0818 0.06491-0.1778t0.03105-0.10442q0.01693-0.0226 0.06491-0.0226 0.08184 0 0.08184 0.0452 0 0.0197-0.01976 0.0818-0.01693 0.0621-0.05362 0.14958-0.03669 0.0847-0.11007 0.14958-0.07338 0.0621-0.16369 0.0621-0.127 0-0.22578-0.0762t-0.09878-0.2032z"/><path d="m78.853 312.4q0-0.0169 0.03104-0.14111 0.0085-0.0367 0.0254-0.0508 0.01976-0.0169 0.06491-0.0169h0.63782q0.07338 0 0.07338 0.0565 0 0.0254-0.03669 0.1524-0.01411 0.0536-0.07902 0.0536h-0.64064q-0.0762 0-0.0762-0.0536z"/><path d="m80.115 312.9q0-0.079 0.08467-0.079h0.04516q0.18909 0 0.21731-8e-3 0.03104-0.0113 0.04516-0.0762l0.3048-1.2164q-0.19191 0.0818-0.32173 0.0818-0.07056 0-0.07056-0.0564 0-0.0339 0.01976-0.0536 0.01976-0.0198 0.04233-0.0226 0.02258-6e-3 0.06491-8e-3 0.04233-6e-3 0.06491-0.0113 0.27093-0.0564 0.47978-0.29915 0.03951-0.0452 0.07338-0.0452 0.05362 0 0.05362 0.0536 0 0.0254-0.01693 0.0931l-0.34996 1.3998-0.04233 0.16369q0.06491 6e-3 0.19473 6e-3h0.07056q0.07902 0 0.07902 0.0593 0 0.0762-0.07902 0.0762-0.01129 0-0.06773-3e-3 -0.05362-3e-3 -0.1524-3e-3 -0.09878-3e-3 -0.21167-3e-3 -0.1524 0-0.25682 3e-3 -0.10442 0-0.14958 3e-3 -0.04233 3e-3 -0.04798 3e-3 -0.07338 0-0.07338-0.0564z"/></g><g style="font-feature-settings:normal;font-variant-caps:normal;font-variant-ligatures:normal;font-variant-numeric:normal" aria-label="0"><path d="m78.075 315.69q0-0.18627 0.08749-0.52775 0.08749-0.34149 0.23142-0.55034 0.25118-0.36124 0.66604-0.36124 0.21449 0 0.3556 0.11571 0.14111 0.11289 0.14111 0.39229 0 0.18626-0.08467 0.52211-0.08467 0.33584-0.22296 0.53904-0.24553 0.37254-0.67451 0.37254-0.49953 0-0.49953-0.50236zm0.29351 0.14958q0 0.11571 0.06491 0.18344 0.06491 0.0649 0.16933 0.0649 0.11007 0 0.21167-0.0734 0.1016-0.0762 0.15522-0.2032 0.05927-0.13547 0.1778-0.59831 0.12136-0.46285 0.12136-0.62089 0-0.11571-0.06773-0.1778-0.06491-0.0621-0.16933-0.0621-0.09313 0-0.1778 0.0508-0.08185 0.048-0.13264 0.11853-0.09313 0.127-0.22296 0.64911-0.12982 0.52211-0.12982 0.66887z" stroke-width=".26458"/></g></g></g><path d="m106.21 135.22c14.098-16.933 28.196-33.867 42.294-50.8" fill="none" stroke="#4caf50" stroke-linecap="round" stroke-linejoin="round" stroke-width=".52917"/><path d="m106.21 135.22h42.329" fill="none" stroke="#00bcd4" stroke-linecap="round" stroke-linejoin="round" stroke-width=".52917"/><g transform="matrix(1.5 0 0 1.5 -20.769 -589.68)"><path d="m84.667 483.27a8.4667 8.4667 0 0 1-8.4667 8.4667 8.4667 8.4667 0 0 1-8.4667-8.4667 8.4667 8.4667 0 0 1 8.4667-8.4667 8.4667 8.4667 0 0 1 8.4667 8.4667z" fill="none" stroke="#000" stroke-linecap="round" stroke-linejoin="round" stroke-width=".52917"/><g transform="translate(-2.4305,67.752)"><g style="font-feature-settings:normal;font-variant-caps:normal;font-variant-ligatures:normal;font-variant-numeric:normal" aria-label="a"><path d="m72.653 416.34q0-1.2305 0.82409-2.2916 0.82409-1.0724 1.7611-1.0724 0.64347 0 0.93698 0.66604 0.09031-0.44027 0.45156-0.44027 0.3048 0 0.3048 0.29351 0 0.079-0.04516 0.23707l-0.76764 3.0706q-0.07902 0.31609-0.07902 0.57573 0 0.46285 0.29351 0.46285 0.41769 0 0.75636-1.3434 0.04515-0.18062 0.07902-0.21449 0.03387-0.0452 0.13547-0.0452 0.16933 0 0.16933 0.11289 0 0.0226-0.04516 0.2032-0.03387 0.16934-0.12418 0.44027-0.07902 0.27093-0.16933 0.46284-0.3048 0.63218-0.82409 0.63218-0.32738 0-0.58702-0.19191-0.25964-0.2032-0.34996-0.59831-0.64347 0.79022-1.3547 0.79022-0.62089 0-0.99342-0.49671-0.37253-0.508-0.37253-1.2531zm0.76764 0.49672q0 0.37253 0.13547 0.68862t0.48542 0.31609q0.41769 0 0.86924-0.46285 0.46284-0.47413 0.54187-0.8128l0.53058-2.1336q0.03387-0.1016 0.03387-0.14675 0-0.39511-0.21449-0.72249-0.21449-0.33867-0.56444-0.33867-0.33867 0-0.69991 0.36125-0.34996 0.36124-0.56444 0.89182-0.16933 0.39511-0.36124 1.1853-0.19191 0.77893-0.19191 1.174z" stroke-width=".26458"/></g><g stroke-width=".26458" style="font-feature-settings:normal;font-variant-caps:normal;font-variant-ligatures:normal;font-variant-numeric:normal" aria-label="l-1"><path d="m78.013 414.31q0-0.0508 0.02258-0.127l0.31327-1.2502q0.0085-0.0282 0.01975-0.0847 0.01129-0.0565 0.01976-0.0847-0.0254-3e-3 -0.06209-3e-3t-0.05644 0q-0.01693-3e-3 -0.03669-8e-3 -0.01693-6e-3 -0.0254-0.0169-0.0085-0.0141-0.0085-0.0367 0-0.048 0.03105-0.0677 0.01129-8e-3 0.11571-0.0141 0.10442-8e-3 0.2032-0.0113l0.09878-6e-3q0.06773 0 0.06773 0.0564 0 0.0141-0.0056 0.0367l-0.37818 1.5184q-0.03387 0.13547-0.03387 0.18909 0 0.0847 0.0508 0.0847 0.05362 0 0.09313-0.079 0.03951-0.0818 0.06491-0.1778t0.03105-0.10443q0.01693-0.0226 0.06491-0.0226 0.08184 0 0.08184 0.0451 0 0.0198-0.01976 0.0819-0.01693 0.0621-0.05362 0.14957-0.03669 0.0847-0.11007 0.14958-0.07338 0.0621-0.16369 0.0621-0.127 0-0.22578-0.0762t-0.09878-0.2032z"/><path d="m78.853 414q0-0.0169 0.03104-0.14111 0.0085-0.0367 0.0254-0.0508 0.01976-0.0169 0.06491-0.0169h0.63782q0.07338 0 0.07338 0.0564 0 0.0254-0.03669 0.1524-0.01411 0.0536-0.07902 0.0536h-0.64064q-0.0762 0-0.0762-0.0536z"/><path d="m80.115 414.5q0-0.079 0.08467-0.079h0.04516q0.18909 0 0.21731-8e-3 0.03104-0.0113 0.04516-0.0762l0.3048-1.2164q-0.19191 0.0818-0.32173 0.0818-0.07056 0-0.07056-0.0564 0-0.0339 0.01976-0.0536t0.04233-0.0226q0.02258-6e-3 0.06491-8e-3 0.04233-6e-3 0.06491-0.0113 0.27093-0.0564 0.47978-0.29916 0.03951-0.0452 0.07338-0.0452 0.05362 0 0.05362 0.0536 0 0.0254-0.01693 0.0931l-0.34996 1.3998-0.04233 0.16368q0.06491 6e-3 0.19473 6e-3h0.07056q0.07902 0 0.07902 0.0593 0 0.0762-0.07902 0.0762-0.01129 0-0.06773-3e-3 -0.05362-3e-3 -0.1524-3e-3 -0.09878-3e-3 -0.21167-3e-3 -0.1524 0-0.25682 3e-3 -0.10442 0-0.14958 3e-3 -0.04233 3e-3 -0.04798 3e-3 -0.07338 0-0.07338-0.0564z"/></g><g stroke-width=".26458" style="font-feature-settings:normal;font-variant-caps:normal;font-variant-ligatures:normal;font-variant-numeric:normal" aria-label="∗(l-1)"><path d="m78.142 417.3q0-0.0706 0.05927-0.11007 0.01976-0.0141 0.45438-0.16933-0.0508-0.0226-0.13547-0.0593-0.18627-0.0818-0.22013-0.1016-0.03104-0.0226-0.03104-0.0621 0-0.0564 0.04798-0.1016 0.04798-0.048 0.1016-0.048 0.0085 0 0.01411 3e-3 0.0085 0 0.01693 6e-3 0.0085 3e-3 0.01693 8e-3 0.0085 6e-3 0.02258 0.0169 0.01411 0.0113 0.0254 0.0254 0.01411 0.0113 0.03669 0.0367 0.02258 0.0226 0.04515 0.0452 0.0254 0.0226 0.06209 0.0621 0.03951 0.0367 0.0762 0.0734 0.03105-0.41486 0.05645-0.4572 0.04233-0.0734 0.12982-0.0734 0.03669 0 0.06491 0.0226t0.02822 0.0593q0 0.0226-0.17216 0.45156 0.07338-0.0508 0.18344-0.12418 0.17498-0.11854 0.20884-0.13829 0.03387-0.0198 0.06209-0.0198 0.03951 0 0.06491 0.031 0.0254 0.0282 0.0254 0.0649 0 0.0621-0.05927 0.10724-0.01693 0.0113-0.12982 0.0565-0.11289 0.0423-0.22013 0.079l-0.10442 0.0367q0.08185 0.0423 0.19473 0.0875 0.11289 0.0423 0.1524 0.0705 0.03951 0.0254 0.03951 0.0649 0 0.0508-0.04798 0.1016t-0.1016 0.0508q-0.0254 0-0.0508-0.0169-0.02258-0.0197-0.13264-0.13264-0.07902-0.079-0.13264-0.13265-0.03951 0.4318-0.05644 0.46002-0.04233 0.0734-0.127 0.0734-0.03669 0-0.06773-0.0226-0.02822-0.0226-0.02822-0.0593 0-0.0198 0.02258-0.0762t0.06773-0.17216q0.04798-0.11571 0.08185-0.20038-0.32738 0.22014-0.37536 0.24836-0.04516 0.0282-0.07902 0.0282-0.03951 0-0.06491-0.0282t-0.0254-0.0649z"/><path d="m79.903 417.53q0-0.2286 0.05927-0.47977 0.05927-0.25118 0.17498-0.50518t0.31327-0.49107q0.19756-0.23706 0.44873-0.40358 0.04233-0.031 0.0762-0.031 0.04798 0 0.04798 0.0367 0 0.0113-0.0085 0.0254-0.0085 0.0113-0.01693 0.0197-0.0085 6e-3 -0.0254 0.0198-0.01693 0.0141-0.01976 0.0169-0.27093 0.23989-0.46284 0.61525-0.19191 0.37535-0.27093 0.71402t-0.07902 0.62653q0 0.15805 0.02822 0.29351 0.02822 0.13547 0.05927 0.20038 0.03104 0.0677 0.06491 0.127 0.03669 0.0621 0.03951 0.0677 0.0085 0.0197-0.0056 0.0367-0.01129 0.0198-0.03669 0.0198h-0.0028q-0.0254 0-0.07056-0.0395-0.04233-0.0367-0.09878-0.11571-0.05362-0.0762-0.1016-0.18062-0.04798-0.10443-0.08184-0.25683-0.03105-0.1524-0.03105-0.31609z"/><path d="m81.017 417.48q0-0.0508 0.02258-0.127l0.31327-1.2502q0.0085-0.0282 0.01976-0.0847 0.01129-0.0565 0.01976-0.0847-0.0254-3e-3 -0.06209-3e-3t-0.05644 0q-0.01693-3e-3 -0.03669-8e-3 -0.01693-6e-3 -0.0254-0.0169-0.0085-0.0141-0.0085-0.0367 0-0.048 0.03104-0.0677 0.01129-8e-3 0.11571-0.0141 0.10442-8e-3 0.2032-0.0113l0.09878-6e-3q0.06773 0 0.06773 0.0564 0 0.0141-0.0056 0.0367l-0.37818 1.5184q-0.03387 0.13547-0.03387 0.18909 0 0.0847 0.0508 0.0847 0.05362 0 0.09313-0.079 0.03951-0.0818 0.06491-0.1778 0.0254-0.0959 0.03104-0.10442 0.01693-0.0226 0.06491-0.0226 0.08185 0 0.08185 0.0452 0 0.0198-0.01976 0.0818-0.01693 0.0621-0.05362 0.14958-0.03669 0.0847-0.11007 0.14958-0.07338 0.0621-0.16369 0.0621-0.127 0-0.22578-0.0762t-0.09878-0.2032z"/><path d="m81.857 417.18q0-0.0169 0.03105-0.14111 0.0085-0.0367 0.0254-0.0508 0.01975-0.0169 0.06491-0.0169h0.63782q0.07338 0 0.07338 0.0564 0 0.0254-0.03669 0.1524-0.01411 0.0536-0.07902 0.0536h-0.64064q-0.0762 0-0.0762-0.0536z"/><path d="m83.119 417.67q0-0.079 0.08467-0.079h0.04516q0.18909 0 0.21731-8e-3 0.03104-0.0113 0.04516-0.0762l0.3048-1.2164q-0.19191 0.0818-0.32173 0.0818-0.07055 0-0.07055-0.0564 0-0.0339 0.01976-0.0536t0.04233-0.0226q0.02258-6e-3 0.06491-8e-3 0.04233-6e-3 0.06491-0.0113 0.27093-0.0564 0.47978-0.29916 0.03951-0.0452 0.07338-0.0452 0.05362 0 0.05362 0.0536 0 0.0254-0.01693 0.0931l-0.34996 1.3998-0.04233 0.16369q0.06491 6e-3 0.19473 6e-3h0.07055q0.07902 0 0.07902 0.0593 0 0.0762-0.07902 0.0762-0.01129 0-0.06773-3e-3 -0.05362-3e-3 -0.1524-3e-3 -0.09878-3e-3 -0.21167-3e-3 -0.1524 0-0.25682 3e-3 -0.10442 0-0.14958 3e-3 -0.04233 3e-3 -0.04798 3e-3 -0.07338 0-0.07338-0.0564z"/><path d="m84.53 418.4q0-0.0254 0.05927-0.0762 0.22578-0.19755 0.39511-0.47695t0.25682-0.5588 0.127-0.51365q0.04233-0.23424 0.04233-0.41487 0-0.16086-0.02822-0.29633t-0.05927-0.20038q-0.03104-0.0677-0.06773-0.127-0.03387-0.0593-0.03669-0.0649-0.0085-0.0197 0.0028-0.0367 0.01411-0.0169 0.03951-0.0169t0.06773 0.0367q0.04515 0.0367 0.09878 0.11571 0.05644 0.079 0.10442 0.18344 0.0508 0.1016 0.08184 0.254 0.03387 0.1524 0.03387 0.31609 0 0.2286-0.05927 0.4826-0.05927 0.25118-0.1778 0.50518-0.11571 0.254-0.31609 0.49107-0.19756 0.23989-0.44873 0.4064-0.03669 0.0282-0.06773 0.0282-0.04798 0-0.04798-0.0367z"/></g></g></g><g transform="matrix(1.5 0 0 1.5 -54.636 -589.68)"><path d="m152.4 483.27a8.4667 8.4667 0 0 1-8.4667 8.4667 8.4667 8.4667 0 0 1-8.4667-8.4667 8.4667 8.4667 0 0 1 8.4667-8.4667 8.4667 8.4667 0 0 1 8.4667 8.4667z" fill="none" stroke="#000" stroke-linecap="round" stroke-linejoin="round" stroke-width=".52917"/><g transform="translate(-.59246 67.834)"><g style="font-feature-settings:normal;font-variant-caps:normal;font-variant-ligatures:normal;font-variant-numeric:normal" aria-label="a"><path d="m140.39 416.34q0-1.2305 0.82409-2.2916 0.82409-1.0724 1.7611-1.0724 0.64347 0 0.93698 0.66604 0.0903-0.44027 0.45155-0.44027 0.3048 0 0.3048 0.29351 0 0.079-0.0452 0.23707l-0.76765 3.0706q-0.079 0.31609-0.079 0.57573 0 0.46285 0.29351 0.46285 0.41769 0 0.75636-1.3434 0.0452-0.18062 0.079-0.21449 0.0339-0.0452 0.13547-0.0452 0.16933 0 0.16933 0.11289 0 0.0226-0.0452 0.2032-0.0339 0.16934-0.12417 0.44027-0.079 0.27093-0.16934 0.46284-0.3048 0.63218-0.82409 0.63218-0.32737 0-0.58702-0.19191-0.25964-0.2032-0.34995-0.59831-0.64347 0.79022-1.3547 0.79022-0.62089 0-0.99342-0.49671-0.37254-0.508-0.37254-1.2531zm0.76765 0.49672q0 0.37253 0.13547 0.68862 0.13546 0.31609 0.48542 0.31609 0.41769 0 0.86924-0.46285 0.46285-0.47413 0.54187-0.8128l0.53058-2.1336q0.0339-0.1016 0.0339-0.14675 0-0.39511-0.21449-0.72249-0.21448-0.33867-0.56444-0.33867-0.33867 0-0.69991 0.36125-0.34996 0.36124-0.56445 0.89182-0.16933 0.39511-0.36124 1.1853-0.19191 0.77893-0.19191 1.174z" stroke-width=".26458"/></g><g style="font-feature-settings:normal;font-variant-caps:normal;font-variant-ligatures:normal;font-variant-numeric:normal" aria-label="l"><path d="m145.75 414.31q0-0.0508 0.0226-0.127l0.31326-1.2502q8e-3 -0.0282 0.0198-0.0847 0.0113-0.0565 0.0198-0.0847-0.0254-3e-3 -0.0621-3e-3t-0.0564 0q-0.0169-3e-3 -0.0367-8e-3 -0.0169-6e-3 -0.0254-0.0169-8e-3 -0.0141-8e-3 -0.0367 0-0.048 0.031-0.0677 0.0113-8e-3 0.11571-0.0141 0.10442-8e-3 0.2032-0.0113l0.0988-6e-3q0.0677 0 0.0677 0.0564 0 0.0141-6e-3 0.0367l-0.37818 1.5184q-0.0339 0.13547-0.0339 0.18909 0 0.0847 0.0508 0.0847 0.0536 0 0.0931-0.079 0.0395-0.0818 0.0649-0.1778t0.031-0.10443q0.0169-0.0226 0.0649-0.0226 0.0819 0 0.0819 0.0451 0 0.0198-0.0198 0.0819-0.0169 0.0621-0.0536 0.14957-0.0367 0.0847-0.11007 0.14958-0.0734 0.0621-0.16369 0.0621-0.127 0-0.22577-0.0762-0.0988-0.0762-0.0988-0.2032z" stroke-width=".26458"/></g><g stroke-width=".26458" style="font-feature-settings:normal;font-variant-caps:normal;font-variant-ligatures:normal;font-variant-numeric:normal" aria-label="#l"><path d="m145.84 417.34q0-0.0508 0.0819-0.0508h0.52775l0.2794-0.52494h-0.64911q-0.0818 0-0.0818-0.0508t0.079-0.0508h0.7112q8e-3 -0.0141 0.0226-0.048 0.0169-0.0339 0.0254-0.048l0.37818-0.69991q0.0226-0.0395 0.031-0.0536 8e-3 -0.0141 0.0198-0.0254 0.0141-0.0113 0.031-0.0113 0.048 0 0.048 0.048 0 0.0226-0.0367 0.0875l-0.40358 0.75071h0.57856q0.0169-0.0339 0.0508-0.0959l0.37817-0.69991q0.0226-0.0395 0.031-0.0536 8e-3 -0.0141 0.0197-0.0254 0.0141-0.0113 0.031-0.0113 0.0452 0 0.0452 0.048 0 0.0254-0.0339 0.0875l-0.4064 0.75071h0.47695q0.0734 0 0.0734 0.0508t-0.079 0.0508h-0.52776l-0.28222 0.52494h0.65193q0.0818 0 0.0818 0.0508 0 0.0536-0.0818 0.0536h-0.70837l-0.42616 0.79022q-0.0452 0.0818-0.0649 0.0903-8e-3 3e-3 -0.0169 3e-3 -0.048 0-0.048-0.0508 0-0.0197 0.0339-0.0818l0.4064-0.75071h-0.57856l-0.42616 0.79022q-0.0226 0.0395-0.0339 0.0536-8e-3 0.0169-0.0226 0.0282-0.0113 0.0113-0.0282 0.0113-0.048 0-0.048-0.0508 0-0.0169 0.0367-0.0818l0.40358-0.75071h-0.47414q-0.0762 0-0.0762-0.0536zm0.72531-0.0508h0.57856l0.28222-0.52494h-0.58138z"/><path d="m148.41 417.48q0-0.0508 0.0226-0.127l0.31326-1.2502q8e-3 -0.0282 0.0198-0.0847 0.0113-0.0565 0.0198-0.0847-0.0254-3e-3 -0.0621-3e-3t-0.0564 0q-0.0169-3e-3 -0.0367-8e-3 -0.0169-6e-3 -0.0254-0.0169-8e-3 -0.0141-8e-3 -0.0367 0-0.048 0.0311-0.0677 0.0113-8e-3 0.11571-0.0141 0.10442-8e-3 0.2032-0.0113l0.0988-6e-3q0.0677 0 0.0677 0.0564 0 0.0141-6e-3 0.0367l-0.37818 1.5184q-0.0339 0.13547-0.0339 0.18909 0 0.0847 0.0508 0.0847 0.0536 0 0.0931-0.079 0.0395-0.0818 0.0649-0.1778 0.0254-0.0959 0.031-0.10442 0.0169-0.0226 0.0649-0.0226 0.0819 0 0.0819 0.0452 0 0.0198-0.0198 0.0818-0.0169 0.0621-0.0536 0.14958-0.0367 0.0847-0.11007 0.14958-0.0734 0.0621-0.16369 0.0621-0.127 0-0.22577-0.0762-0.0988-0.0762-0.0988-0.2032z"/></g></g></g><g transform="rotate(90 182.69 -165.36)" stroke-width=".41325" style="font-feature-settings:normal;font-variant-caps:normal;font-variant-ligatures:normal;font-variant-numeric:normal" aria-label="..."><path d="m426.12-8.2903q0-0.40554 0.33501-0.75818 0.35264-0.35264 0.79344-0.35264 0.335 0 0.54659 0.22922 0.21158 0.21158 0.21158 0.52896 0 0.40554-0.35264 0.75818-0.33501 0.35264-0.77581 0.35264-0.335 0-0.54659-0.21158-0.21158-0.22922-0.21158-0.54659z"/><path d="m431.52-8.2903q0-0.40554 0.335-0.75818 0.35264-0.35264 0.79344-0.35264 0.33501 0 0.5466 0.22922 0.21158 0.21158 0.21158 0.52896 0 0.40554-0.35264 0.75818-0.33501 0.35264-0.77581 0.35264-0.33501 0-0.54659-0.21158-0.21158-0.22922-0.21158-0.54659z"/><path d="m436.93-8.2903q0-0.40554 0.33501-0.75818 0.35264-0.35264 0.79344-0.35264 0.33501 0 0.5466 0.22922 0.21158 0.21158 0.21158 0.52896 0 0.40554-0.35264 0.75818-0.33501 0.35264-0.77581 0.35264-0.33501 0-0.54659-0.21158-0.21159-0.22922-0.21159-0.54659z"/></g><g transform="translate(17.331 -144.85)" stroke-width=".41325"><g transform="rotate(90)" style="font-feature-settings:normal;font-variant-caps:normal;font-variant-ligatures:normal;font-variant-numeric:normal" aria-label="..."><path d="m197.52-76.024q0-0.40554 0.33501-0.75818 0.35264-0.35264 0.79344-0.35264 0.335 0 0.54659 0.22922 0.21158 0.21158 0.21158 0.52896 0 0.40554-0.35264 0.75818-0.33501 0.35264-0.77581 0.35264-0.335 0-0.54659-0.21158-0.21158-0.22922-0.21158-0.54659z"/><path d="m202.92-76.024q0-0.40554 0.335-0.75818 0.35264-0.35264 0.79344-0.35264 0.33501 0 0.5466 0.22922 0.21158 0.21158 0.21158 0.52896 0 0.40554-0.35264 0.75818-0.33501 0.35264-0.77581 0.35264-0.33501 0-0.54659-0.21158-0.21158-0.22922-0.21158-0.54659z"/><path d="m208.33-76.024q0-0.40554 0.33501-0.75818 0.35264-0.35264 0.79344-0.35264 0.33501 0 0.54659 0.22922 0.21159 0.21158 0.21159 0.52896 0 0.40554-0.35264 0.75818-0.33501 0.35264-0.77581 0.35264-0.33501 0-0.54659-0.21158-0.21159-0.22922-0.21159-0.54659z"/></g><g transform="rotate(90)" style="font-feature-settings:normal;font-variant-caps:normal;font-variant-ligatures:normal;font-variant-numeric:normal" aria-label="..."><path d="m248.32-76.024q0-0.40554 0.33501-0.75818 0.35264-0.35264 0.79344-0.35264 0.33501 0 0.54659 0.22922 0.21158 0.21158 0.21158 0.52896 0 0.40554-0.35264 0.75818-0.335 0.35264-0.7758 0.35264-0.33501 0-0.5466-0.21158-0.21158-0.22922-0.21158-0.54659z"/><path d="m253.72-76.024q0-0.40554 0.33501-0.75818 0.35264-0.35264 0.79344-0.35264 0.33501 0 0.54659 0.22922 0.21158 0.21158 0.21158 0.52896 0 0.40554-0.35264 0.75818-0.335 0.35264-0.77581 0.35264-0.335 0-0.54659-0.21158-0.21158-0.22922-0.21158-0.54659z"/><path d="m259.13-76.024q0-0.40554 0.33501-0.75818 0.35264-0.35264 0.79344-0.35264 0.335 0 0.54659 0.22922 0.21158 0.21158 0.21158 0.52896 0 0.40554-0.35264 0.75818-0.33501 0.35264-0.77581 0.35264-0.335 0-0.54659-0.21158-0.21158-0.22922-0.21158-0.54659z"/></g></g><path d="m106.75 84.416h41.749" fill="none" stroke="#4caf50" stroke-linecap="round" stroke-linejoin="round" stroke-width="1.0583"/><g transform="matrix(1.5 0 0 1.5 -20.769 -564.28)"><path d="m84.667 432.47a8.4667 8.4667 0 0 1-8.4667 8.4667 8.4667 8.4667 0 0 1-8.4667-8.4667 8.4667 8.4667 0 0 1 8.4667-8.4667 8.4667 8.4667 0 0 1 8.4667 8.4667z" fill="none" stroke="#000" stroke-linecap="round" stroke-linejoin="round" stroke-width=".52917"/><g transform="translate(-.52181 67.924)"><g style="font-feature-settings:normal;font-variant-caps:normal;font-variant-ligatures:normal;font-variant-numeric:normal" aria-label="a"><path d="m72.653 365.54q0-1.2305 0.82409-2.2916 0.82409-1.0724 1.7611-1.0724 0.64347 0 0.93698 0.66604 0.09031-0.44026 0.45156-0.44026 0.3048 0 0.3048 0.29351 0 0.079-0.04516 0.23706l-0.76764 3.0706q-0.07902 0.31609-0.07902 0.57573 0 0.46285 0.29351 0.46285 0.41769 0 0.75636-1.3434 0.04515-0.18062 0.07902-0.21449 0.03387-0.0452 0.13547-0.0452 0.16933 0 0.16933 0.11289 0 0.0226-0.04516 0.2032-0.03387 0.16933-0.12418 0.44026-0.07902 0.27094-0.16933 0.46285-0.3048 0.63217-0.82409 0.63217-0.32738 0-0.58702-0.19191-0.25964-0.2032-0.34996-0.59831-0.64347 0.79022-1.3547 0.79022-0.62089 0-0.99342-0.49671-0.37253-0.508-0.37253-1.2531zm0.76764 0.49671q0 0.37253 0.13547 0.68862t0.48542 0.31609q0.41769 0 0.86924-0.46285 0.46284-0.47413 0.54187-0.8128l0.53058-2.1336q0.03387-0.1016 0.03387-0.14675 0-0.39511-0.21449-0.72249-0.21449-0.33867-0.56444-0.33867-0.33867 0-0.69991 0.36125-0.34996 0.36124-0.56444 0.89182-0.16933 0.39511-0.36124 1.1853-0.19191 0.77894-0.19191 1.174z" stroke-width=".26458"/></g><g stroke-width=".26458" style="font-feature-settings:normal;font-variant-caps:normal;font-variant-ligatures:normal;font-variant-numeric:normal" aria-label="l-1"><path d="m78.013 363.51q0-0.0508 0.02258-0.127l0.31327-1.2502q0.0085-0.0282 0.01975-0.0847 0.01129-0.0564 0.01976-0.0847-0.0254-3e-3 -0.06209-3e-3t-0.05644 0q-0.01693-3e-3 -0.03669-8e-3 -0.01693-6e-3 -0.0254-0.0169-0.0085-0.0141-0.0085-0.0367 0-0.048 0.03105-0.0677 0.01129-8e-3 0.11571-0.0141 0.10442-8e-3 0.2032-0.0113l0.09878-6e-3q0.06773 0 0.06773 0.0564 0 0.0141-0.0056 0.0367l-0.37818 1.5184q-0.03387 0.13547-0.03387 0.18909 0 0.0847 0.0508 0.0847 0.05362 0 0.09313-0.079 0.03951-0.0819 0.06491-0.1778 0.0254-0.096 0.03105-0.10442 0.01693-0.0226 0.06491-0.0226 0.08184 0 0.08184 0.0451 0 0.0198-0.01976 0.0819-0.01693 0.0621-0.05362 0.14958-0.03669 0.0847-0.11007 0.14957-0.07338 0.0621-0.16369 0.0621-0.127 0-0.22578-0.0762t-0.09878-0.2032z"/><path d="m78.853 363.2q0-0.0169 0.03104-0.14111 0.0085-0.0367 0.0254-0.0508 0.01976-0.0169 0.06491-0.0169h0.63782q0.07338 0 0.07338 0.0564 0 0.0254-0.03669 0.1524-0.01411 0.0536-0.07902 0.0536h-0.64064q-0.0762 0-0.0762-0.0536z"/><path d="m80.115 363.7q0-0.079 0.08467-0.079h0.04516q0.18909 0 0.21731-8e-3 0.03104-0.0113 0.04516-0.0762l0.3048-1.2164q-0.19191 0.0818-0.32173 0.0818-0.07056 0-0.07056-0.0564 0-0.0339 0.01976-0.0536t0.04233-0.0226q0.02258-6e-3 0.06491-8e-3 0.04233-6e-3 0.06491-0.0113 0.27093-0.0564 0.47978-0.29915 0.03951-0.0452 0.07338-0.0452 0.05362 0 0.05362 0.0536 0 0.0254-0.01693 0.0931l-0.34996 1.3998-0.04233 0.16369q0.06491 6e-3 0.19473 6e-3h0.07056q0.07902 0 0.07902 0.0593 0 0.0762-0.07902 0.0762-0.01129 0-0.06773-3e-3 -0.05362-3e-3 -0.1524-3e-3 -0.09878-3e-3 -0.21167-3e-3 -0.1524 0-0.25682 3e-3 -0.10442 0-0.14958 3e-3 -0.04233 3e-3 -0.04798 3e-3 -0.07338 0-0.07338-0.0565z"/></g><g style="font-feature-settings:normal;font-variant-caps:normal;font-variant-ligatures:normal;font-variant-numeric:normal" aria-label="i"><path d="m77.976 366.09q0-0.0423 0.04233-0.14111 0.04515-0.0988 0.1524-0.20038 0.10724-0.1016 0.23707-0.1016 0.12136 0 0.20602 0.0734 0.08749 0.0706 0.08749 0.18345 0 0.0677-0.1524 0.45155-0.14958 0.381-0.14958 0.45156 0 0.0536 0.04515 0.0536 0.05645 0 0.10724-0.0536 0.05362-0.0564 0.07902-0.11854 0.02822-0.0649 0.0508-0.127t0.0254-0.0649q0.01693-0.0197 0.05927-0.0197h0.01693q0.06773 0 0.06773 0.0451 0 0.0198-0.01693 0.0677-0.01411 0.048-0.0508 0.11288-0.03669 0.0649-0.08467 0.12418-0.04798 0.0564-0.12136 0.0988-0.07338 0.0395-0.15522 0.0395-0.11571 0-0.20602-0.0677-0.08749-0.0677-0.08749-0.18627 0-0.0677 0.14958-0.44873 0.1524-0.38382 0.1524-0.45438 0-0.0536-0.04798-0.0536-0.07056 0-0.14393 0.0988-0.04233 0.0593-0.06773 0.11853-0.02258 0.0593-0.02822 0.0931-0.0056 0.031-0.02258 0.0536-0.01693 0.0198-0.05645 0.0198h-0.01411q-0.07338 0-0.07338-0.048zm0.49107-0.92004q0-0.0762 0.05927-0.13265 0.06209-0.0593 0.13829-0.0593 0.05927 0 0.09878 0.0395t0.03951 0.0959q0 0.0706-0.05927 0.13265-0.05927 0.0593-0.13829 0.0593-0.05927 0-0.09878-0.0367-0.03951-0.0395-0.03951-0.0988z" stroke-width=".26458"/></g></g></g><g transform="translate(85.064 -144.85)" stroke-width=".41325"><g transform="rotate(90)" style="font-feature-settings:normal;font-variant-caps:normal;font-variant-ligatures:normal;font-variant-numeric:normal" aria-label="..."><path d="m197.52-76.024q0-0.40554 0.33501-0.75818 0.35264-0.35264 0.79344-0.35264 0.335 0 0.54659 0.22922 0.21158 0.21158 0.21158 0.52896 0 0.40554-0.35264 0.75818-0.33501 0.35264-0.77581 0.35264-0.335 0-0.54659-0.21158-0.21158-0.22922-0.21158-0.54659z"/><path d="m202.92-76.024q0-0.40554 0.335-0.75818 0.35264-0.35264 0.79344-0.35264 0.33501 0 0.5466 0.22922 0.21158 0.21158 0.21158 0.52896 0 0.40554-0.35264 0.75818-0.33501 0.35264-0.77581 0.35264-0.33501 0-0.54659-0.21158-0.21158-0.22922-0.21158-0.54659z"/><path d="m208.33-76.024q0-0.40554 0.33501-0.75818 0.35264-0.35264 0.79344-0.35264 0.33501 0 0.54659 0.22922 0.21159 0.21158 0.21159 0.52896 0 0.40554-0.35264 0.75818-0.33501 0.35264-0.77581 0.35264-0.33501 0-0.54659-0.21158-0.21159-0.22922-0.21159-0.54659z"/></g><g transform="rotate(90)" style="font-feature-settings:normal;font-variant-caps:normal;font-variant-ligatures:normal;font-variant-numeric:normal" aria-label="..."><path d="m248.32-76.024q0-0.40554 0.33501-0.75818 0.35264-0.35264 0.79344-0.35264 0.33501 0 0.54659 0.22922 0.21158 0.21158 0.21158 0.52896 0 0.40554-0.35264 0.75818-0.335 0.35264-0.7758 0.35264-0.33501 0-0.5466-0.21158-0.21158-0.22922-0.21158-0.54659z"/><path d="m253.72-76.024q0-0.40554 0.33501-0.75818 0.35264-0.35264 0.79344-0.35264 0.33501 0 0.54659 0.22922 0.21158 0.21158 0.21158 0.52896 0 0.40554-0.35264 0.75818-0.335 0.35264-0.77581 0.35264-0.335 0-0.54659-0.21158-0.21158-0.22922-0.21158-0.54659z"/><path d="m259.13-76.024q0-0.40554 0.33501-0.75818 0.35264-0.35264 0.79344-0.35264 0.335 0 0.54659 0.22922 0.21158 0.21158 0.21158 0.52896 0 0.40554-0.35264 0.75818-0.33501 0.35264-0.77581 0.35264-0.335 0-0.54659-0.21158-0.21158-0.22922-0.21158-0.54659z"/></g></g><g transform="matrix(1.5 0 0 1.5 -54.636 -564.28)"><path d="m152.4 432.47a8.4667 8.4667 0 0 1-8.4667 8.4667 8.4667 8.4667 0 0 1-8.4667-8.4667 8.4667 8.4667 0 0 1 8.4667-8.4667 8.4667 8.4667 0 0 1 8.4667 8.4667z" fill="none" stroke="#000" stroke-linecap="round" stroke-linejoin="round" stroke-width=".88194"/><g transform="translate(.49037 67.815)"><g style="font-feature-settings:normal;font-variant-caps:normal;font-variant-ligatures:normal;font-variant-numeric:normal" aria-label="a"><path d="m140.39 365.54q0-1.2305 0.82409-2.2916 0.82409-1.0724 1.7611-1.0724 0.64347 0 0.93698 0.66604 0.0903-0.44026 0.45155-0.44026 0.3048 0 0.3048 0.29351 0 0.079-0.0452 0.23706l-0.76765 3.0706q-0.079 0.31609-0.079 0.57573 0 0.46285 0.29351 0.46285 0.41769 0 0.75636-1.3434 0.0452-0.18062 0.079-0.21449 0.0339-0.0452 0.13547-0.0452 0.16933 0 0.16933 0.11289 0 0.0226-0.0452 0.2032-0.0339 0.16933-0.12417 0.44026-0.079 0.27094-0.16934 0.46285-0.3048 0.63217-0.82409 0.63217-0.32737 0-0.58702-0.19191-0.25964-0.2032-0.34995-0.59831-0.64347 0.79022-1.3547 0.79022-0.62089 0-0.99342-0.49671-0.37254-0.508-0.37254-1.2531zm0.76765 0.49671q0 0.37253 0.13547 0.68862 0.13546 0.31609 0.48542 0.31609 0.41769 0 0.86924-0.46285 0.46285-0.47413 0.54187-0.8128l0.53058-2.1336q0.0339-0.1016 0.0339-0.14675 0-0.39511-0.21449-0.72249-0.21448-0.33867-0.56444-0.33867-0.33867 0-0.69991 0.36125-0.34996 0.36124-0.56445 0.89182-0.16933 0.39511-0.36124 1.1853-0.19191 0.77894-0.19191 1.174z" stroke-width=".26458"/></g><g style="font-feature-settings:normal;font-variant-caps:normal;font-variant-ligatures:normal;font-variant-numeric:normal" aria-label="l"><path d="m145.75 363.51q0-0.0508 0.0226-0.127l0.31326-1.2502q8e-3 -0.0282 0.0198-0.0847 0.0113-0.0564 0.0198-0.0847-0.0254-3e-3 -0.0621-3e-3t-0.0564 0q-0.0169-3e-3 -0.0367-8e-3 -0.0169-6e-3 -0.0254-0.0169-8e-3 -0.0141-8e-3 -0.0367 0-0.048 0.031-0.0677 0.0113-8e-3 0.11571-0.0141 0.10442-8e-3 0.2032-0.0113l0.0988-6e-3q0.0677 0 0.0677 0.0564 0 0.0141-6e-3 0.0367l-0.37818 1.5184q-0.0339 0.13547-0.0339 0.18909 0 0.0847 0.0508 0.0847 0.0536 0 0.0931-0.079 0.0395-0.0819 0.0649-0.1778 0.0254-0.096 0.031-0.10442 0.0169-0.0226 0.0649-0.0226 0.0819 0 0.0819 0.0451 0 0.0198-0.0198 0.0819-0.0169 0.0621-0.0536 0.14958-0.0367 0.0847-0.11007 0.14957-0.0734 0.0621-0.16369 0.0621-0.127 0-0.22577-0.0762-0.0988-0.0762-0.0988-0.2032z" stroke-width=".26458"/></g><g style="font-feature-settings:normal;font-variant-caps:normal;font-variant-ligatures:normal;font-variant-numeric:normal" aria-label="q"><path d="m145.79 366.51q0-0.13829 0.0508-0.28786 0.0508-0.14958 0.14111-0.2794 0.0931-0.12983 0.23989-0.21167 0.14958-0.0847 0.32738-0.0847 0.15804 0 0.27657 0.11007 0.0536-0.048 0.12983-0.0762 0.079-0.0282 0.10724-0.0282 0.0536 0 0.0536 0.0508 0 0.0141-0.1016 0.41769l-0.3048 1.222q0.0677 6e-3 0.10443 6e-3h0.0113q0.0762 0 0.0762 0.0649 0 0.0677-0.079 0.0677-8e-3 0-0.0875-3e-3 -0.0762-3e-3 -0.22295-3e-3h-0.0508q-0.0508 0-0.12136 3e-3 -0.0677 3e-3 -0.0847 3e-3 -0.079 0-0.079-0.0564 0-0.0593 0.048-0.0734 0.0113-3e-3 0.0677-3e-3 0.0621 0 0.11572-0.0113l0.11288-0.45155q-0.14393 0.079-0.2794 0.079-0.0762 0-0.14957-0.0226-0.0706-0.0197-0.14394-0.0649-0.0706-0.048-0.11571-0.14111-0.0423-0.096-0.0423-0.22578zm0.3048 0.14958q0 0.10725 0.048 0.15522 0.0508 0.0452 0.11289 0.0452 0.10442 0 0.19473-0.0677 0.0931-0.0706 0.12135-0.127 0.0141-0.0282 0.0988-0.37254 0.0847-0.34713 0.0847-0.35842 0-0.0564-0.0564-0.11853-0.0564-0.0649-0.14675-0.0649-0.1524 0-0.25965 0.17497-0.0649 0.11289-0.13264 0.36689-0.0649 0.254-0.0649 0.36689z" stroke-width=".26458"/></g></g></g><g transform="rotate(90 182.69 -165.36)" stroke-width=".41325" style="font-feature-settings:normal;font-variant-caps:normal;font-variant-ligatures:normal;font-variant-numeric:normal" aria-label="..."><path d="m426.12-211.49q0-0.40553 0.33501-0.75817 0.35264-0.35264 0.79344-0.35264 0.335 0 0.54659 0.22921 0.21158 0.21159 0.21158 0.52896 0 0.40554-0.35264 0.75818-0.33501 0.35264-0.77581 0.35264-0.335 0-0.54659-0.21159-0.21158-0.22921-0.21158-0.54659z"/><path d="m431.52-211.49q0-0.40553 0.335-0.75817 0.35264-0.35264 0.79344-0.35264 0.33501 0 0.5466 0.22921 0.21158 0.21159 0.21158 0.52896 0 0.40554-0.35264 0.75818-0.33501 0.35264-0.77581 0.35264-0.33501 0-0.54659-0.21159-0.21158-0.22921-0.21158-0.54659z"/><path d="m436.93-211.49q0-0.40553 0.33501-0.75817 0.35264-0.35264 0.79344-0.35264 0.33501 0 0.5466 0.22921 0.21158 0.21159 0.21158 0.52896 0 0.40554-0.35264 0.75818-0.33501 0.35264-0.77581 0.35264-0.33501 0-0.54659-0.21159-0.21159-0.22921-0.21159-0.54659z"/></g><g transform="translate(17.331 -348.05)" fill="none" stroke="#000" stroke-linecap="round" stroke-linejoin="round" stroke-width=".52917"><path d="m18.027 491.25c1.0329-4.2333 2.0658-8.4667 3.0986-12.7"/><path d="m18.027 491.25c3.1495-4.2333 6.2991-8.4667 9.4486-12.7"/><path d="m18.027 491.25c3.1495-1.1065 6.2991-2.213 9.4486-3.3195"/></g><g transform="matrix(1.125 0 0 1.125 15.944 -409.93)" fill="#e91e63"><g transform="translate(-.94383 66.273)"><g style="font-feature-settings:normal;font-variant-caps:normal;font-variant-ligatures:normal;font-variant-numeric:normal" aria-label="a"><path d="m4.9198 424.81q0-1.2305 0.82409-2.2916 0.82409-1.0724 1.7611-1.0724 0.64347 0 0.93698 0.66604 0.090311-0.44026 0.45156-0.44026 0.3048 0 0.3048 0.29351 0 0.079-0.045156 0.23707l-0.76764 3.0706q-0.079022 0.31609-0.079022 0.57574 0 0.46284 0.29351 0.46284 0.41769 0 0.75636-1.3434 0.045156-0.18062 0.079022-0.21449 0.033867-0.0452 0.13547-0.0452 0.16933 0 0.16933 0.11289 0 0.0226-0.045155 0.2032-0.033867 0.16933-0.12418 0.44026-0.079022 0.27094-0.16933 0.46285-0.3048 0.63218-0.82409 0.63218-0.32738 0-0.58702-0.19191-0.25964-0.2032-0.34996-0.59832-0.64347 0.79023-1.3547 0.79023-0.62089 0-0.99342-0.49671-0.37253-0.508-0.37253-1.2531zm0.76764 0.49671q0 0.37253 0.13547 0.68862t0.48542 0.31609q0.41769 0 0.86924-0.46284 0.46284-0.47414 0.54187-0.8128l0.53058-2.1336q0.033867-0.1016 0.033867-0.14676 0-0.39511-0.21449-0.72249-0.21449-0.33866-0.56444-0.33866-0.33867 0-0.69991 0.36124-0.34996 0.36124-0.56444 0.89182-0.16933 0.39511-0.36124 1.1853-0.19191 0.77893-0.19191 1.174z" fill="#e91e63" stroke-width=".26458"/></g><g style="font-feature-settings:normal;font-variant-caps:normal;font-variant-ligatures:normal;font-variant-numeric:normal" aria-label="0"><path d="m10.341 422.58q0-0.18626 0.08749-0.52775t0.23142-0.55034q0.25118-0.36124 0.66604-0.36124 0.21449 0 0.3556 0.11571 0.14111 0.11289 0.14111 0.39229 0 0.18627-0.08467 0.52211-0.08467 0.33585-0.22296 0.53905-0.24553 0.37253-0.67451 0.37253-0.49953 0-0.49953-0.50236zm0.29351 0.14958q0 0.11571 0.06491 0.18345 0.06491 0.0649 0.16933 0.0649 0.11007 0 0.21167-0.0734 0.1016-0.0762 0.15522-0.2032 0.05927-0.13547 0.1778-0.59831 0.12136-0.46285 0.12136-0.62089 0-0.11571-0.06773-0.1778-0.06491-0.0621-0.16933-0.0621-0.09313 0-0.1778 0.0508-0.08184 0.048-0.13264 0.11853-0.09313 0.127-0.22296 0.64911-0.12982 0.52212-0.12982 0.66887z" fill="#e91e63" stroke-width=".26458"/></g><g stroke-width=".26458" style="font-feature-settings:normal;font-variant-caps:normal;font-variant-ligatures:normal;font-variant-numeric:normal" aria-label="#0"><path d="m10.375 425.8q0-0.0508 0.08184-0.0508h0.52776l0.2794-0.52493h-0.64911q-0.08184 0-0.08184-0.0508t0.07902-0.0508h0.7112q0.0085-0.0141 0.02258-0.048 0.01693-0.0339 0.0254-0.048l0.37818-0.69991q0.02258-0.0395 0.03104-0.0536 0.0085-0.0141 0.01976-0.0254 0.01411-0.0113 0.03104-0.0113 0.04798 0 0.04798 0.048 0 0.0226-0.03669 0.0875l-0.40358 0.75071h0.57856q0.01693-0.0339 0.0508-0.096l0.37818-0.69991q0.02258-0.0395 0.03104-0.0536 0.0085-0.0141 0.01976-0.0254 0.01411-0.0113 0.03104-0.0113 0.04516 0 0.04516 0.048 0 0.0254-0.03387 0.0875l-0.4064 0.75071h0.47696q0.07338 0 0.07338 0.0508t-0.07902 0.0508h-0.52776l-0.28222 0.52493h0.65193q0.08184 0 0.08184 0.0508 0 0.0536-0.08184 0.0536h-0.70838l-0.42616 0.79022q-0.04516 0.0818-0.06491 0.0903-0.0085 3e-3 -0.01693 3e-3 -0.04798 0-0.04798-0.0508 0-0.0198 0.03387-0.0818l0.4064-0.75071h-0.57856l-0.42616 0.79022q-0.02258 0.0395-0.03387 0.0536-0.0085 0.0169-0.02258 0.0282-0.01129 0.0113-0.02822 0.0113-0.04798 0-0.04798-0.0508 0-0.0169 0.03669-0.0818l0.40358-0.75071h-0.47413q-0.0762 0-0.0762-0.0536zm0.72531-0.0508h0.57856l0.28222-0.52493h-0.58138z"/><path d="m13.004 425.76q0-0.18626 0.08749-0.52775t0.23142-0.55034q0.25118-0.36124 0.66604-0.36124 0.21449 0 0.3556 0.11571 0.14111 0.11289 0.14111 0.39229 0 0.18627-0.08467 0.52211t-0.22296 0.53904q-0.24553 0.37254-0.67451 0.37254-0.49953 0-0.49953-0.50236zm0.29351 0.14958q0 0.11571 0.06491 0.18344 0.06491 0.0649 0.16933 0.0649 0.11007 0 0.21167-0.0734 0.1016-0.0762 0.15522-0.2032 0.05927-0.13547 0.1778-0.59831 0.12136-0.46285 0.12136-0.62089 0-0.11571-0.06773-0.1778-0.06491-0.0621-0.16933-0.0621-0.09313 0-0.1778 0.0508-0.08184 0.048-0.13264 0.11853-0.09313 0.127-0.22296 0.64911-0.12982 0.52211-0.12982 0.66887z"/></g></g><g stroke-width=".26458" style="font-feature-settings:normal;font-variant-caps:normal;font-variant-ligatures:normal;font-variant-numeric:normal" aria-label="=1"><path d="m6.7527 495.53q0-0.0508 0.081844-0.0508h2.001q0.073378 3e-3 0.073378 0.0508 0 0.0536-0.070556 0.0536h-2.0066q-0.079022 0-0.079022-0.0536zm0.079022-0.57573q-0.079022 0-0.079022-0.0508t0.081844-0.0508h2.001q0.073378 0 0.073378 0.048 0 0.0536-0.070556 0.0536z"/><path d="m9.3365 494.39v-0.13264h0.056444q0.34996 0 0.56727-0.16087 0.0254-0.0197 0.062089-0.0197 0.0508 0 0.06209 0.0197 0.01129 0.0169 0.01129 0.0706v1.6256h0.39511v0.13264q-0.12418-8e-3 -0.56162-8e-3t-0.56162 8e-3v-0.13264h0.39229v-1.4591q-0.17498 0.0564-0.36689 0.0564z"/></g></g><g transform="translate(17.331 -348.05)" fill="none" stroke-linecap="round" stroke-linejoin="round"><path d="m17.992 491.25a9.525 9.525 0 0 1-9.525 9.525 9.525 9.525 0 0 1-9.525-9.525 9.525 9.525 0 0 1 9.525-9.525 9.525 9.525 0 0 1 9.525 9.525z" stroke="#e91e63" stroke-width=".59531"/><g stroke="#000" stroke-width=".52917"><path d="m85.719 516.65c1.0466-4.2333 2.0932-8.4667 3.1398-12.7"/><path d="m85.719 516.65c3.1633-4.2333 6.3265-8.4667 9.4898-12.7"/><path d="m85.719 516.65c3.1633-1.4202 6.3265-2.8404 9.4898-4.2607"/></g></g><g transform="matrix(1.125 0 0 1.125 7.1498 -414.82)" fill="#e91e63"><g transform="translate(-2.8632,67.752)"><g style="font-feature-settings:normal;font-variant-caps:normal;font-variant-ligatures:normal;font-variant-numeric:normal" aria-label="a"><path d="m72.653 450.21q0-1.2305 0.82409-2.2916 0.82409-1.0724 1.7611-1.0724 0.64347 0 0.93698 0.66605 0.09031-0.44027 0.45156-0.44027 0.3048 0 0.3048 0.29351 0 0.079-0.04516 0.23707l-0.76764 3.0706q-0.07902 0.31609-0.07902 0.57573 0 0.46285 0.29351 0.46285 0.41769 0 0.75636-1.3434 0.04515-0.18062 0.07902-0.21449 0.03387-0.0452 0.13547-0.0452 0.16933 0 0.16933 0.11289 0 0.0226-0.04516 0.2032-0.03387 0.16934-0.12418 0.44027-0.07902 0.27093-0.16933 0.46284-0.3048 0.63218-0.82409 0.63218-0.32738 0-0.58702-0.19191-0.25964-0.2032-0.34996-0.59831-0.64347 0.79022-1.3547 0.79022-0.62089 0-0.99342-0.49671-0.37253-0.508-0.37253-1.2531zm0.76764 0.49671q0 0.37254 0.13547 0.68863t0.48542 0.31609q0.41769 0 0.86924-0.46285 0.46284-0.47413 0.54187-0.8128l0.53058-2.1336q0.03387-0.1016 0.03387-0.14675 0-0.39512-0.21449-0.72249-0.21449-0.33867-0.56444-0.33867-0.33867 0-0.69991 0.36124-0.34996 0.36125-0.56444 0.89183-0.16933 0.39511-0.36124 1.1853-0.19191 0.77893-0.19191 1.174z" fill="#e91e63" stroke-width=".26458"/></g><g stroke-width=".26458" style="font-feature-settings:normal;font-variant-caps:normal;font-variant-ligatures:normal;font-variant-numeric:normal" aria-label="l-1"><path d="m78.013 448.17q0-0.0508 0.02258-0.127l0.31327-1.2502q0.0085-0.0282 0.01975-0.0847 0.01129-0.0565 0.01976-0.0847-0.0254-3e-3 -0.06209-3e-3t-0.05644 0q-0.01693-3e-3 -0.03669-8e-3 -0.01693-6e-3 -0.0254-0.0169-0.0085-0.0141-0.0085-0.0367 0-0.048 0.03105-0.0677 0.01129-8e-3 0.11571-0.0141 0.10442-8e-3 0.2032-0.0113l0.09878-6e-3q0.06773 0 0.06773 0.0564 0 0.0141-0.0056 0.0367l-0.37818 1.5184q-0.03387 0.13547-0.03387 0.18909 0 0.0847 0.0508 0.0847 0.05362 0 0.09313-0.079 0.03951-0.0818 0.06491-0.1778 0.0254-0.0959 0.03105-0.10442 0.01693-0.0226 0.06491-0.0226 0.08184 0 0.08184 0.0452 0 0.0198-0.01976 0.0818-0.01693 0.0621-0.05362 0.14958-0.03669 0.0847-0.11007 0.14958-0.07338 0.0621-0.16369 0.0621-0.127 0-0.22578-0.0762t-0.09878-0.2032z"/><path d="m78.853 447.87q0-0.0169 0.03104-0.14111 0.0085-0.0367 0.0254-0.0508 0.01976-0.0169 0.06491-0.0169h0.63782q0.07338 0 0.07338 0.0564 0 0.0254-0.03669 0.1524-0.01411 0.0536-0.07902 0.0536h-0.64064q-0.0762 0-0.0762-0.0536z"/><path d="m80.115 448.36q0-0.079 0.08467-0.079h0.04516q0.18909 0 0.21731-8e-3 0.03104-0.0113 0.04516-0.0762l0.3048-1.2164q-0.19191 0.0818-0.32173 0.0818-0.07056 0-0.07056-0.0564 0-0.0339 0.01976-0.0536t0.04233-0.0226q0.02258-6e-3 0.06491-8e-3 0.04233-6e-3 0.06491-0.0113 0.27093-0.0564 0.47978-0.29916 0.03951-0.0452 0.07338-0.0452 0.05362 0 0.05362 0.0536 0 0.0254-0.01693 0.0931l-0.34996 1.3998-0.04233 0.16369q0.06491 6e-3 0.19473 6e-3h0.07056q0.07902 0 0.07902 0.0593 0 0.0762-0.07902 0.0762-0.01129 0-0.06773-3e-3 -0.05362-3e-3 -0.1524-3e-3 -0.09878-3e-3 -0.21167-3e-3 -0.1524 0-0.25682 3e-3 -0.10442 0-0.14958 3e-3 -0.04233 3e-3 -0.04798 3e-3 -0.07338 0-0.07338-0.0564z"/></g><g stroke-width=".26458" style="font-feature-settings:normal;font-variant-caps:normal;font-variant-ligatures:normal;font-variant-numeric:normal" aria-label="#(l-1)"><path d="m78.109 451.2q0-0.0508 0.08184-0.0508h0.52776l0.2794-0.52493h-0.64911q-0.08185 0-0.08185-0.0508t0.07902-0.0508h0.7112q0.0085-0.0141 0.02258-0.048 0.01693-0.0339 0.0254-0.048l0.37818-0.69992q0.02258-0.0395 0.03105-0.0536 0.0085-0.0141 0.01976-0.0254 0.01411-0.0113 0.03104-0.0113 0.04798 0 0.04798 0.048 0 0.0226-0.03669 0.0875l-0.40358 0.75071h0.57856q0.01693-0.0339 0.0508-0.0959l0.37818-0.69992q0.02258-0.0395 0.03105-0.0536 0.0085-0.0141 0.01975-0.0254 0.01411-0.0113 0.03105-0.0113 0.04515 0 0.04515 0.048 0 0.0254-0.03387 0.0875l-0.4064 0.75071h0.47696q0.07338 0 0.07338 0.0508t-0.07902 0.0508h-0.52776l-0.28222 0.52493h0.65193q0.08185 0 0.08185 0.0508 0 0.0536-0.08185 0.0536h-0.70838l-0.42616 0.79022q-0.04516 0.0818-0.06491 0.0903-0.0085 3e-3 -0.01693 3e-3 -0.04798 0-0.04798-0.0508 0-0.0197 0.03387-0.0818l0.4064-0.75071h-0.57856l-0.42616 0.79022q-0.02258 0.0395-0.03387 0.0536-0.0085 0.0169-0.02258 0.0282-0.01129 0.0113-0.02822 0.0113-0.04798 0-0.04798-0.0508 0-0.0169 0.03669-0.0818l0.40358-0.75071h-0.47413q-0.0762 0-0.0762-0.0536zm0.72531-0.0508h0.57856l0.28222-0.52493h-0.58138z"/><path d="m80.895 451.39q0-0.2286 0.05927-0.47977 0.05927-0.25118 0.17498-0.50518t0.31327-0.49107 0.44873-0.40358q0.04233-0.031 0.0762-0.031 0.04798 0 0.04798 0.0367 0 0.0113-0.0085 0.0254-0.0085 0.0113-0.01693 0.0197-0.0085 6e-3 -0.0254 0.0198-0.01693 0.0141-0.01976 0.0169-0.27093 0.23989-0.46284 0.61525-0.19191 0.37535-0.27093 0.71402t-0.07902 0.62653q0 0.15805 0.02822 0.29351 0.02822 0.13547 0.05927 0.20038 0.03105 0.0677 0.06491 0.127 0.03669 0.0621 0.03951 0.0677 0.0085 0.0198-0.0056 0.0367-0.01129 0.0198-0.03669 0.0198h-0.0028q-0.0254 0-0.07056-0.0395-0.04233-0.0367-0.09878-0.11571-0.05362-0.0762-0.1016-0.18063-0.04798-0.10442-0.08184-0.25682-0.03104-0.1524-0.03104-0.31609z"/><path d="m82.009 451.35q0-0.0508 0.02258-0.127l0.31327-1.2502q0.0085-0.0282 0.01976-0.0847 0.01129-0.0565 0.01976-0.0847-0.0254-3e-3 -0.06209-3e-3t-0.05644 0q-0.01693-3e-3 -0.03669-8e-3 -0.01693-6e-3 -0.0254-0.0169-0.0085-0.0141-0.0085-0.0367 0-0.048 0.03104-0.0677 0.01129-8e-3 0.11571-0.0141 0.10442-8e-3 0.2032-0.0113l0.09878-6e-3q0.06773 0 0.06773 0.0564 0 0.0141-0.0056 0.0367l-0.37818 1.5184q-0.03387 0.13547-0.03387 0.18909 0 0.0847 0.0508 0.0847 0.05362 0 0.09313-0.079 0.03951-0.0818 0.06491-0.1778 0.0254-0.0959 0.03104-0.10442 0.01693-0.0226 0.06491-0.0226 0.08184 0 0.08184 0.0452 0 0.0198-0.01976 0.0818-0.01693 0.0621-0.05362 0.14958-0.03669 0.0847-0.11007 0.14958-0.07338 0.0621-0.16369 0.0621-0.127 0-0.22578-0.0762t-0.09878-0.2032z"/><path d="m82.85 451.05q0-0.0169 0.03104-0.14111 0.0085-0.0367 0.0254-0.0508 0.01976-0.0169 0.06491-0.0169h0.63782q0.07338 0 0.07338 0.0564 0 0.0254-0.03669 0.1524-0.01411 0.0536-0.07902 0.0536h-0.64064q-0.0762 0-0.0762-0.0536z"/><path d="m84.111 451.54q0-0.079 0.08467-0.079h0.04515q0.18909 0 0.21731-8e-3 0.03104-0.0113 0.04515-0.0762l0.3048-1.2164q-0.19191 0.0818-0.32173 0.0818-0.07056 0-0.07056-0.0564 0-0.0339 0.01976-0.0536 0.01975-0.0198 0.04233-0.0226 0.02258-6e-3 0.06491-8e-3 0.04233-6e-3 0.06491-0.0113 0.27093-0.0564 0.47978-0.29916 0.03951-0.0452 0.07338-0.0452 0.05362 0 0.05362 0.0536 0 0.0254-0.01693 0.0931l-0.34996 1.3998-0.04233 0.16369q0.06491 6e-3 0.19473 6e-3h0.07056q0.07902 0 0.07902 0.0593 0 0.0762-0.07902 0.0762-0.01129 0-0.06773-3e-3 -0.05362-3e-3 -0.1524-3e-3 -0.09878-3e-3 -0.21167-3e-3 -0.1524 0-0.25682 3e-3 -0.10442 0-0.14958 3e-3 -0.04233 3e-3 -0.04798 3e-3 -0.07338 0-0.07338-0.0564z"/><path d="m85.522 452.26q0-0.0254 0.05927-0.0762 0.22578-0.19756 0.39511-0.47696t0.25682-0.5588 0.127-0.51364q0.04233-0.23424 0.04233-0.41487 0-0.16086-0.02822-0.29633t-0.05927-0.20038q-0.03104-0.0677-0.06773-0.127-0.03387-0.0593-0.03669-0.0649-0.0085-0.0197 0.0028-0.0367 0.01411-0.0169 0.03951-0.0169t0.06773 0.0367q0.04515 0.0367 0.09878 0.11571 0.05644 0.079 0.10442 0.18344 0.0508 0.1016 0.08184 0.254 0.03387 0.1524 0.03387 0.31609 0 0.2286-0.05927 0.4826-0.05927 0.25118-0.1778 0.50518-0.11571 0.254-0.31609 0.49107-0.19756 0.23989-0.44873 0.4064-0.03669 0.0282-0.06773 0.0282-0.04798 0-0.04798-0.0367z"/></g></g><g stroke-width=".26458" style="font-feature-settings:normal;font-variant-caps:normal;font-variant-ligatures:normal;font-variant-numeric:normal" aria-label="=1"><path d="m74.249 522.57q0-0.0508 0.08184-0.0508h2.001q0.07338 3e-3 0.07338 0.0508 0 0.0536-0.07055 0.0536h-2.0066q-0.07902 0-0.07902-0.0536zm0.07902-0.57574q-0.07902 0-0.07902-0.0508t0.08184-0.0508h2.001q0.07338 0 0.07338 0.048 0 0.0536-0.07055 0.0536z"/><path d="m76.833 521.43v-0.13265h0.05644q0.34996 0 0.56727-0.16086 0.0254-0.0198 0.06209-0.0198 0.0508 0 0.06209 0.0198 0.01129 0.0169 0.01129 0.0705v1.6256h0.39511v0.13265q-0.12418-8e-3 -0.56162-8e-3t-0.56162 8e-3v-0.1326h0.39229v-1.4591q-0.17498 0.0565-0.36689 0.0565z"/></g></g><g transform="translate(17.331 -348.05)" fill="none" stroke-linecap="round" stroke-linejoin="round"><path d="m85.725 516.65a9.525 9.525 0 0 1-9.525 9.525 9.525 9.525 0 0 1-9.525-9.525 9.525 9.525 0 0 1 9.525-9.525 9.525 9.525 0 0 1 9.525 9.525z" stroke="#e91e63" stroke-width=".59531"/><path d="m153.43 516.65c1.0535-4.2333 2.1069-8.4667 3.1604-12.7" stroke="#000" stroke-width=".52917"/><path d="m153.43 516.65c3.1701-4.2333 6.3402-8.4667 9.5104-12.7" stroke="#000" stroke-width=".52917"/></g><g transform="matrix(1.125 0 0 1.125 -.91125 -414.82)" fill="#e91e63"><g transform="translate(-.59246 67.834)"><g style="font-feature-settings:normal;font-variant-caps:normal;font-variant-ligatures:normal;font-variant-numeric:normal" aria-label="a"><path d="m140.39 450.21q0-1.2305 0.82409-2.2916 0.82409-1.0724 1.7611-1.0724 0.64347 0 0.93698 0.66605 0.0903-0.44027 0.45155-0.44027 0.3048 0 0.3048 0.29351 0 0.079-0.0452 0.23707l-0.76765 3.0706q-0.079 0.31609-0.079 0.57573 0 0.46285 0.29351 0.46285 0.41769 0 0.75636-1.3434 0.0452-0.18062 0.079-0.21449 0.0339-0.0452 0.13547-0.0452 0.16933 0 0.16933 0.11289 0 0.0226-0.0452 0.2032-0.0339 0.16934-0.12417 0.44027-0.079 0.27093-0.16934 0.46284-0.3048 0.63218-0.82409 0.63218-0.32737 0-0.58702-0.19191-0.25964-0.2032-0.34995-0.59831-0.64347 0.79022-1.3547 0.79022-0.62089 0-0.99342-0.49671-0.37254-0.508-0.37254-1.2531zm0.76765 0.49671q0 0.37254 0.13547 0.68863 0.13546 0.31609 0.48542 0.31609 0.41769 0 0.86924-0.46285 0.46285-0.47413 0.54187-0.8128l0.53058-2.1336q0.0339-0.1016 0.0339-0.14675 0-0.39512-0.21449-0.72249-0.21448-0.33867-0.56444-0.33867-0.33867 0-0.69991 0.36124-0.34996 0.36125-0.56445 0.89183-0.16933 0.39511-0.36124 1.1853-0.19191 0.77893-0.19191 1.174z" fill="#e91e63" stroke-width=".26458"/></g><g style="font-feature-settings:normal;font-variant-caps:normal;font-variant-ligatures:normal;font-variant-numeric:normal" aria-label="l"><path d="m145.75 448.17q0-0.0508 0.0226-0.127l0.31326-1.2502q8e-3 -0.0282 0.0198-0.0847 0.0113-0.0565 0.0198-0.0847-0.0254-3e-3 -0.0621-3e-3t-0.0564 0q-0.0169-3e-3 -0.0367-8e-3 -0.0169-6e-3 -0.0254-0.0169-8e-3 -0.0141-8e-3 -0.0367 0-0.048 0.031-0.0677 0.0113-8e-3 0.11571-0.0141 0.10442-8e-3 0.2032-0.0113l0.0988-6e-3q0.0677 0 0.0677 0.0564 0 0.0141-6e-3 0.0367l-0.37818 1.5184q-0.0339 0.13547-0.0339 0.18909 0 0.0847 0.0508 0.0847 0.0536 0 0.0931-0.079 0.0395-0.0818 0.0649-0.1778 0.0254-0.0959 0.031-0.10442 0.0169-0.0226 0.0649-0.0226 0.0819 0 0.0819 0.0452 0 0.0198-0.0198 0.0818-0.0169 0.0621-0.0536 0.14958-0.0367 0.0847-0.11007 0.14958-0.0734 0.0621-0.16369 0.0621-0.127 0-0.22577-0.0762-0.0988-0.0762-0.0988-0.2032z" fill="#e91e63" stroke-width=".26458"/></g><g stroke-width=".26458" style="font-feature-settings:normal;font-variant-caps:normal;font-variant-ligatures:normal;font-variant-numeric:normal" aria-label="#l"><path d="m145.84 451.2q0-0.0508 0.0819-0.0508h0.52775l0.2794-0.52493h-0.64911q-0.0818 0-0.0818-0.0508t0.079-0.0508h0.7112q8e-3 -0.0141 0.0226-0.048 0.0169-0.0339 0.0254-0.048l0.37818-0.69992q0.0226-0.0395 0.031-0.0536 8e-3 -0.0141 0.0198-0.0254 0.0141-0.0113 0.031-0.0113 0.048 0 0.048 0.048 0 0.0226-0.0367 0.0875l-0.40358 0.75071h0.57856q0.0169-0.0339 0.0508-0.0959l0.37817-0.69992q0.0226-0.0395 0.031-0.0536 8e-3 -0.0141 0.0197-0.0254 0.0141-0.0113 0.031-0.0113 0.0452 0 0.0452 0.048 0 0.0254-0.0339 0.0875l-0.4064 0.75071h0.47695q0.0734 0 0.0734 0.0508t-0.079 0.0508h-0.52776l-0.28222 0.52493h0.65193q0.0818 0 0.0818 0.0508 0 0.0536-0.0818 0.0536h-0.70837l-0.42616 0.79022q-0.0452 0.0818-0.0649 0.0903-8e-3 3e-3 -0.0169 3e-3 -0.048 0-0.048-0.0508 0-0.0197 0.0339-0.0818l0.4064-0.75071h-0.57856l-0.42616 0.79022q-0.0226 0.0395-0.0339 0.0536-8e-3 0.0169-0.0226 0.0282-0.0113 0.0113-0.0282 0.0113-0.048 0-0.048-0.0508 0-0.0169 0.0367-0.0818l0.40358-0.75071h-0.47414q-0.0762 0-0.0762-0.0536zm0.72531-0.0508h0.57856l0.28222-0.52493h-0.58138z"/><path d="m148.41 451.35q0-0.0508 0.0226-0.127l0.31326-1.2502q8e-3 -0.0282 0.0198-0.0847 0.0113-0.0565 0.0198-0.0847-0.0254-3e-3 -0.0621-3e-3t-0.0564 0q-0.0169-3e-3 -0.0367-8e-3 -0.0169-6e-3 -0.0254-0.0169-8e-3 -0.0141-8e-3 -0.0367 0-0.048 0.0311-0.0677 0.0113-8e-3 0.11571-0.0141 0.10442-8e-3 0.2032-0.0113l0.0988-6e-3q0.0677 0 0.0677 0.0564 0 0.0141-6e-3 0.0367l-0.37818 1.5184q-0.0339 0.13547-0.0339 0.18909 0 0.0847 0.0508 0.0847 0.0536 0 0.0931-0.079 0.0395-0.0818 0.0649-0.1778 0.0254-0.0959 0.031-0.10442 0.0169-0.0226 0.0649-0.0226 0.0819 0 0.0819 0.0452 0 0.0198-0.0198 0.0818-0.0169 0.0621-0.0536 0.14958-0.0367 0.0847-0.11007 0.14958-0.0734 0.0621-0.16369 0.0621-0.127 0-0.22577-0.0762-0.0988-0.0762-0.0988-0.2032z"/></g></g><g stroke-width=".26458" style="font-feature-settings:normal;font-variant-caps:normal;font-variant-ligatures:normal;font-variant-numeric:normal" aria-label="=1"><path d="m142.54 522.49q0-0.0508 0.0818-0.0508h2.001q0.0734 3e-3 0.0734 0.0508 0 0.0536-0.0706 0.0536h-2.0066q-0.079 0-0.079-0.0536zm0.079-0.57573q-0.079 0-0.079-0.0508t0.0818-0.0508h2.001q0.0734 0 0.0734 0.048 0 0.0536-0.0706 0.0536z"/><path d="m145.13 521.35v-0.13264h0.0564q0.34996 0 0.56727-0.16087 0.0254-0.0198 0.0621-0.0198 0.0508 0 0.0621 0.0198 0.0113 0.0169 0.0113 0.0706v1.6256h0.39511v0.13265q-0.12418-8e-3 -0.56163-8e-3 -0.43744 0-0.56162 8e-3v-0.13265h0.39229v-1.4591q-0.17498 0.0564-0.36689 0.0564z"/></g></g><path d="m170.79 168.6a9.525 9.525 0 0 1-9.525 9.525 9.525 9.525 0 0 1-9.525-9.525 9.525 9.525 0 0 1 9.525-9.525 9.525 9.525 0 0 1 9.525 9.525z" fill="none" stroke="#e91e63" stroke-linecap="round" stroke-linejoin="round" stroke-width=".59531"/><path d="m238.52 143.68a9.525 9.525 0 0 1-9.525 9.525 9.525 9.525 0 0 1-9.525-9.525 9.525 9.525 0 0 1 9.525-9.525 9.525 9.525 0 0 1 9.525 9.525z" fill="none" stroke="#e91e63" stroke-linecap="round" stroke-linejoin="round" stroke-width=".59531"/><g transform="matrix(1.125 0 0 1.125 -9.4212 -411.15)" fill="#e91e63"><g transform="translate(-1.0412,67.818)"><g style="font-feature-settings:normal;font-variant-caps:normal;font-variant-ligatures:normal;font-variant-numeric:normal" aria-label="a"><path d="m208.12 424.81q0-1.2305 0.82409-2.2916 0.82409-1.0724 1.7611-1.0724 0.64346 0 0.93698 0.66604 0.0903-0.44026 0.45155-0.44026 0.3048 0 0.3048 0.29351 0 0.079-0.0452 0.23707l-0.76765 3.0706q-0.079 0.31609-0.079 0.57574 0 0.46284 0.29351 0.46284 0.41769 0 0.75636-1.3434 0.0452-0.18062 0.079-0.21449 0.0339-0.0452 0.13546-0.0452 0.16934 0 0.16934 0.11289 0 0.0226-0.0452 0.2032-0.0339 0.16933-0.12418 0.44026-0.079 0.27094-0.16933 0.46285-0.3048 0.63218-0.82409 0.63218-0.32738 0-0.58702-0.19191-0.25964-0.2032-0.34996-0.59832-0.64346 0.79023-1.3547 0.79023-0.62089 0-0.99342-0.49671-0.37254-0.508-0.37254-1.2531zm0.76765 0.49671q0 0.37253 0.13546 0.68862 0.13547 0.31609 0.48543 0.31609 0.41768 0 0.86924-0.46284 0.46284-0.47414 0.54187-0.8128l0.53057-2.1336q0.0339-0.1016 0.0339-0.14676 0-0.39511-0.21449-0.72249-0.21449-0.33866-0.56444-0.33866-0.33867 0-0.69991 0.36124-0.34996 0.36124-0.56445 0.89182-0.16933 0.39511-0.36124 1.1853-0.19191 0.77893-0.19191 1.174z" fill="#e91e63" stroke-width=".26458"/></g><g style="font-feature-settings:normal;font-variant-caps:normal;font-variant-ligatures:normal;font-variant-numeric:normal" aria-label="L"><path d="m213.41 422.96q0-0.079 0.0818-0.079h0.0565q0.13828 0 0.18626-0.0113l0.41205-1.6482q-0.0536-6e-3 -0.16369-6e-3h-0.0508q-0.0706 0-0.0706-0.0593 0-0.0762 0.0762-0.0762 8e-3 0 0.0226 3e-3 0.0141 0 0.0198 0 0.18062 6e-3 0.45437 6e-3 0.11289 0 0.20885 0 0.0988-3e-3 0.1524-6e-3 0.0564-3e-3 0.0677-3e-3 0.0706 0 0.0706 0.0564 0 0.079-0.0847 0.079h-0.0564q-0.19756 0-0.25965 0.0141l-0.41204 1.6482q0.0339 3e-3 0.1016 3e-3h0.10442q0.14675 0 0.25964-0.0452 0.11289-0.048 0.18909-0.13547 0.079-0.0903 0.127-0.18062 0.048-0.0903 0.096-0.21731 0.0226-0.0621 0.0818-0.0621 0.079 0 0.079 0.0564 0 0.0169-0.23424 0.65758-0.0141 0.0395-0.031 0.0508t-0.0565 0.0113h-1.3603q-0.0677-3e-3 -0.0677-0.0564z" fill="#e91e63" stroke-width=".26458"/></g><g stroke-width=".26458" style="font-feature-settings:normal;font-variant-caps:normal;font-variant-ligatures:normal;font-variant-numeric:normal" aria-label="#L"><path d="m213.58 425.8q0-0.0508 0.0818-0.0508h0.52776l0.2794-0.52493h-0.64911q-0.0819 0-0.0819-0.0508t0.079-0.0508h0.7112q8e-3 -0.0141 0.0226-0.048 0.0169-0.0339 0.0254-0.048l0.37818-0.69991q0.0226-0.0395 0.031-0.0536 8e-3 -0.0141 0.0197-0.0254 0.0141-0.0113 0.0311-0.0113 0.048 0 0.048 0.048 0 0.0226-0.0367 0.0875l-0.40358 0.75071h0.57855q0.0169-0.0339 0.0508-0.096l0.37818-0.69991q0.0226-0.0395 0.031-0.0536 8e-3 -0.0141 0.0197-0.0254 0.0141-0.0113 0.0311-0.0113 0.0451 0 0.0451 0.048 0 0.0254-0.0339 0.0875l-0.4064 0.75071h0.47696q0.0734 0 0.0734 0.0508t-0.079 0.0508h-0.52776l-0.28222 0.52493h0.65193q0.0819 0 0.0819 0.0508 0 0.0536-0.0819 0.0536h-0.70838l-0.42615 0.79022q-0.0452 0.0818-0.0649 0.0903-8e-3 3e-3 -0.0169 3e-3 -0.048 0-0.048-0.0508 0-0.0198 0.0339-0.0818l0.4064-0.75071h-0.57855l-0.42616 0.79022q-0.0226 0.0395-0.0339 0.0536-8e-3 0.0169-0.0226 0.0282-0.0113 0.0113-0.0282 0.0113-0.048 0-0.048-0.0508 0-0.0169 0.0367-0.0818l0.40357-0.75071h-0.47413q-0.0762 0-0.0762-0.0536zm0.72531-0.0508h0.57856l0.28222-0.52493h-0.58138z"/><path d="m216.07 426.14q0-0.079 0.0818-0.079h0.0565q0.13828 0 0.18626-0.0113l0.41205-1.6482q-0.0536-6e-3 -0.16369-6e-3h-0.0508q-0.0706 0-0.0706-0.0593 0-0.0762 0.0762-0.0762 8e-3 0 0.0226 3e-3 0.0141 0 0.0198 0 0.18062 6e-3 0.45437 6e-3 0.11289 0 0.20885 0 0.0988-3e-3 0.1524-6e-3 0.0564-3e-3 0.0677-3e-3 0.0706 0 0.0706 0.0564 0 0.079-0.0847 0.079h-0.0564q-0.19756 0-0.25965 0.0141l-0.41204 1.6482q0.0339 3e-3 0.1016 3e-3h0.10442q0.14675 0 0.25964-0.0452 0.11289-0.048 0.18909-0.13547 0.079-0.0903 0.127-0.18062 0.048-0.0903 0.096-0.21731 0.0226-0.0621 0.0818-0.0621 0.079 0 0.079 0.0564 0 0.0169-0.23424 0.65758-0.0141 0.0395-0.031 0.0508t-0.0564 0.0113h-1.3603q-0.0677-3e-3 -0.0677-0.0565z"/></g></g><g stroke-width=".26458" style="font-feature-settings:normal;font-variant-caps:normal;font-variant-ligatures:normal;font-variant-numeric:normal" aria-label="=1"><path d="m209.75 497.07q0-0.0508 0.0819-0.0508h2.001q0.0734 3e-3 0.0734 0.0508 0 0.0536-0.0706 0.0536h-2.0066q-0.079 0-0.079-0.0536zm0.079-0.57573q-0.079 0-0.079-0.0508t0.0819-0.0508h2.001q0.0734 0 0.0734 0.048 0 0.0536-0.0706 0.0536z"/><path d="m212.33 495.93v-0.13264h0.0564q0.34995 0 0.56727-0.16087 0.0254-0.0197 0.0621-0.0197 0.0508 0 0.0621 0.0197 0.0113 0.0169 0.0113 0.0706v1.6256h0.39511v0.13264q-0.12417-8e-3 -0.56162-8e-3 -0.43744 0-0.56162 8e-3v-0.13264h0.39229v-1.4591q-0.17498 0.0564-0.36689 0.0564z"/></g></g><g transform="matrix(1.6001 0 0 1.6001 -76.74 -576.37)" fill="#4caf50" stroke-width=".33071"><g style="font-feature-settings:normal;font-variant-caps:normal;font-variant-ligatures:normal;font-variant-numeric:normal" aria-label="w"><path d="m123.05 406.61q0-0.0254 0.0339-0.1524t0.11853-0.32173q0.0931-0.2032 0.2032-0.381 0.11853-0.18627 0.31327-0.31327 0.19473-0.13546 0.41486-0.13546 0.2794 0 0.4572 0.18626 0.18627 0.18627 0.18627 0.49954 0 0.16933-0.1016 0.44873-0.4826 1.2785-0.4826 1.778 0 0.0847 8e-3 0.16933 0.0169 0.0847 0.0593 0.23707 0.0508 0.14393 0.18627 0.23707 0.13547 0.0931 0.33867 0.0931 0.28786 0 0.49953-0.32173 0.21167-0.3302 0.21167-0.47414 0-0.26246 0.0677-0.5334l0.4826-1.9304q0.0762-0.29633 0.32173-0.29633 0.11854 0 0.1778 0.0677 0.0593 0.0677 0.0593 0.1524 0 0.0593-0.13547 0.5588l-0.3556 1.4224q-0.1016 0.4064-0.1016 0.65194 0 0.3048 0.127 0.508 0.13547 0.19473 0.4318 0.19473 0.51647 0 0.84667-0.7874 0.127-0.3048 0.27093-0.82127 0.14394-0.51646 0.14394-0.75353 0-0.42333-0.2286-0.66887-0.11007-0.127-0.11007-0.2286 0-0.14393 0.127-0.26246 0.13547-0.127 0.2794-0.127 0.1778 0 0.26247 0.16086 0.0847 0.1524 0.0847 0.39794 0 0.33866-0.19473 1.1176-0.19473 0.77893-0.38947 1.2107-0.39793 0.94827-1.1176 0.94827-0.36406 0-0.61806-0.14394-0.24554-0.1524-0.34714-0.39793-0.32173 0.54187-0.82126 0.54187-0.49954 0-0.79587-0.26247-0.28787-0.26247-0.28787-0.77893 0-0.44874 0.42334-1.6002 0.2032-0.56727 0.2032-0.762 0-0.24554-0.18627-0.24554-0.508 0-0.7874 1.0668-0.0254 0.0931-0.0508 0.11854-0.0254 0.0169-0.1016 0.0169-0.127 0-0.127-0.0847z" fill="#4caf50" stroke-width=".33071"/></g><g stroke-width=".33071" style="font-feature-settings:normal;font-variant-caps:normal;font-variant-ligatures:normal;font-variant-numeric:normal" aria-label="l-1"><path d="m129.3 405.92q0-0.0508 0.0226-0.127l0.31327-1.2502q8e-3 -0.0282 0.0198-0.0847 0.0113-0.0564 0.0198-0.0847-0.0254-3e-3 -0.0621-3e-3t-0.0564 0q-0.0169-3e-3 -0.0367-8e-3 -0.0169-6e-3 -0.0254-0.0169-8e-3 -0.0141-8e-3 -0.0367 0-0.048 0.031-0.0677 0.0113-8e-3 0.11571-0.0141 0.10442-8e-3 0.2032-0.0113l0.0988-6e-3q0.0677 0 0.0677 0.0564 0 0.0141-6e-3 0.0367l-0.37817 1.5184q-0.0339 0.13546-0.0339 0.18909 0 0.0847 0.0508 0.0847 0.0536 0 0.0931-0.079 0.0395-0.0818 0.0649-0.1778t0.031-0.10442q0.0169-0.0226 0.0649-0.0226 0.0818 0 0.0818 0.0452 0 0.0197-0.0197 0.0818-0.0169 0.0621-0.0536 0.14958-0.0367 0.0847-0.11007 0.14958-0.0734 0.0621-0.16369 0.0621-0.127 0-0.22578-0.0762-0.0988-0.0762-0.0988-0.2032z"/><path d="m130.14 405.62q0-0.0169 0.0311-0.14111 8e-3 -0.0367 0.0254-0.0508 0.0197-0.0169 0.0649-0.0169h0.63782q0.0734 0 0.0734 0.0564 0 0.0254-0.0367 0.1524-0.0141 0.0536-0.079 0.0536h-0.64065q-0.0762 0-0.0762-0.0536z"/><path d="m131.41 406.11q0-0.079 0.0847-0.079h0.0452q0.18909 0 0.21731-8e-3 0.031-0.0113 0.0451-0.0762l0.3048-1.2164q-0.19191 0.0818-0.32173 0.0818-0.0706 0-0.0706-0.0564 0-0.0339 0.0198-0.0536 0.0198-0.0198 0.0423-0.0226 0.0226-6e-3 0.0649-8e-3 0.0423-6e-3 0.0649-0.0113 0.27093-0.0564 0.47977-0.29915 0.0395-0.0452 0.0734-0.0452 0.0536 0 0.0536 0.0536 0 0.0254-0.0169 0.0931l-0.34996 1.3998-0.0423 0.16369q0.0649 6e-3 0.19473 6e-3h0.0706q0.079 0 0.079 0.0593 0 0.0762-0.079 0.0762-0.0113 0-0.0677-3e-3 -0.0536-3e-3 -0.1524-3e-3 -0.0988-3e-3 -0.21167-3e-3 -0.1524 0-0.25682 3e-3 -0.10442 0-0.14958 3e-3 -0.0423 3e-3 -0.048 3e-3 -0.0734 0-0.0734-0.0564z"/></g><g stroke-width=".33071" style="font-feature-settings:normal;font-variant-caps:normal;font-variant-ligatures:normal;font-variant-numeric:normal" aria-label="iq"><path d="m129.27 408.5q0-0.0423 0.0423-0.14111 0.0452-0.0988 0.1524-0.20038 0.10724-0.1016 0.23707-0.1016 0.12135 0 0.20602 0.0734 0.0875 0.0706 0.0875 0.18345 0 0.0677-0.1524 0.45155-0.14958 0.381-0.14958 0.45156 0 0.0536 0.0452 0.0536 0.0564 0 0.10725-0.0536 0.0536-0.0564 0.079-0.11854 0.0282-0.0649 0.0508-0.127t0.0254-0.0649q0.0169-0.0197 0.0593-0.0197h0.0169q0.0677 0 0.0677 0.0451 0 0.0198-0.0169 0.0677-0.0141 0.048-0.0508 0.11289-0.0367 0.0649-0.0847 0.12417-0.048 0.0564-0.12135 0.0988-0.0734 0.0395-0.15522 0.0395-0.11571 0-0.20603-0.0677-0.0875-0.0677-0.0875-0.18627 0-0.0677 0.14957-0.44873 0.1524-0.38382 0.1524-0.45438 0-0.0536-0.048-0.0536-0.0706 0-0.14394 0.0988-0.0423 0.0593-0.0677 0.11853-0.0226 0.0593-0.0282 0.0931-6e-3 0.031-0.0226 0.0536-0.0169 0.0197-0.0564 0.0197h-0.0141q-0.0734 0-0.0734-0.048zm0.49106-0.92004q0-0.0762 0.0593-0.13265 0.0621-0.0593 0.13829-0.0593 0.0593 0 0.0988 0.0395t0.0395 0.096q0 0.0706-0.0593 0.13265-0.0593 0.0593-0.13829 0.0593-0.0593 0-0.0988-0.0367-0.0395-0.0395-0.0395-0.0988z"/><path d="m130.35 408.92q0-0.13828 0.0508-0.28786t0.14111-0.2794q0.0931-0.12982 0.23989-0.21167 0.14958-0.0847 0.32738-0.0847 0.15804 0 0.27657 0.11007 0.0536-0.048 0.12983-0.0762 0.079-0.0282 0.10724-0.0282 0.0536 0 0.0536 0.0508 0 0.0141-0.1016 0.41769l-0.3048 1.222q0.0677 6e-3 0.10442 6e-3h0.0113q0.0762 0 0.0762 0.0649 0 0.0677-0.079 0.0677-8e-3 0-0.0875-3e-3 -0.0762-3e-3 -0.22295-3e-3h-0.0508q-0.0508 0-0.12136 3e-3 -0.0677 3e-3 -0.0847 3e-3 -0.079 0-0.079-0.0564 0-0.0593 0.048-0.0734 0.0113-3e-3 0.0677-3e-3 0.0621 0 0.11571-0.0113l0.11289-0.45156q-0.14393 0.079-0.2794 0.079-0.0762 0-0.14957-0.0226-0.0706-0.0198-0.14394-0.0649-0.0705-0.048-0.11571-0.14111-0.0423-0.096-0.0423-0.22578zm0.3048 0.14958q0 0.10725 0.048 0.15522 0.0508 0.0452 0.11288 0.0452 0.10443 0 0.19474-0.0677 0.0931-0.0706 0.12135-0.127 0.0141-0.0282 0.0988-0.37254 0.0847-0.34713 0.0847-0.35842 0-0.0564-0.0564-0.11853-0.0564-0.0649-0.14675-0.0649-0.1524 0-0.25965 0.17497-0.0649 0.11289-0.13264 0.36689-0.0649 0.254-0.0649 0.36689z"/></g></g><g transform="translate(17.331 -348.05)" style="font-feature-settings:normal;font-variant-caps:normal;font-variant-ligatures:normal;font-variant-numeric:normal" aria-label="0"><path d="m5.9944 358.23q0-0.76765 0.31609-2.0094 0.31609-1.2531 0.72249-2.0207 0.48542-0.92569 1.1063-1.366 0.63218-0.45156 1.2869-0.45156 0.41769 0 0.7112 0.16934 0.3048 0.15804 0.45156 0.37253t0.22578 0.51929q0.09031 0.29351 0.1016 0.47413 0.02258 0.18063 0.02258 0.38383 0 0.67733-0.27093 1.8175-0.27093 1.1402-0.62089 1.9304-0.49671 1.1176-1.1853 1.6143-0.68862 0.48542-1.3547 0.48542-0.36124 0-0.64347-0.11289-0.27093-0.11289-0.42898-0.31609-0.14676-0.2032-0.24836-0.39511t-0.13547-0.45155q-0.033867-0.25965-0.045156-0.37254-0.011289-0.12418-0.011289-0.27093zm0.72249 0.56444q0 0.59831 0.24836 0.85796 0.25964 0.24835 0.59831 0.24835 0.41769 0 0.80151-0.32737 0.39511-0.33867 0.59831-0.77894 0.36124-0.80151 0.8128-2.6303 0.46284-1.8401 0.46284-2.4723 0-0.51929-0.24836-0.79023-0.24836-0.27093-0.62089-0.27093-0.34996 0-0.74507 0.25964-0.38382 0.25965-0.66604 0.83538-0.3048 0.63218-0.77893 2.5174-0.46284 1.874-0.46284 2.5513z" stroke-width=".26458"/></g><g transform="translate(17.331 -348.05)" stroke-width=".26458" style="font-feature-settings:normal;font-variant-caps:normal;font-variant-ligatures:normal;font-variant-numeric:normal" aria-label="l-1"><path d="m70.667 359.23q0-0.16934 0.06773-0.44027l1.4111-5.6444t0.01129-0.0903q0.02258-0.079 0.02258-0.1016 0-0.0677-0.02258-0.1016t-0.15804-0.0564q-0.12418-0.0339-0.38382-0.0339-0.27093 0-0.27093-0.12418 0-0.1016 0.03387-0.14675 0.04516-0.0565 0.09031-0.0677 0.04516-0.0113 0.13547-0.0226l1.1176-0.0903q0.06773-0.0226 0.18062-0.0226 0.15804 0 0.15804 0.13547 0 0.0452-0.03387 0.14675l-1.6143 6.446q-0.06773 0.27093-0.06773 0.51929 0 0.46284 0.29351 0.46284 0.41769 0 0.72249-1.2644l0.07902-0.28222q0.03387-0.0564 0.15804-0.0564 0.16933 0 0.16933 0.11289 0 0.0226-0.04516 0.21449-0.04516 0.19191-0.13547 0.47413-0.07902 0.28222-0.16933 0.46284-0.3048 0.58703-0.80151 0.58703-0.4064 0-0.67733-0.28223-0.27093-0.29351-0.27093-0.73377z"/><path d="m73.465 357.85q0.04515-0.39511 0.19191-0.45155 0.04516-0.0226 0.14676-0.0226h2.2465q0.24836 0 0.24836 0.15804 0 0.0226-0.01129 0.1016t-0.05644 0.19191q-0.03387 0.11289-0.09031 0.14676-0.06773 0.0339-0.16933 0.0339h-2.2578q-0.24836 0-0.24836-0.15805z"/><path d="m77.85 359.99q0-0.14675 0.06773-0.18062 0.07902-0.0339 0.24836-0.0339h0.09031q0.63218 0 0.8128-0.0903t0.24836-0.38382l1.3321-5.3509q-0.62089 0.46284-1.2531 0.46284-0.18062 0-0.18062-0.13547 0-0.18062 0.18062-0.21449 1.1176-0.11288 1.9868-1.2756 0.14676-0.18062 0.21449-0.18062 0.13547 0 0.13547 0.13546 0 0.0452-0.03387 0.14676l-1.6143 6.446q-0.03387 0.13546-0.03387 0.21448 0 0.11289 0.05644 0.14676 0.05644 0.0339 0.25964 0.0564 0.29351 0.0226 0.48542 0.0226h0.09031q0.11289 0 0.15804 0.0113 0.05644 0 0.09031 0.0339 0.04516 0.0226 0.04516 0.0903 0 0.21449-0.22578 0.21449-0.24836 0-0.75636-0.0113-0.508-0.0226-0.75636-0.0226-0.23707 0-0.73378 0.0226-0.49671 0.0113-0.74507 0.0113-0.16933 0-0.16933-0.13547z"/></g><g transform="translate(17.331 -348.05)" style="font-feature-settings:normal;font-variant-caps:normal;font-variant-ligatures:normal;font-variant-numeric:normal" aria-label="l"><path d="m142.74 359.23q0-0.16934 0.0677-0.44027l1.4111-5.6444t0.0113-0.0903q0.0226-0.079 0.0226-0.1016 0-0.0677-0.0226-0.1016t-0.15804-0.0564q-0.12418-0.0339-0.38383-0.0339-0.27093 0-0.27093-0.12418 0-0.1016 0.0339-0.14675 0.0452-0.0565 0.0903-0.0677 0.0452-0.0113 0.13546-0.0226l1.1176-0.0903q0.0677-0.0226 0.18063-0.0226 0.15804 0 0.15804 0.13547 0 0.0452-0.0339 0.14675l-1.6143 6.446q-0.0677 0.27093-0.0677 0.51929 0 0.46284 0.29351 0.46284 0.41769 0 0.72249-1.2644l0.079-0.28222q0.0339-0.0564 0.15805-0.0564 0.16933 0 0.16933 0.11289 0 0.0226-0.0452 0.21449-0.0452 0.19191-0.13546 0.47413-0.079 0.28222-0.16934 0.46284-0.3048 0.58703-0.80151 0.58703-0.4064 0-0.67733-0.28223-0.27093-0.29351-0.27093-0.73377z" stroke-width=".26458"/></g><g transform="translate(17.331 -348.05)" style="font-feature-settings:normal;font-variant-caps:normal;font-variant-ligatures:normal;font-variant-numeric:normal" aria-label="L"><path d="m208.49 359.99q0-0.14675 0.0677-0.18062 0.0677-0.0339 0.23706-0.0339 0.55316 0 0.69992-0.079 0.15804-0.0903 0.22577-0.39511l1.524-6.1299q0.0452-0.15804 0.0452-0.21449 0-0.12417-0.15805-0.15804-0.15804-0.0339-0.49671-0.0339-0.12417 0-0.18062 0-0.0452-0.0113-0.0903-0.0339-0.0339-0.0339-0.0339-0.1016 0-0.21449 0.21449-0.21449 0.22578 0 0.68862 0.0226 0.46285 0.0113 0.69992 0.0113 0.25964 0 0.77893-0.0113 0.53058-0.0226 0.77893-0.0226 0.16934 0 0.16934 0.13546 0 0.14676-0.0677 0.18063-0.0677 0.0339-0.24835 0.0339h-0.11289q-0.65476 0-0.83538 0.1016-0.16933 0.0903-0.24836 0.4064l-1.5353 6.1412q0 0.0113-0.0226 0.11289-0.0226 0.0903-0.0226 0.13546 0 0.0452 0.0113 0.0677 0.0113 0.0226 0.0903 0.0339t0.24836 0.0113h0.9144q0.508 0 0.9144-0.15804 0.4064-0.15805 0.65475-0.34996 0.24836-0.2032 0.47413-0.56444 0.22578-0.37254 0.31609-0.59831 0.1016-0.23707 0.24836-0.64347 0.0677-0.16933 0.0903-0.2032 0.0339-0.0452 0.13547-0.0452 0.16933 0 0.16933 0.13547l-0.0226 0.0677q-0.0226 0.0677-0.0226 0.079l-0.85795 2.4271q-0.0565 0.14675-0.1016 0.18062-0.0452 0.0226-0.22578 0.0226h-4.8316q-0.11289 0-0.15805 0-0.0452-0.0113-0.0903-0.0339-0.0339-0.0339-0.0339-0.1016z" stroke-width=".26458"/></g><g transform="rotate(180 8.6654 -174.03)" stroke-width=".41325" style="font-feature-settings:normal;font-variant-caps:normal;font-variant-ligatures:normal;font-variant-numeric:normal" aria-label="..."><path d="m-48.683-356.09q0-0.40554 0.33501-0.75818 0.35264-0.35264 0.79344-0.35264 0.33501 0 0.54659 0.22922 0.21158 0.21158 0.21158 0.52896 0 0.40553-0.35264 0.75817-0.33501 0.35264-0.77581 0.35264-0.33501 0-0.54659-0.21158-0.21158-0.22922-0.21158-0.54659z"/><path d="m-43.277-356.09q0-0.40554 0.33501-0.75818 0.35264-0.35264 0.79344-0.35264 0.33501 0 0.54659 0.22922 0.21158 0.21158 0.21158 0.52896 0 0.40553-0.35264 0.75817-0.33501 0.35264-0.77581 0.35264-0.33501 0-0.54659-0.21158-0.21158-0.22922-0.21158-0.54659z"/><path d="m-37.87-356.09q0-0.40554 0.33501-0.75818 0.35264-0.35264 0.79344-0.35264 0.33501 0 0.54659 0.22922 0.21158 0.21158 0.21158 0.52896 0 0.40553-0.35264 0.75817-0.33501 0.35264-0.77581 0.35264-0.33501 0-0.54659-0.21158-0.21158-0.22922-0.21158-0.54659z"/></g><g transform="rotate(180 8.6654 -174.03)" stroke-width=".41325" style="font-feature-settings:normal;font-variant-caps:normal;font-variant-ligatures:normal;font-variant-numeric:normal" aria-label="..."><path d="m-184.15-356.09q0-0.40554 0.335-0.75818 0.35264-0.35264 0.79344-0.35264 0.33501 0 0.5466 0.22922 0.21158 0.21158 0.21158 0.52896 0 0.40553-0.35264 0.75817-0.33501 0.35264-0.77581 0.35264-0.33501 0-0.54659-0.21158-0.21158-0.22922-0.21158-0.54659z"/><path d="m-178.74-356.09q0-0.40554 0.33501-0.75818 0.35264-0.35264 0.79344-0.35264 0.33501 0 0.54659 0.22922 0.21159 0.21158 0.21159 0.52896 0 0.40553-0.35264 0.75817-0.33501 0.35264-0.77581 0.35264-0.33501 0-0.54659-0.21158-0.21159-0.22922-0.21159-0.54659z"/><path d="m-173.34-356.09q0-0.40554 0.33501-0.75818 0.35264-0.35264 0.79344-0.35264 0.33501 0 0.54659 0.22922 0.21159 0.21158 0.21159 0.52896 0 0.40553-0.35264 0.75817-0.33501 0.35264-0.77581 0.35264-0.33501 0-0.54659-0.21158-0.21159-0.22922-0.21159-0.54659z"/></g><path d="m0.76676 11.676q0-0.1016 0.02258-0.14675l1.6708-6.6604t0.01129-0.0903q0.02258-0.079 0.02258-0.1016 0-0.0677-0.02258-0.1016t-0.15804-0.0564q-0.12418-0.0339-0.38382-0.0339-0.27093 0-0.27093-0.12418 0-0.1016 0.03387-0.14675 0.04516-0.0565 0.09031-0.0677 0.04516-0.0113 0.13547-0.0226l1.1176-0.0903q0.06773-0.0226 0.18062-0.0226 0.15804 0 0.15804 0.13546 0 0.0452-0.03387 0.14676l-1.1515 4.6059q0.29351-0.13547 0.508-0.33867t0.7112-0.77893q0.79022-0.92569 1.4676-0.92569 0.34996 0 0.53058 0.21449 0.18062 0.2032 0.18062 0.46284 0 0.29351-0.18062 0.46285-0.16933 0.16933-0.38382 0.16933-0.2032 0-0.3048-0.11289-0.09031-0.11289-0.09031-0.24836 0-0.079 0.02258-0.16933 0.03387-0.1016 0.15804-0.22578 0.13547-0.13546 0.34996-0.16933-0.13547-0.13547-0.3048-0.13547-0.27093 0-0.56444 0.19191-0.28222 0.18063-0.46284 0.36125-0.16933 0.18062-0.56444 0.63218-0.47413 0.54186-0.80151 0.74506 1.5014 0.21449 1.5014 1.174 0 0.15804-0.05645 0.39511-0.09031 0.45155-0.09031 0.63218 0 0.48542 0.32738 0.48542 0.18062 0 0.31609-0.11289 0.14676-0.12418 0.24836-0.34996 0.1016-0.23706 0.15804-0.41768 0.06773-0.18063 0.13547-0.46285 0.04516-0.18062 0.07902-0.21449 0.03387-0.0451 0.13547-0.0451 0.16933 0 0.16933 0.11289 0 0.0339-0.04516 0.21448-0.04516 0.18063-0.14676 0.46285t-0.21449 0.47413q-0.33867 0.58702-0.86924 0.58702-0.37253 0-0.66604-0.27093-0.28222-0.27093-0.28222-0.82409 0-0.19191 0.04516-0.38382 0.03387-0.15804 0.03387-0.28222 0-0.3048-0.21449-0.51929-0.2032-0.21449-0.44027-0.3048-0.22578-0.0903-0.48542-0.12418l-0.57573 2.2916q-0.09031 0.41768-0.44027 0.41768-0.14676 0-0.23707-0.0903-0.07902-0.0903-0.07902-0.2032z" stroke-width=".26458" style="font-feature-settings:normal;font-variant-caps:normal;font-variant-ligatures:normal;font-variant-numeric:normal"/><path d="m10.717 10.246q-0.24836 0-0.24836-0.12417 0-0.12418 0.28222-0.12418h6.2992q0.18062 0 0.22578 0.0226 0.05644 0.0226 0.06773 0.079t-0.03387 0.1016-0.28222 0.0452zm0.3048-2.3142q0-0.12418 0.22578-0.12418h6.4234q0.21449 0 0.21449 0.12418t-0.28222 0.12418h-6.0283q-0.04515 0-0.12418 0.0113-0.07902 0-0.12418 0h-0.03387q-0.27093 0-0.27093-0.13547z" stroke-width=".26458" style="font-feature-settings:normal;font-variant-caps:normal;font-variant-ligatures:normal;font-variant-numeric:normal"/></g></svg>
